# Tiled2Unity generated file. Do not modify by hand.
# Wavefront file for 'alnorteruta_mesh_0003.obj'

# Vertices (Count = 280)
v 0 -16 0
v -16 -16 0
v -16 0 0
v 0 0 0
v -16 -16 0
v -32 -16 0
v -32 0 0
v -16 0 0
v -32 -16 0
v -48 -16 0
v -48 0 0
v -32 0 0
v 0 -32 0
v -16 -32 0
v -16 -16 0
v 0 -16 0
v -16 -32 0
v -32 -32 0
v -32 -16 0
v -16 -16 0
v -32 -32 0
v -48 -32 0
v -48 -16 0
v -32 -16 0
v -192 -96 0
v -208 -96 0
v -208 -80 0
v -192 -80 0
v -208 -96 0
v -224 -96 0
v -224 -80 0
v -208 -80 0
v -64 -112 0
v -80 -112 0
v -80 -96 0
v -64 -96 0
v -192 -112 0
v -208 -112 0
v -208 -96 0
v -192 -96 0
v -208 -112 0
v -224 -112 0
v -224 -96 0
v -208 -96 0
v -224 -112 0
v -240 -112 0
v -240 -96 0
v -224 -96 0
v -240 -112 0
v -256 -112 0
v -256 -96 0
v -240 -96 0
v -256 -112 0
v -272 -112 0
v -272 -96 0
v -256 -96 0
v -64 -128 0
v -80 -128 0
v -80 -112 0
v -64 -112 0
v -64 -144 0
v -80 -144 0
v -80 -128 0
v -64 -128 0
v -64 -160 0
v -80 -160 0
v -80 -144 0
v -64 -144 0
v -80 -160 0
v -96 -160 0
v -96 -144 0
v -80 -144 0
v -96 -160 0
v -112 -160 0
v -112 -144 0
v -96 -144 0
v -112 -160 0
v -128 -160 0
v -128 -144 0
v -112 -144 0
v 0 -176 0
v -16 -176 0
v -16 -160 0
v 0 -160 0
v -16 -176 0
v -32 -176 0
v -32 -160 0
v -16 -160 0
v -32 -176 0
v -48 -176 0
v -48 -160 0
v -32 -160 0
v -48 -176 0
v -64 -176 0
v -64 -160 0
v -48 -160 0
v -64 -176 0
v -80 -176 0
v -80 -160 0
v -64 -160 0
v 0 -192 0
v -16 -192 0
v -16 -176 0
v 0 -176 0
v -16 -192 0
v -32 -192 0
v -32 -176 0
v -16 -176 0
v -32 -192 0
v -48 -192 0
v -48 -176 0
v -32 -176 0
v -48 -192 0
v -64 -192 0
v -64 -176 0
v -48 -176 0
v -64 -192 0
v -80 -192 0
v -80 -176 0
v -64 -176 0
v 0 -208 0
v -16 -208 0
v -16 -192 0
v 0 -192 0
v -16 -208 0
v -32 -208 0
v -32 -192 0
v -16 -192 0
v -32 -208 0
v -48 -208 0
v -48 -192 0
v -32 -192 0
v -48 -208 0
v -64 -208 0
v -64 -192 0
v -48 -192 0
v -64 -208 0
v -80 -208 0
v -80 -192 0
v -64 -192 0
v 0 -224 0
v -16 -224 0
v -16 -208 0
v 0 -208 0
v -16 -224 0
v -32 -224 0
v -32 -208 0
v -16 -208 0
v -32 -224 0
v -48 -224 0
v -48 -208 0
v -32 -208 0
v -48 -224 0
v -64 -224 0
v -64 -208 0
v -48 -208 0
v -64 -224 0
v -80 -224 0
v -80 -208 0
v -64 -208 0
v 0 -240 0
v -16 -240 0
v -16 -224 0
v 0 -224 0
v -16 -240 0
v -32 -240 0
v -32 -224 0
v -16 -224 0
v -32 -240 0
v -48 -240 0
v -48 -224 0
v -32 -224 0
v -48 -240 0
v -64 -240 0
v -64 -224 0
v -48 -224 0
v -64 -240 0
v -80 -240 0
v -80 -224 0
v -64 -224 0
v 0 -256 0
v -16 -256 0
v -16 -240 0
v 0 -240 0
v -16 -256 0
v -32 -256 0
v -32 -240 0
v -16 -240 0
v -32 -256 0
v -48 -256 0
v -48 -240 0
v -32 -240 0
v -48 -256 0
v -64 -256 0
v -64 -240 0
v -48 -240 0
v -64 -256 0
v -80 -256 0
v -80 -240 0
v -64 -240 0
v 0 -272 0
v -16 -272 0
v -16 -256 0
v 0 -256 0
v -16 -272 0
v -32 -272 0
v -32 -256 0
v -16 -256 0
v -32 -272 0
v -48 -272 0
v -48 -256 0
v -32 -256 0
v -48 -272 0
v -64 -272 0
v -64 -256 0
v -48 -256 0
v -64 -272 0
v -80 -272 0
v -80 -256 0
v -64 -256 0
v 0 -288 0
v -16 -288 0
v -16 -272 0
v 0 -272 0
v -16 -288 0
v -32 -288 0
v -32 -272 0
v -16 -272 0
v -32 -288 0
v -48 -288 0
v -48 -272 0
v -32 -272 0
v -48 -288 0
v -64 -288 0
v -64 -272 0
v -48 -272 0
v -64 -288 0
v -80 -288 0
v -80 -272 0
v -64 -272 0
v 0 -304 0
v -16 -304 0
v -16 -288 0
v 0 -288 0
v -16 -304 0
v -32 -304 0
v -32 -288 0
v -16 -288 0
v -32 -304 0
v -48 -304 0
v -48 -288 0
v -32 -288 0
v -48 -304 0
v -64 -304 0
v -64 -288 0
v -48 -288 0
v -64 -304 0
v -80 -304 0
v -80 -288 0
v -64 -288 0
v 0 -320 0
v -16 -320 0
v -16 -304 0
v 0 -304 0
v -16 -320 0
v -32 -320 0
v -32 -304 0
v -16 -304 0
v -32 -320 0
v -48 -320 0
v -48 -304 0
v -32 -304 0
v -48 -320 0
v -64 -320 0
v -64 -304 0
v -48 -304 0
v -64 -320 0
v -80 -320 0
v -80 -304 0
v -64 -304 0

# Texture cooridinates (Count = 55)
vt 0.275 0.2777778
vt 0.3 0.2777778
vt 0.3 0.3055556
vt 0.275 0.3055556
vt 0.325 0.2777778
vt 0.325 0.3055556
vt 0.35 0.2777778
vt 0.35 0.3055556
vt 0.275 0.25
vt 0.3 0.25
vt 0.325 0.25
vt 0.35 0.25
vt 0.225 0.6666666
vt 0.25 0.6666666
vt 0.25 0.6944444
vt 0.225 0.6944444
vt 0.275 0.6666666
vt 0.275 0.6944444
vt 0 0.5
vt 0.025 0.5
vt 0.025 0.5277778
vt 0 0.5277778
vt 0.225 0.6388889
vt 0.25 0.6388889
vt 0.275 0.6388889
vt 0.175 0.8333333
vt 0.2 0.8333333
vt 0.2 0.8611111
vt 0.175 0.8611111
vt 0.225 0.8333333
vt 0.225 0.8611111
vt 0.25 0.8333333
vt 0.25 0.8611111
vt 0 0.4722222
vt 0.025 0.4722222
vt 0 0.4444444
vt 0.025 0.4444444
vt 0.05 0.4722222
vt 0.075 0.4722222
vt 0.075 0.5
vt 0.05 0.5
vt 0.1 0.4722222
vt 0.1 0.5
vt 0.075 0.6666666
vt 0.1 0.6666666
vt 0.1 0.6944444
vt 0.075 0.6944444
vt 0 0.75
vt 0.025 0.75
vt 0.025 0.7777778
vt 0 0.7777778
vt 0.05 0.75
vt 0.05 0.7777778
vt 0.075 0.6388889
vt 0.1 0.6388889

# Normal
vn 0 0 -1

# Mesh description
g alnorteruta_mesh_0003

# Faces
f 1/1/1 2/2/1 3/3/1 4/4/1
f 5/2/1 6/5/1 7/6/1 8/3/1
f 9/5/1 10/7/1 11/8/1 12/6/1
f 13/9/1 14/10/1 15/2/1 16/1/1
f 17/10/1 18/11/1 19/5/1 20/2/1
f 21/11/1 22/12/1 23/7/1 24/5/1
f 25/13/1 26/14/1 27/15/1 28/16/1
f 29/14/1 30/17/1 31/18/1 32/15/1
f 33/19/1 34/20/1 35/21/1 36/22/1
f 37/23/1 38/24/1 39/14/1 40/13/1
f 41/24/1 42/25/1 43/17/1 44/14/1
f 45/26/1 46/27/1 47/28/1 48/29/1
f 49/27/1 50/30/1 51/31/1 52/28/1
f 53/30/1 54/32/1 55/33/1 56/31/1
f 57/34/1 58/35/1 59/20/1 60/19/1
f 61/19/1 62/20/1 63/21/1 64/22/1
f 65/36/1 66/37/1 67/35/1 68/34/1
f 69/38/1 70/39/1 71/40/1 72/41/1
f 73/38/1 74/39/1 75/40/1 76/41/1
f 77/39/1 78/42/1 79/43/1 80/40/1
f 81/44/1 82/45/1 83/46/1 84/47/1
f 85/48/1 86/49/1 87/50/1 88/51/1
f 89/48/1 90/49/1 91/50/1 92/51/1
f 93/49/1 94/52/1 95/53/1 96/50/1
f 97/44/1 98/45/1 99/46/1 100/47/1
f 101/54/1 102/55/1 103/45/1 104/44/1
f 105/48/1 106/49/1 107/50/1 108/51/1
f 109/48/1 110/49/1 111/50/1 112/51/1
f 113/49/1 114/52/1 115/53/1 116/50/1
f 117/54/1 118/55/1 119/45/1 120/44/1
f 121/44/1 122/45/1 123/46/1 124/47/1
f 125/48/1 126/49/1 127/50/1 128/51/1
f 129/48/1 130/49/1 131/50/1 132/51/1
f 133/49/1 134/52/1 135/53/1 136/50/1
f 137/44/1 138/45/1 139/46/1 140/47/1
f 141/54/1 142/55/1 143/45/1 144/44/1
f 145/48/1 146/49/1 147/50/1 148/51/1
f 149/49/1 150/52/1 151/53/1 152/50/1
f 153/49/1 154/52/1 155/53/1 156/50/1
f 157/54/1 158/55/1 159/45/1 160/44/1
f 161/44/1 162/45/1 163/46/1 164/47/1
f 165/48/1 166/49/1 167/50/1 168/51/1
f 169/48/1 170/49/1 171/50/1 172/51/1
f 173/49/1 174/52/1 175/53/1 176/50/1
f 177/44/1 178/45/1 179/46/1 180/47/1
f 181/54/1 182/55/1 183/45/1 184/44/1
f 185/48/1 186/49/1 187/50/1 188/51/1
f 189/48/1 190/49/1 191/50/1 192/51/1
f 193/49/1 194/52/1 195/53/1 196/50/1
f 197/54/1 198/55/1 199/45/1 200/44/1
f 201/44/1 202/45/1 203/46/1 204/47/1
f 205/48/1 206/49/1 207/50/1 208/51/1
f 209/48/1 210/49/1 211/50/1 212/51/1
f 213/49/1 214/52/1 215/53/1 216/50/1
f 217/54/1 218/55/1 219/45/1 220/44/1
f 221/54/1 222/55/1 223/45/1 224/44/1
f 225/48/1 226/49/1 227/50/1 228/51/1
f 229/48/1 230/49/1 231/50/1 232/51/1
f 233/49/1 234/52/1 235/53/1 236/50/1
f 237/44/1 238/45/1 239/46/1 240/47/1
f 241/44/1 242/45/1 243/46/1 244/47/1
f 245/48/1 246/49/1 247/50/1 248/51/1
f 249/48/1 250/49/1 251/50/1 252/51/1
f 253/49/1 254/52/1 255/53/1 256/50/1
f 257/44/1 258/45/1 259/46/1 260/47/1
f 261/54/1 262/55/1 263/45/1 264/44/1
f 265/48/1 266/49/1 267/50/1 268/51/1
f 269/48/1 270/49/1 271/50/1 272/51/1
f 273/49/1 274/52/1 275/53/1 276/50/1
f 277/54/1 278/55/1 279/45/1 280/44/1

