# Tiled2Unity generated file. Do not modify by hand.
# Wavefront file for 'boque2_mesh_0002.obj'

# Vertices (Count = 640)
v 0 -8 0
v -8 -8 0
v -8 0 0
v 0 0 0
v -8 -8 0
v -16 -8 0
v -16 0 0
v -8 0 0
v -16 -8 0
v -24 -8 0
v -24 0 0
v -16 0 0
v -24 -8 0
v -32 -8 0
v -32 0 0
v -24 0 0
v -128 -8 0
v -136 -8 0
v -136 0 0
v -128 0 0
v -136 -8 0
v -144 -8 0
v -144 0 0
v -136 0 0
v -144 -8 0
v -152 -8 0
v -152 0 0
v -144 0 0
v -152 -8 0
v -160 -8 0
v -160 0 0
v -152 0 0
v 0 -16 0
v -8 -16 0
v -8 -8 0
v 0 -8 0
v -8 -16 0
v -16 -16 0
v -16 -8 0
v -8 -8 0
v -16 -16 0
v -24 -16 0
v -24 -8 0
v -16 -8 0
v -24 -16 0
v -32 -16 0
v -32 -8 0
v -24 -8 0
v -128 -16 0
v -136 -16 0
v -136 -8 0
v -128 -8 0
v -136 -16 0
v -144 -16 0
v -144 -8 0
v -136 -8 0
v -144 -16 0
v -152 -16 0
v -152 -8 0
v -144 -8 0
v -152 -16 0
v -160 -16 0
v -160 -8 0
v -152 -8 0
v 0 -24 0
v -8 -24 0
v -8 -16 0
v 0 -16 0
v -8 -24 0
v -16 -24 0
v -16 -16 0
v -8 -16 0
v -16 -24 0
v -24 -24 0
v -24 -16 0
v -16 -16 0
v -24 -24 0
v -32 -24 0
v -32 -16 0
v -24 -16 0
v -128 -24 0
v -136 -24 0
v -136 -16 0
v -128 -16 0
v -136 -24 0
v -144 -24 0
v -144 -16 0
v -136 -16 0
v -144 -24 0
v -152 -24 0
v -152 -16 0
v -144 -16 0
v -152 -24 0
v -160 -24 0
v -160 -16 0
v -152 -16 0
v 0 -32 0
v -8 -32 0
v -8 -24 0
v 0 -24 0
v -8 -32 0
v -16 -32 0
v -16 -24 0
v -8 -24 0
v -16 -32 0
v -24 -32 0
v -24 -24 0
v -16 -24 0
v -24 -32 0
v -32 -32 0
v -32 -24 0
v -24 -24 0
v -128 -32 0
v -136 -32 0
v -136 -24 0
v -128 -24 0
v -136 -32 0
v -144 -32 0
v -144 -24 0
v -136 -24 0
v -144 -32 0
v -152 -32 0
v -152 -24 0
v -144 -24 0
v -152 -32 0
v -160 -32 0
v -160 -24 0
v -152 -24 0
v 0 -40 0
v -8 -40 0
v -8 -32 0
v 0 -32 0
v -8 -40 0
v -16 -40 0
v -16 -32 0
v -8 -32 0
v -16 -40 0
v -24 -40 0
v -24 -32 0
v -16 -32 0
v -24 -40 0
v -32 -40 0
v -32 -32 0
v -24 -32 0
v -128 -40 0
v -136 -40 0
v -136 -32 0
v -128 -32 0
v -136 -40 0
v -144 -40 0
v -144 -32 0
v -136 -32 0
v -144 -40 0
v -152 -40 0
v -152 -32 0
v -144 -32 0
v -152 -40 0
v -160 -40 0
v -160 -32 0
v -152 -32 0
v 0 -48 0
v -8 -48 0
v -8 -40 0
v 0 -40 0
v -8 -48 0
v -16 -48 0
v -16 -40 0
v -8 -40 0
v -16 -48 0
v -24 -48 0
v -24 -40 0
v -16 -40 0
v -24 -48 0
v -32 -48 0
v -32 -40 0
v -24 -40 0
v -128 -48 0
v -136 -48 0
v -136 -40 0
v -128 -40 0
v -136 -48 0
v -144 -48 0
v -144 -40 0
v -136 -40 0
v -144 -48 0
v -152 -48 0
v -152 -40 0
v -144 -40 0
v -152 -48 0
v -160 -48 0
v -160 -40 0
v -152 -40 0
v 0 -56 0
v -8 -56 0
v -8 -48 0
v 0 -48 0
v -8 -56 0
v -16 -56 0
v -16 -48 0
v -8 -48 0
v -16 -56 0
v -24 -56 0
v -24 -48 0
v -16 -48 0
v -24 -56 0
v -32 -56 0
v -32 -48 0
v -24 -48 0
v -128 -56 0
v -136 -56 0
v -136 -48 0
v -128 -48 0
v -136 -56 0
v -144 -56 0
v -144 -48 0
v -136 -48 0
v -144 -56 0
v -152 -56 0
v -152 -48 0
v -144 -48 0
v -152 -56 0
v -160 -56 0
v -160 -48 0
v -152 -48 0
v 0 -64 0
v -8 -64 0
v -8 -56 0
v 0 -56 0
v -8 -64 0
v -16 -64 0
v -16 -56 0
v -8 -56 0
v -16 -64 0
v -24 -64 0
v -24 -56 0
v -16 -56 0
v -24 -64 0
v -32 -64 0
v -32 -56 0
v -24 -56 0
v -128 -64 0
v -136 -64 0
v -136 -56 0
v -128 -56 0
v -136 -64 0
v -144 -64 0
v -144 -56 0
v -136 -56 0
v -144 -64 0
v -152 -64 0
v -152 -56 0
v -144 -56 0
v -152 -64 0
v -160 -64 0
v -160 -56 0
v -152 -56 0
v 0 -72 0
v -8 -72 0
v -8 -64 0
v 0 -64 0
v -8 -72 0
v -16 -72 0
v -16 -64 0
v -8 -64 0
v -16 -72 0
v -24 -72 0
v -24 -64 0
v -16 -64 0
v -24 -72 0
v -32 -72 0
v -32 -64 0
v -24 -64 0
v -128 -72 0
v -136 -72 0
v -136 -64 0
v -128 -64 0
v -136 -72 0
v -144 -72 0
v -144 -64 0
v -136 -64 0
v -144 -72 0
v -152 -72 0
v -152 -64 0
v -144 -64 0
v -152 -72 0
v -160 -72 0
v -160 -64 0
v -152 -64 0
v 0 -80 0
v -8 -80 0
v -8 -72 0
v 0 -72 0
v -8 -80 0
v -16 -80 0
v -16 -72 0
v -8 -72 0
v -16 -80 0
v -24 -80 0
v -24 -72 0
v -16 -72 0
v -24 -80 0
v -32 -80 0
v -32 -72 0
v -24 -72 0
v -128 -80 0
v -136 -80 0
v -136 -72 0
v -128 -72 0
v -136 -80 0
v -144 -80 0
v -144 -72 0
v -136 -72 0
v -144 -80 0
v -152 -80 0
v -152 -72 0
v -144 -72 0
v -152 -80 0
v -160 -80 0
v -160 -72 0
v -152 -72 0
v 0 -88 0
v -8 -88 0
v -8 -80 0
v 0 -80 0
v -8 -88 0
v -16 -88 0
v -16 -80 0
v -8 -80 0
v -16 -88 0
v -24 -88 0
v -24 -80 0
v -16 -80 0
v -24 -88 0
v -32 -88 0
v -32 -80 0
v -24 -80 0
v -128 -88 0
v -136 -88 0
v -136 -80 0
v -128 -80 0
v -136 -88 0
v -144 -88 0
v -144 -80 0
v -136 -80 0
v -144 -88 0
v -152 -88 0
v -152 -80 0
v -144 -80 0
v -152 -88 0
v -160 -88 0
v -160 -80 0
v -152 -80 0
v 0 -96 0
v -8 -96 0
v -8 -88 0
v 0 -88 0
v -8 -96 0
v -16 -96 0
v -16 -88 0
v -8 -88 0
v -16 -96 0
v -24 -96 0
v -24 -88 0
v -16 -88 0
v -24 -96 0
v -32 -96 0
v -32 -88 0
v -24 -88 0
v -128 -96 0
v -136 -96 0
v -136 -88 0
v -128 -88 0
v -136 -96 0
v -144 -96 0
v -144 -88 0
v -136 -88 0
v -144 -96 0
v -152 -96 0
v -152 -88 0
v -144 -88 0
v -152 -96 0
v -160 -96 0
v -160 -88 0
v -152 -88 0
v 0 -104 0
v -8 -104 0
v -8 -96 0
v 0 -96 0
v -8 -104 0
v -16 -104 0
v -16 -96 0
v -8 -96 0
v -16 -104 0
v -24 -104 0
v -24 -96 0
v -16 -96 0
v -24 -104 0
v -32 -104 0
v -32 -96 0
v -24 -96 0
v -128 -104 0
v -136 -104 0
v -136 -96 0
v -128 -96 0
v -136 -104 0
v -144 -104 0
v -144 -96 0
v -136 -96 0
v -144 -104 0
v -152 -104 0
v -152 -96 0
v -144 -96 0
v -152 -104 0
v -160 -104 0
v -160 -96 0
v -152 -96 0
v 0 -112 0
v -8 -112 0
v -8 -104 0
v 0 -104 0
v -8 -112 0
v -16 -112 0
v -16 -104 0
v -8 -104 0
v -16 -112 0
v -24 -112 0
v -24 -104 0
v -16 -104 0
v -24 -112 0
v -32 -112 0
v -32 -104 0
v -24 -104 0
v -128 -112 0
v -136 -112 0
v -136 -104 0
v -128 -104 0
v -136 -112 0
v -144 -112 0
v -144 -104 0
v -136 -104 0
v -144 -112 0
v -152 -112 0
v -152 -104 0
v -144 -104 0
v -152 -112 0
v -160 -112 0
v -160 -104 0
v -152 -104 0
v 0 -120 0
v -8 -120 0
v -8 -112 0
v 0 -112 0
v -8 -120 0
v -16 -120 0
v -16 -112 0
v -8 -112 0
v -16 -120 0
v -24 -120 0
v -24 -112 0
v -16 -112 0
v -24 -120 0
v -32 -120 0
v -32 -112 0
v -24 -112 0
v -128 -120 0
v -136 -120 0
v -136 -112 0
v -128 -112 0
v -136 -120 0
v -144 -120 0
v -144 -112 0
v -136 -112 0
v -144 -120 0
v -152 -120 0
v -152 -112 0
v -144 -112 0
v -152 -120 0
v -160 -120 0
v -160 -112 0
v -152 -112 0
v 0 -128 0
v -8 -128 0
v -8 -120 0
v 0 -120 0
v -8 -128 0
v -16 -128 0
v -16 -120 0
v -8 -120 0
v -16 -128 0
v -24 -128 0
v -24 -120 0
v -16 -120 0
v -24 -128 0
v -32 -128 0
v -32 -120 0
v -24 -120 0
v -128 -128 0
v -136 -128 0
v -136 -120 0
v -128 -120 0
v -136 -128 0
v -144 -128 0
v -144 -120 0
v -136 -120 0
v -144 -128 0
v -152 -128 0
v -152 -120 0
v -144 -120 0
v -152 -128 0
v -160 -128 0
v -160 -120 0
v -152 -120 0
v 0 -136 0
v -8 -136 0
v -8 -128 0
v 0 -128 0
v -8 -136 0
v -16 -136 0
v -16 -128 0
v -8 -128 0
v -16 -136 0
v -24 -136 0
v -24 -128 0
v -16 -128 0
v -24 -136 0
v -32 -136 0
v -32 -128 0
v -24 -128 0
v -128 -136 0
v -136 -136 0
v -136 -128 0
v -128 -128 0
v -136 -136 0
v -144 -136 0
v -144 -128 0
v -136 -128 0
v -144 -136 0
v -152 -136 0
v -152 -128 0
v -144 -128 0
v -152 -136 0
v -160 -136 0
v -160 -128 0
v -152 -128 0
v 0 -144 0
v -8 -144 0
v -8 -136 0
v 0 -136 0
v -8 -144 0
v -16 -144 0
v -16 -136 0
v -8 -136 0
v -16 -144 0
v -24 -144 0
v -24 -136 0
v -16 -136 0
v -24 -144 0
v -32 -144 0
v -32 -136 0
v -24 -136 0
v -128 -144 0
v -136 -144 0
v -136 -136 0
v -128 -136 0
v -136 -144 0
v -144 -144 0
v -144 -136 0
v -136 -136 0
v -144 -144 0
v -152 -144 0
v -152 -136 0
v -144 -136 0
v -152 -144 0
v -160 -144 0
v -160 -136 0
v -152 -136 0
v 0 -152 0
v -8 -152 0
v -8 -144 0
v 0 -144 0
v -8 -152 0
v -16 -152 0
v -16 -144 0
v -8 -144 0
v -16 -152 0
v -24 -152 0
v -24 -144 0
v -16 -144 0
v -24 -152 0
v -32 -152 0
v -32 -144 0
v -24 -144 0
v -128 -152 0
v -136 -152 0
v -136 -144 0
v -128 -144 0
v -136 -152 0
v -144 -152 0
v -144 -144 0
v -136 -144 0
v -144 -152 0
v -152 -152 0
v -152 -144 0
v -144 -144 0
v -152 -152 0
v -160 -152 0
v -160 -144 0
v -152 -144 0
v 0 -160 0
v -8 -160 0
v -8 -152 0
v 0 -152 0
v -8 -160 0
v -16 -160 0
v -16 -152 0
v -8 -152 0
v -16 -160 0
v -24 -160 0
v -24 -152 0
v -16 -152 0
v -24 -160 0
v -32 -160 0
v -32 -152 0
v -24 -152 0
v -128 -160 0
v -136 -160 0
v -136 -152 0
v -128 -152 0
v -136 -160 0
v -144 -160 0
v -144 -152 0
v -136 -152 0
v -144 -160 0
v -152 -160 0
v -152 -152 0
v -144 -152 0
v -152 -160 0
v -160 -160 0
v -160 -152 0
v -152 -152 0

# Texture cooridinates (Count = 25)
vt 0.875 0.9841861
vt 0.90625 0.9841861
vt 0.90625 0.9851163
vt 0.875 0.9851163
vt 0.9375 0.9841861
vt 0.9375 0.9851163
vt 0.96875 0.9841861
vt 0.96875 0.9851163
vt 1 0.9841861
vt 1 0.9851163
vt 0.875 0.9832558
vt 0.90625 0.9832558
vt 0.9375 0.9832558
vt 0.96875 0.9832558
vt 1 0.9832558
vt 0.875 0.9823256
vt 0.90625 0.9823256
vt 0.9375 0.9823256
vt 0.96875 0.9823256
vt 1 0.9823256
vt 0.875 0.9813954
vt 0.90625 0.9813954
vt 0.9375 0.9813954
vt 0.96875 0.9813954
vt 1 0.9813954

# Normal
vn 0 0 -1

# Mesh description
g boque2_mesh_0002

# Faces
f 1/1/1 2/2/1 3/3/1 4/4/1
f 5/2/1 6/5/1 7/6/1 8/3/1
f 9/5/1 10/7/1 11/8/1 12/6/1
f 13/7/1 14/9/1 15/10/1 16/8/1
f 17/1/1 18/2/1 19/3/1 20/4/1
f 21/2/1 22/5/1 23/6/1 24/3/1
f 25/5/1 26/7/1 27/8/1 28/6/1
f 29/7/1 30/9/1 31/10/1 32/8/1
f 33/11/1 34/12/1 35/2/1 36/1/1
f 37/12/1 38/13/1 39/5/1 40/2/1
f 41/13/1 42/14/1 43/7/1 44/5/1
f 45/14/1 46/15/1 47/9/1 48/7/1
f 49/11/1 50/12/1 51/2/1 52/1/1
f 53/12/1 54/13/1 55/5/1 56/2/1
f 57/13/1 58/14/1 59/7/1 60/5/1
f 61/14/1 62/15/1 63/9/1 64/7/1
f 65/16/1 66/17/1 67/12/1 68/11/1
f 69/17/1 70/18/1 71/13/1 72/12/1
f 73/18/1 74/19/1 75/14/1 76/13/1
f 77/19/1 78/20/1 79/15/1 80/14/1
f 81/16/1 82/17/1 83/12/1 84/11/1
f 85/17/1 86/18/1 87/13/1 88/12/1
f 89/18/1 90/19/1 91/14/1 92/13/1
f 93/19/1 94/20/1 95/15/1 96/14/1
f 97/21/1 98/22/1 99/17/1 100/16/1
f 101/22/1 102/23/1 103/18/1 104/17/1
f 105/23/1 106/24/1 107/19/1 108/18/1
f 109/24/1 110/25/1 111/20/1 112/19/1
f 113/21/1 114/22/1 115/17/1 116/16/1
f 117/22/1 118/23/1 119/18/1 120/17/1
f 121/23/1 122/24/1 123/19/1 124/18/1
f 125/24/1 126/25/1 127/20/1 128/19/1
f 129/1/1 130/2/1 131/3/1 132/4/1
f 133/2/1 134/5/1 135/6/1 136/3/1
f 137/5/1 138/7/1 139/8/1 140/6/1
f 141/7/1 142/9/1 143/10/1 144/8/1
f 145/1/1 146/2/1 147/3/1 148/4/1
f 149/2/1 150/5/1 151/6/1 152/3/1
f 153/5/1 154/7/1 155/8/1 156/6/1
f 157/7/1 158/9/1 159/10/1 160/8/1
f 161/11/1 162/12/1 163/2/1 164/1/1
f 165/12/1 166/13/1 167/5/1 168/2/1
f 169/13/1 170/14/1 171/7/1 172/5/1
f 173/14/1 174/15/1 175/9/1 176/7/1
f 177/11/1 178/12/1 179/2/1 180/1/1
f 181/12/1 182/13/1 183/5/1 184/2/1
f 185/13/1 186/14/1 187/7/1 188/5/1
f 189/14/1 190/15/1 191/9/1 192/7/1
f 193/16/1 194/17/1 195/12/1 196/11/1
f 197/17/1 198/18/1 199/13/1 200/12/1
f 201/18/1 202/19/1 203/14/1 204/13/1
f 205/19/1 206/20/1 207/15/1 208/14/1
f 209/16/1 210/17/1 211/12/1 212/11/1
f 213/17/1 214/18/1 215/13/1 216/12/1
f 217/18/1 218/19/1 219/14/1 220/13/1
f 221/19/1 222/20/1 223/15/1 224/14/1
f 225/21/1 226/22/1 227/17/1 228/16/1
f 229/22/1 230/23/1 231/18/1 232/17/1
f 233/23/1 234/24/1 235/19/1 236/18/1
f 237/24/1 238/25/1 239/20/1 240/19/1
f 241/21/1 242/22/1 243/17/1 244/16/1
f 245/22/1 246/23/1 247/18/1 248/17/1
f 249/23/1 250/24/1 251/19/1 252/18/1
f 253/24/1 254/25/1 255/20/1 256/19/1
f 257/1/1 258/2/1 259/3/1 260/4/1
f 261/2/1 262/5/1 263/6/1 264/3/1
f 265/5/1 266/7/1 267/8/1 268/6/1
f 269/7/1 270/9/1 271/10/1 272/8/1
f 273/1/1 274/2/1 275/3/1 276/4/1
f 277/2/1 278/5/1 279/6/1 280/3/1
f 281/5/1 282/7/1 283/8/1 284/6/1
f 285/7/1 286/9/1 287/10/1 288/8/1
f 289/11/1 290/12/1 291/2/1 292/1/1
f 293/12/1 294/13/1 295/5/1 296/2/1
f 297/13/1 298/14/1 299/7/1 300/5/1
f 301/14/1 302/15/1 303/9/1 304/7/1
f 305/11/1 306/12/1 307/2/1 308/1/1
f 309/12/1 310/13/1 311/5/1 312/2/1
f 313/13/1 314/14/1 315/7/1 316/5/1
f 317/14/1 318/15/1 319/9/1 320/7/1
f 321/16/1 322/17/1 323/12/1 324/11/1
f 325/17/1 326/18/1 327/13/1 328/12/1
f 329/18/1 330/19/1 331/14/1 332/13/1
f 333/19/1 334/20/1 335/15/1 336/14/1
f 337/16/1 338/17/1 339/12/1 340/11/1
f 341/17/1 342/18/1 343/13/1 344/12/1
f 345/18/1 346/19/1 347/14/1 348/13/1
f 349/19/1 350/20/1 351/15/1 352/14/1
f 353/21/1 354/22/1 355/17/1 356/16/1
f 357/22/1 358/23/1 359/18/1 360/17/1
f 361/23/1 362/24/1 363/19/1 364/18/1
f 365/24/1 366/25/1 367/20/1 368/19/1
f 369/21/1 370/22/1 371/17/1 372/16/1
f 373/22/1 374/23/1 375/18/1 376/17/1
f 377/23/1 378/24/1 379/19/1 380/18/1
f 381/24/1 382/25/1 383/20/1 384/19/1
f 385/1/1 386/2/1 387/3/1 388/4/1
f 389/2/1 390/5/1 391/6/1 392/3/1
f 393/5/1 394/7/1 395/8/1 396/6/1
f 397/7/1 398/9/1 399/10/1 400/8/1
f 401/1/1 402/2/1 403/3/1 404/4/1
f 405/2/1 406/5/1 407/6/1 408/3/1
f 409/5/1 410/7/1 411/8/1 412/6/1
f 413/7/1 414/9/1 415/10/1 416/8/1
f 417/11/1 418/12/1 419/2/1 420/1/1
f 421/12/1 422/13/1 423/5/1 424/2/1
f 425/13/1 426/14/1 427/7/1 428/5/1
f 429/14/1 430/15/1 431/9/1 432/7/1
f 433/11/1 434/12/1 435/2/1 436/1/1
f 437/12/1 438/13/1 439/5/1 440/2/1
f 441/13/1 442/14/1 443/7/1 444/5/1
f 445/14/1 446/15/1 447/9/1 448/7/1
f 449/16/1 450/17/1 451/12/1 452/11/1
f 453/17/1 454/18/1 455/13/1 456/12/1
f 457/18/1 458/19/1 459/14/1 460/13/1
f 461/19/1 462/20/1 463/15/1 464/14/1
f 465/16/1 466/17/1 467/12/1 468/11/1
f 469/17/1 470/18/1 471/13/1 472/12/1
f 473/18/1 474/19/1 475/14/1 476/13/1
f 477/19/1 478/20/1 479/15/1 480/14/1
f 481/21/1 482/22/1 483/17/1 484/16/1
f 485/22/1 486/23/1 487/18/1 488/17/1
f 489/23/1 490/24/1 491/19/1 492/18/1
f 493/24/1 494/25/1 495/20/1 496/19/1
f 497/21/1 498/22/1 499/17/1 500/16/1
f 501/22/1 502/23/1 503/18/1 504/17/1
f 505/23/1 506/24/1 507/19/1 508/18/1
f 509/24/1 510/25/1 511/20/1 512/19/1
f 513/1/1 514/2/1 515/3/1 516/4/1
f 517/2/1 518/5/1 519/6/1 520/3/1
f 521/5/1 522/7/1 523/8/1 524/6/1
f 525/7/1 526/9/1 527/10/1 528/8/1
f 529/1/1 530/2/1 531/3/1 532/4/1
f 533/2/1 534/5/1 535/6/1 536/3/1
f 537/5/1 538/7/1 539/8/1 540/6/1
f 541/7/1 542/9/1 543/10/1 544/8/1
f 545/11/1 546/12/1 547/2/1 548/1/1
f 549/12/1 550/13/1 551/5/1 552/2/1
f 553/13/1 554/14/1 555/7/1 556/5/1
f 557/14/1 558/15/1 559/9/1 560/7/1
f 561/11/1 562/12/1 563/2/1 564/1/1
f 565/12/1 566/13/1 567/5/1 568/2/1
f 569/13/1 570/14/1 571/7/1 572/5/1
f 573/14/1 574/15/1 575/9/1 576/7/1
f 577/16/1 578/17/1 579/12/1 580/11/1
f 581/17/1 582/18/1 583/13/1 584/12/1
f 585/18/1 586/19/1 587/14/1 588/13/1
f 589/19/1 590/20/1 591/15/1 592/14/1
f 593/16/1 594/17/1 595/12/1 596/11/1
f 597/17/1 598/18/1 599/13/1 600/12/1
f 601/18/1 602/19/1 603/14/1 604/13/1
f 605/19/1 606/20/1 607/15/1 608/14/1
f 609/21/1 610/22/1 611/17/1 612/16/1
f 613/22/1 614/23/1 615/18/1 616/17/1
f 617/23/1 618/24/1 619/19/1 620/18/1
f 621/24/1 622/25/1 623/20/1 624/19/1
f 625/21/1 626/22/1 627/17/1 628/16/1
f 629/22/1 630/23/1 631/18/1 632/17/1
f 633/23/1 634/24/1 635/19/1 636/18/1
f 637/24/1 638/25/1 639/20/1 640/19/1

