# Tiled2Unity generated file. Do not modify by hand.
# Wavefront file for 'isometric_mesh_0005.obj'

# Vertices (Count = 20)
v -160 -80 0
v -224 -80 0
v -224 -16 0
v -160 -16 0
v -128 -96 0
v -192 -96 0
v -192 -32 0
v -128 -32 0
v -192 -96 0
v -256 -96 0
v -256 -32 0
v -192 -32 0
v -96 -112 0
v -160 -112 0
v -160 -48 0
v -96 -48 0
v -224 -112 0
v -288 -112 0
v -288 -48 0
v -224 -48 0

# Texture cooridinates (Count = 10)
vt 0.4 0.625
vt 0.5 0.625
vt 0.5 0.6875
vt 0.4 0.6875
vt 0.1 0.5625
vt 0.2 0.5625
vt 0.2 0.625
vt 0.1 0.625
vt 0.3 0.5625
vt 0.3 0.625

# Normal
vn 0 0 -1

# Mesh description
g isometric_mesh_0005

# Faces
f 1/1/1 2/2/1 3/3/1 4/4/1
f 5/5/1 6/6/1 7/7/1 8/8/1
f 9/1/1 10/2/1 11/3/1 12/4/1
f 13/6/1 14/9/1 15/10/1 16/7/1
f 17/1/1 18/2/1 19/3/1 20/4/1

