# Tiled2Unity generated file. Do not modify by hand.
# Wavefront file for 'interiorcasa_mesh_0002.obj'

# Vertices (Count = 524)
v -16 -16 0
v -32 -16 0
v -32 0 0
v -16 0 0
v -32 -16 0
v -48 -16 0
v -48 0 0
v -32 0 0
v -48 -16 0
v -64 -16 0
v -64 0 0
v -48 0 0
v -80 -16 0
v -96 -16 0
v -96 0 0
v -80 0 0
v -96 -16 0
v -112 -16 0
v -112 0 0
v -96 0 0
v -112 -16 0
v -128 -16 0
v -128 0 0
v -112 0 0
v -144 -16 0
v -160 -16 0
v -160 0 0
v -144 0 0
v -160 -16 0
v -176 -16 0
v -176 0 0
v -160 0 0
v -176 -16 0
v -192 -16 0
v -192 0 0
v -176 0 0
v -192 -16 0
v -208 -16 0
v -208 0 0
v -192 0 0
v -208 -16 0
v -224 -16 0
v -224 0 0
v -208 0 0
v -224 -16 0
v -240 -16 0
v -240 0 0
v -224 0 0
v -240 -16 0
v -256 -16 0
v -256 0 0
v -240 0 0
v -256 -16 0
v -272 -16 0
v -272 0 0
v -256 0 0
v -272 -16 0
v -288 -16 0
v -288 0 0
v -272 0 0
v -288 -16 0
v -304 -16 0
v -304 0 0
v -288 0 0
v -16 -32 0
v -32 -32 0
v -32 -16 0
v -16 -16 0
v -32 -32 0
v -48 -32 0
v -48 -16 0
v -32 -16 0
v -48 -32 0
v -64 -32 0
v -64 -16 0
v -48 -16 0
v -80 -32 0
v -96 -32 0
v -96 -16 0
v -80 -16 0
v -96 -32 0
v -112 -32 0
v -112 -16 0
v -96 -16 0
v -112 -32 0
v -128 -32 0
v -128 -16 0
v -112 -16 0
v -144 -32 0
v -160 -32 0
v -160 -16 0
v -144 -16 0
v -160 -32 0
v -176 -32 0
v -176 -16 0
v -160 -16 0
v -176 -32 0
v -192 -32 0
v -192 -16 0
v -176 -16 0
v -192 -32 0
v -208 -32 0
v -208 -16 0
v -192 -16 0
v -208 -32 0
v -224 -32 0
v -224 -16 0
v -208 -16 0
v -224 -32 0
v -240 -32 0
v -240 -16 0
v -224 -16 0
v -240 -32 0
v -256 -32 0
v -256 -16 0
v -240 -16 0
v -256 -32 0
v -272 -32 0
v -272 -16 0
v -256 -16 0
v -272 -32 0
v -288 -32 0
v -288 -16 0
v -272 -16 0
v -288 -32 0
v -304 -32 0
v -304 -16 0
v -288 -16 0
v -16 -48 0
v -32 -48 0
v -32 -32 0
v -16 -32 0
v -32 -48 0
v -48 -48 0
v -48 -32 0
v -32 -32 0
v -48 -48 0
v -64 -48 0
v -64 -32 0
v -48 -32 0
v -80 -48 0
v -96 -48 0
v -96 -32 0
v -80 -32 0
v -96 -48 0
v -112 -48 0
v -112 -32 0
v -96 -32 0
v -112 -48 0
v -128 -48 0
v -128 -32 0
v -112 -32 0
v -176 -48 0
v -192 -48 0
v -192 -32 0
v -176 -32 0
v -192 -48 0
v -208 -48 0
v -208 -32 0
v -192 -32 0
v -16 -64 0
v -32 -64 0
v -32 -48 0
v -16 -48 0
v -32 -64 0
v -48 -64 0
v -48 -48 0
v -32 -48 0
v -48 -64 0
v -64 -64 0
v -64 -48 0
v -48 -48 0
v -80 -64 0
v -96 -64 0
v -96 -48 0
v -80 -48 0
v -96 -64 0
v -112 -64 0
v -112 -48 0
v -96 -48 0
v -112 -64 0
v -128 -64 0
v -128 -48 0
v -112 -48 0
v -176 -64 0
v -192 -64 0
v -192 -48 0
v -176 -48 0
v -192 -64 0
v -208 -64 0
v -208 -48 0
v -192 -48 0
v -176 -80 0
v -192 -80 0
v -192 -64 0
v -176 -64 0
v -192 -80 0
v -208 -80 0
v -208 -64 0
v -192 -64 0
v -176 -96 0
v -192 -96 0
v -192 -80 0
v -176 -80 0
v -192 -96 0
v -208 -96 0
v -208 -80 0
v -192 -80 0
v 0 -112 0
v -16 -112 0
v -16 -96 0
v 0 -96 0
v -16 -112 0
v -32 -112 0
v -32 -96 0
v -16 -96 0
v -32 -112 0
v -48 -112 0
v -48 -96 0
v -32 -96 0
v -48 -112 0
v -64 -112 0
v -64 -96 0
v -48 -96 0
v -128 -112 0
v -144 -112 0
v -144 -96 0
v -128 -96 0
v -144 -112 0
v -160 -112 0
v -160 -96 0
v -144 -96 0
v -160 -112 0
v -176 -112 0
v -176 -96 0
v -160 -96 0
v -176 -112 0
v -192 -112 0
v -192 -96 0
v -176 -96 0
v 0 -176 0
v -16 -176 0
v -16 -160 0
v 0 -160 0
v -16 -176 0
v -32 -176 0
v -32 -160 0
v -16 -160 0
v -32 -176 0
v -48 -176 0
v -48 -160 0
v -32 -160 0
v -208 -176 0
v -224 -176 0
v -224 -160 0
v -208 -160 0
v -224 -176 0
v -240 -176 0
v -240 -160 0
v -224 -160 0
v -240 -176 0
v -256 -176 0
v -256 -160 0
v -240 -160 0
v -256 -176 0
v -272 -176 0
v -272 -160 0
v -256 -160 0
v -272 -176 0
v -288 -176 0
v -288 -160 0
v -272 -160 0
v -288 -176 0
v -304 -176 0
v -304 -160 0
v -288 -160 0
v -304 -176 0
v -320 -176 0
v -320 -160 0
v -304 -160 0
v 0 -192 0
v -16 -192 0
v -16 -176 0
v 0 -176 0
v -16 -192 0
v -32 -192 0
v -32 -176 0
v -16 -176 0
v -32 -192 0
v -48 -192 0
v -48 -176 0
v -32 -176 0
v -208 -192 0
v -224 -192 0
v -224 -176 0
v -208 -176 0
v -224 -192 0
v -240 -192 0
v -240 -176 0
v -224 -176 0
v -240 -192 0
v -256 -192 0
v -256 -176 0
v -240 -176 0
v -256 -192 0
v -272 -192 0
v -272 -176 0
v -256 -176 0
v -272 -192 0
v -288 -192 0
v -288 -176 0
v -272 -176 0
v -288 -192 0
v -304 -192 0
v -304 -176 0
v -288 -176 0
v -304 -192 0
v -320 -192 0
v -320 -176 0
v -304 -176 0
v 0 -208 0
v -16 -208 0
v -16 -192 0
v 0 -192 0
v -16 -208 0
v -32 -208 0
v -32 -192 0
v -16 -192 0
v -32 -208 0
v -48 -208 0
v -48 -192 0
v -32 -192 0
v -208 -208 0
v -224 -208 0
v -224 -192 0
v -208 -192 0
v -224 -208 0
v -240 -208 0
v -240 -192 0
v -224 -192 0
v -240 -208 0
v -256 -208 0
v -256 -192 0
v -240 -192 0
v -256 -208 0
v -272 -208 0
v -272 -192 0
v -256 -192 0
v -272 -208 0
v -288 -208 0
v -288 -192 0
v -272 -192 0
v -288 -208 0
v -304 -208 0
v -304 -192 0
v -288 -192 0
v -304 -208 0
v -320 -208 0
v -320 -192 0
v -304 -192 0
v 0 -224 0
v -16 -224 0
v -16 -208 0
v 0 -208 0
v -16 -224 0
v -32 -224 0
v -32 -208 0
v -16 -208 0
v -32 -224 0
v -48 -224 0
v -48 -208 0
v -32 -208 0
v -208 -224 0
v -224 -224 0
v -224 -208 0
v -208 -208 0
v -224 -224 0
v -240 -224 0
v -240 -208 0
v -224 -208 0
v -240 -224 0
v -256 -224 0
v -256 -208 0
v -240 -208 0
v -256 -224 0
v -272 -224 0
v -272 -208 0
v -256 -208 0
v -272 -224 0
v -288 -224 0
v -288 -208 0
v -272 -208 0
v -288 -224 0
v -304 -224 0
v -304 -208 0
v -288 -208 0
v -304 -224 0
v -320 -224 0
v -320 -208 0
v -304 -208 0
v 0 -240 0
v -16 -240 0
v -16 -224 0
v 0 -224 0
v -16 -240 0
v -32 -240 0
v -32 -224 0
v -16 -224 0
v -32 -240 0
v -48 -240 0
v -48 -224 0
v -32 -224 0
v -208 -240 0
v -224 -240 0
v -224 -224 0
v -208 -224 0
v -224 -240 0
v -240 -240 0
v -240 -224 0
v -224 -224 0
v -240 -240 0
v -256 -240 0
v -256 -224 0
v -240 -224 0
v -256 -240 0
v -272 -240 0
v -272 -224 0
v -256 -224 0
v -272 -240 0
v -288 -240 0
v -288 -224 0
v -272 -224 0
v -288 -240 0
v -304 -240 0
v -304 -224 0
v -288 -224 0
v -304 -240 0
v -320 -240 0
v -320 -224 0
v -304 -224 0
v 0 -256 0
v -16 -256 0
v -16 -240 0
v 0 -240 0
v -16 -256 0
v -32 -256 0
v -32 -240 0
v -16 -240 0
v -32 -256 0
v -48 -256 0
v -48 -240 0
v -32 -240 0
v -208 -256 0
v -224 -256 0
v -224 -240 0
v -208 -240 0
v -224 -256 0
v -240 -256 0
v -240 -240 0
v -224 -240 0
v -240 -256 0
v -256 -256 0
v -256 -240 0
v -240 -240 0
v -256 -256 0
v -272 -256 0
v -272 -240 0
v -256 -240 0
v -272 -256 0
v -288 -256 0
v -288 -240 0
v -272 -240 0
v -288 -256 0
v -304 -256 0
v -304 -240 0
v -288 -240 0
v -304 -256 0
v -320 -256 0
v -320 -240 0
v -304 -240 0
v 0 -272 0
v -16 -272 0
v -16 -256 0
v 0 -256 0
v -16 -272 0
v -32 -272 0
v -32 -256 0
v -16 -256 0
v -32 -272 0
v -48 -272 0
v -48 -256 0
v -32 -256 0
v 0 -304 0
v -16 -304 0
v -16 -288 0
v 0 -288 0
v -16 -304 0
v -32 -304 0
v -32 -288 0
v -16 -288 0
v -288 -304 0
v -304 -304 0
v -304 -288 0
v -288 -288 0
v -304 -304 0
v -320 -304 0
v -320 -288 0
v -304 -288 0
v 0 -320 0
v -16 -320 0
v -16 -304 0
v 0 -304 0
v -16 -320 0
v -32 -320 0
v -32 -304 0
v -16 -304 0
v -288 -320 0
v -304 -320 0
v -304 -304 0
v -288 -304 0
v -304 -320 0
v -320 -320 0
v -320 -304 0
v -304 -304 0

# Texture cooridinates (Count = 92)
vt 0.075 0.8333333
vt 0.1 0.8333333
vt 0.1 0.8611111
vt 0.075 0.8611111
vt 0.125 0.8333333
vt 0.125 0.8611111
vt 0.15 0.8333333
vt 0.15 0.8611111
vt 0.875 0.75
vt 0.9 0.75
vt 0.9 0.7777778
vt 0.875 0.7777778
vt 0.925 0.75
vt 0.925 0.7777778
vt 0.1 0.9444444
vt 0.125 0.9444444
vt 0.125 0.9722222
vt 0.1 0.9722222
vt 0.15 0.9444444
vt 0.15 0.9722222
vt 0.575 0.3888889
vt 0.6 0.3888889
vt 0.6 0.4166667
vt 0.575 0.4166667
vt 0.6 0.3611111
vt 0.625 0.3611111
vt 0.625 0.3888889
vt 0.65 0.4166667
vt 0.675 0.4166667
vt 0.675 0.4444444
vt 0.65 0.4444444
vt 0.65 0.3888889
vt 0.625 0.4166667
vt 0.875 0.7222222
vt 0.9 0.7222222
vt 0.925 0.7222222
vt 0.1 0.9166667
vt 0.125 0.9166667
vt 0.15 0.9166667
vt 0.575 0.3333333
vt 0.6 0.3333333
vt 0.575 0.3611111
vt 0.625 0.3333333
vt 0.525 0.3888889
vt 0.55 0.3888889
vt 0.55 0.4166667
vt 0.525 0.4166667
vt 0.175 0.8333333
vt 0.175 0.8611111
vt 0.2 0.8333333
vt 0.2 0.8611111
vt 0.225 0.8333333
vt 0.225 0.8611111
vt 0.25 0.8333333
vt 0.25 0.8611111
vt 0.375 0.4166667
vt 0.4 0.4166667
vt 0.4 0.4444444
vt 0.375 0.4444444
vt 0.425 0.4166667
vt 0.425 0.4444444
vt 0.45 0.4166667
vt 0.45 0.4444444
vt 0.225 0.6666666
vt 0.25 0.6666666
vt 0.25 0.6944444
vt 0.225 0.6944444
vt 0.275 0.6666666
vt 0.275 0.6944444
vt 0.3 0.6666666
vt 0.3 0.6944444
vt 0.325 0.6111111
vt 0.35 0.6111111
vt 0.35 0.6388889
vt 0.325 0.6388889
vt 0.375 0.6111111
vt 0.375 0.6388889
vt 0.375 0.3888889
vt 0.4 0.3888889
vt 0.425 0.3888889
vt 0.45 0.3888889
vt 0.225 0.6388889
vt 0.25 0.6388889
vt 0.275 0.6388889
vt 0.3 0.6388889
vt 0.325 0.5833334
vt 0.35 0.5833334
vt 0.375 0.5833334
vt 0.375 0.3611111
vt 0.4 0.3611111
vt 0.425 0.3611111
vt 0.45 0.3611111

# Normal
vn 0 0 -1

# Mesh description
g interiorcasa_mesh_0002

# Faces
f 1/1/1 2/2/1 3/3/1 4/4/1
f 5/2/1 6/5/1 7/6/1 8/3/1
f 9/5/1 10/7/1 11/8/1 12/6/1
f 13/1/1 14/2/1 15/3/1 16/4/1
f 17/2/1 18/5/1 19/6/1 20/3/1
f 21/5/1 22/7/1 23/8/1 24/6/1
f 25/9/1 26/10/1 27/11/1 28/12/1
f 29/10/1 30/13/1 31/14/1 32/11/1
f 33/15/1 34/16/1 35/17/1 36/18/1
f 37/16/1 38/19/1 39/20/1 40/17/1
f 41/21/1 42/22/1 43/23/1 44/24/1
f 45/25/1 46/26/1 47/27/1 48/22/1
f 49/28/1 50/29/1 51/30/1 52/31/1
f 53/28/1 54/29/1 55/30/1 56/31/1
f 57/27/1 58/32/1 59/28/1 60/33/1
f 61/27/1 62/32/1 63/28/1 64/33/1
f 65/1/1 66/2/1 67/3/1 68/4/1
f 69/2/1 70/5/1 71/6/1 72/3/1
f 73/5/1 74/7/1 75/8/1 76/6/1
f 77/1/1 78/2/1 79/3/1 80/4/1
f 81/2/1 82/5/1 83/6/1 84/3/1
f 85/5/1 86/7/1 87/8/1 88/6/1
f 89/34/1 90/35/1 91/10/1 92/9/1
f 93/35/1 94/36/1 95/13/1 96/10/1
f 97/37/1 98/38/1 99/16/1 100/15/1
f 101/38/1 102/39/1 103/19/1 104/16/1
f 105/40/1 106/41/1 107/25/1 108/42/1
f 109/41/1 110/43/1 111/26/1 112/25/1
f 113/44/1 114/45/1 115/46/1 116/47/1
f 117/45/1 118/21/1 119/24/1 120/46/1
f 121/44/1 122/45/1 123/46/1 124/47/1
f 125/45/1 126/21/1 127/24/1 128/46/1
f 129/1/1 130/2/1 131/3/1 132/4/1
f 133/2/1 134/5/1 135/6/1 136/3/1
f 137/5/1 138/7/1 139/8/1 140/6/1
f 141/1/1 142/2/1 143/3/1 144/4/1
f 145/2/1 146/5/1 147/6/1 148/3/1
f 149/5/1 150/7/1 151/8/1 152/6/1
f 153/15/1 154/16/1 155/17/1 156/18/1
f 157/16/1 158/19/1 159/20/1 160/17/1
f 161/1/1 162/2/1 163/3/1 164/4/1
f 165/2/1 166/5/1 167/6/1 168/3/1
f 169/5/1 170/7/1 171/8/1 172/6/1
f 173/1/1 174/2/1 175/3/1 176/4/1
f 177/2/1 178/5/1 179/6/1 180/3/1
f 181/5/1 182/7/1 183/8/1 184/6/1
f 185/37/1 186/38/1 187/16/1 188/15/1
f 189/38/1 190/39/1 191/19/1 192/16/1
f 193/15/1 194/16/1 195/17/1 196/18/1
f 197/16/1 198/19/1 199/20/1 200/17/1
f 201/37/1 202/38/1 203/16/1 204/15/1
f 205/38/1 206/39/1 207/19/1 208/16/1
f 209/7/1 210/48/1 211/49/1 212/8/1
f 213/48/1 214/50/1 215/51/1 216/49/1
f 217/50/1 218/52/1 219/53/1 220/51/1
f 221/52/1 222/54/1 223/55/1 224/53/1
f 225/7/1 226/48/1 227/49/1 228/8/1
f 229/48/1 230/50/1 231/51/1 232/49/1
f 233/50/1 234/52/1 235/53/1 236/51/1
f 237/52/1 238/54/1 239/55/1 240/53/1
f 241/56/1 242/57/1 243/58/1 244/59/1
f 245/57/1 246/60/1 247/61/1 248/58/1
f 249/60/1 250/62/1 251/63/1 252/61/1
f 253/64/1 254/65/1 255/66/1 256/67/1
f 257/65/1 258/68/1 259/69/1 260/66/1
f 261/68/1 262/70/1 263/71/1 264/69/1
f 265/72/1 266/73/1 267/74/1 268/75/1
f 269/73/1 270/76/1 271/77/1 272/74/1
f 273/72/1 274/73/1 275/74/1 276/75/1
f 277/73/1 278/76/1 279/77/1 280/74/1
f 281/78/1 282/79/1 283/57/1 284/56/1
f 285/79/1 286/80/1 287/60/1 288/57/1
f 289/80/1 290/81/1 291/62/1 292/60/1
f 293/82/1 294/83/1 295/65/1 296/64/1
f 297/83/1 298/84/1 299/68/1 300/65/1
f 301/84/1 302/85/1 303/70/1 304/68/1
f 305/86/1 306/87/1 307/73/1 308/72/1
f 309/87/1 310/88/1 311/76/1 312/73/1
f 313/86/1 314/87/1 315/73/1 316/72/1
f 317/87/1 318/88/1 319/76/1 320/73/1
f 321/89/1 322/90/1 323/79/1 324/78/1
f 325/90/1 326/91/1 327/80/1 328/79/1
f 329/91/1 330/92/1 331/81/1 332/80/1
f 333/64/1 334/65/1 335/66/1 336/67/1
f 337/65/1 338/68/1 339/69/1 340/66/1
f 341/68/1 342/70/1 343/71/1 344/69/1
f 345/72/1 346/73/1 347/74/1 348/75/1
f 349/73/1 350/76/1 351/77/1 352/74/1
f 353/72/1 354/73/1 355/74/1 356/75/1
f 357/73/1 358/76/1 359/77/1 360/74/1
f 361/78/1 362/79/1 363/57/1 364/56/1
f 365/79/1 366/80/1 367/60/1 368/57/1
f 369/80/1 370/81/1 371/62/1 372/60/1
f 373/82/1 374/83/1 375/65/1 376/64/1
f 377/83/1 378/84/1 379/68/1 380/65/1
f 381/84/1 382/85/1 383/70/1 384/68/1
f 385/86/1 386/87/1 387/73/1 388/72/1
f 389/87/1 390/88/1 391/76/1 392/73/1
f 393/86/1 394/87/1 395/73/1 396/72/1
f 397/87/1 398/88/1 399/76/1 400/73/1
f 401/89/1 402/90/1 403/79/1 404/78/1
f 405/90/1 406/91/1 407/80/1 408/79/1
f 409/91/1 410/92/1 411/81/1 412/80/1
f 413/64/1 414/65/1 415/66/1 416/67/1
f 417/65/1 418/68/1 419/69/1 420/66/1
f 421/68/1 422/70/1 423/71/1 424/69/1
f 425/72/1 426/73/1 427/74/1 428/75/1
f 429/73/1 430/76/1 431/77/1 432/74/1
f 433/72/1 434/73/1 435/74/1 436/75/1
f 437/73/1 438/76/1 439/77/1 440/74/1
f 441/78/1 442/79/1 443/57/1 444/56/1
f 445/79/1 446/80/1 447/60/1 448/57/1
f 449/80/1 450/81/1 451/62/1 452/60/1
f 453/82/1 454/83/1 455/65/1 456/64/1
f 457/83/1 458/84/1 459/68/1 460/65/1
f 461/84/1 462/85/1 463/70/1 464/68/1
f 465/86/1 466/87/1 467/73/1 468/72/1
f 469/87/1 470/88/1 471/76/1 472/73/1
f 473/86/1 474/87/1 475/73/1 476/72/1
f 477/87/1 478/88/1 479/76/1 480/73/1
f 481/89/1 482/90/1 483/79/1 484/78/1
f 485/90/1 486/91/1 487/80/1 488/79/1
f 489/91/1 490/92/1 491/81/1 492/80/1
f 493/9/1 494/10/1 495/11/1 496/12/1
f 497/10/1 498/13/1 499/14/1 500/11/1
f 501/9/1 502/10/1 503/11/1 504/12/1
f 505/10/1 506/13/1 507/14/1 508/11/1
f 509/34/1 510/35/1 511/10/1 512/9/1
f 513/35/1 514/36/1 515/13/1 516/10/1
f 517/34/1 518/35/1 519/10/1 520/9/1
f 521/35/1 522/36/1 523/13/1 524/10/1

