# Tiled2Unity generated file. Do not modify by hand.
# Wavefront file for 'idk_mesh_0002.obj'

# Vertices (Count = 420)
v 0 -16 0
v -32 -16 0
v -32 16 0
v 0 16 0
v -16 -16 0
v -48 -16 0
v -48 16 0
v -16 16 0
v -32 -16 0
v -64 -16 0
v -64 16 0
v -32 16 0
v -48 -16 0
v -80 -16 0
v -80 16 0
v -48 16 0
v -64 -16 0
v -96 -16 0
v -96 16 0
v -64 16 0
v -224 -16 0
v -256 -16 0
v -256 16 0
v -224 16 0
v -256 -16 0
v -288 -16 0
v -288 16 0
v -256 16 0
v -272 -16 0
v -304 -16 0
v -304 16 0
v -272 16 0
v -288 -16 0
v -320 -16 0
v -320 16 0
v -288 16 0
v 0 -32 0
v -32 -32 0
v -32 0 0
v 0 0 0
v -32 -32 0
v -64 -32 0
v -64 0 0
v -32 0 0
v -64 -32 0
v -96 -32 0
v -96 0 0
v -64 0 0
v -224 -32 0
v -256 -32 0
v -256 0 0
v -224 0 0
v -240 -32 0
v -272 -32 0
v -272 0 0
v -240 0 0
v -256 -32 0
v -288 -32 0
v -288 0 0
v -256 0 0
v -288 -32 0
v -320 -32 0
v -320 0 0
v -288 0 0
v 0 -48 0
v -32 -48 0
v -32 -16 0
v 0 -16 0
v -32 -48 0
v -64 -48 0
v -64 -16 0
v -32 -16 0
v -64 -48 0
v -96 -48 0
v -96 -16 0
v -64 -16 0
v -224 -48 0
v -256 -48 0
v -256 -16 0
v -224 -16 0
v -256 -48 0
v -288 -48 0
v -288 -16 0
v -256 -16 0
v -288 -48 0
v -320 -48 0
v -320 -16 0
v -288 -16 0
v 0 -64 0
v -32 -64 0
v -32 -32 0
v 0 -32 0
v -16 -64 0
v -48 -64 0
v -48 -32 0
v -16 -32 0
v -32 -64 0
v -64 -64 0
v -64 -32 0
v -32 -32 0
v -48 -64 0
v -80 -64 0
v -80 -32 0
v -48 -32 0
v -64 -64 0
v -96 -64 0
v -96 -32 0
v -64 -32 0
v -224 -64 0
v -256 -64 0
v -256 -32 0
v -224 -32 0
v -256 -64 0
v -288 -64 0
v -288 -32 0
v -256 -32 0
v -288 -64 0
v -320 -64 0
v -320 -32 0
v -288 -32 0
v 0 -80 0
v -32 -80 0
v -32 -48 0
v 0 -48 0
v -16 -80 0
v -48 -80 0
v -48 -48 0
v -16 -48 0
v -32 -80 0
v -64 -80 0
v -64 -48 0
v -32 -48 0
v -48 -80 0
v -80 -80 0
v -80 -48 0
v -48 -48 0
v -64 -80 0
v -96 -80 0
v -96 -48 0
v -64 -48 0
v -256 -80 0
v -288 -80 0
v -288 -48 0
v -256 -48 0
v -272 -80 0
v -304 -80 0
v -304 -48 0
v -272 -48 0
v -288 -80 0
v -320 -80 0
v -320 -48 0
v -288 -48 0
v 0 -96 0
v -32 -96 0
v -32 -64 0
v 0 -64 0
v -32 -96 0
v -64 -96 0
v -64 -64 0
v -32 -64 0
v -64 -96 0
v -96 -96 0
v -96 -64 0
v -64 -64 0
v -256 -96 0
v -288 -96 0
v -288 -64 0
v -256 -64 0
v -288 -96 0
v -320 -96 0
v -320 -64 0
v -288 -64 0
v 0 -112 0
v -32 -112 0
v -32 -80 0
v 0 -80 0
v -32 -112 0
v -64 -112 0
v -64 -80 0
v -32 -80 0
v -64 -112 0
v -96 -112 0
v -96 -80 0
v -64 -80 0
v -256 -112 0
v -288 -112 0
v -288 -80 0
v -256 -80 0
v -288 -112 0
v -320 -112 0
v -320 -80 0
v -288 -80 0
v 0 -128 0
v -32 -128 0
v -32 -96 0
v 0 -96 0
v -16 -128 0
v -48 -128 0
v -48 -96 0
v -16 -96 0
v -32 -128 0
v -64 -128 0
v -64 -96 0
v -32 -96 0
v -64 -128 0
v -96 -128 0
v -96 -96 0
v -64 -96 0
v -256 -128 0
v -288 -128 0
v -288 -96 0
v -256 -96 0
v -288 -128 0
v -320 -128 0
v -320 -96 0
v -288 -96 0
v 0 -144 0
v -32 -144 0
v -32 -112 0
v 0 -112 0
v -16 -144 0
v -48 -144 0
v -48 -112 0
v -16 -112 0
v -32 -144 0
v -64 -144 0
v -64 -112 0
v -32 -112 0
v -48 -144 0
v -80 -144 0
v -80 -112 0
v -48 -112 0
v -64 -144 0
v -96 -144 0
v -96 -112 0
v -64 -112 0
v -256 -144 0
v -288 -144 0
v -288 -112 0
v -256 -112 0
v -272 -144 0
v -304 -144 0
v -304 -112 0
v -272 -112 0
v -288 -144 0
v -320 -144 0
v -320 -112 0
v -288 -112 0
v 0 -160 0
v -32 -160 0
v -32 -128 0
v 0 -128 0
v -32 -160 0
v -64 -160 0
v -64 -128 0
v -32 -128 0
v -64 -160 0
v -96 -160 0
v -96 -128 0
v -64 -128 0
v -256 -160 0
v -288 -160 0
v -288 -128 0
v -256 -128 0
v -288 -160 0
v -320 -160 0
v -320 -128 0
v -288 -128 0
v 0 -176 0
v -32 -176 0
v -32 -144 0
v 0 -144 0
v -32 -176 0
v -64 -176 0
v -64 -144 0
v -32 -144 0
v -48 -176 0
v -80 -176 0
v -80 -144 0
v -48 -144 0
v -64 -176 0
v -96 -176 0
v -96 -144 0
v -64 -144 0
v -256 -176 0
v -288 -176 0
v -288 -144 0
v -256 -144 0
v -288 -176 0
v -320 -176 0
v -320 -144 0
v -288 -144 0
v 0 -192 0
v -32 -192 0
v -32 -160 0
v 0 -160 0
v -32 -192 0
v -64 -192 0
v -64 -160 0
v -32 -160 0
v -64 -192 0
v -96 -192 0
v -96 -160 0
v -64 -160 0
v -256 -192 0
v -288 -192 0
v -288 -160 0
v -256 -160 0
v -288 -192 0
v -320 -192 0
v -320 -160 0
v -288 -160 0
v 0 -208 0
v -32 -208 0
v -32 -176 0
v 0 -176 0
v -16 -208 0
v -48 -208 0
v -48 -176 0
v -16 -176 0
v -32 -208 0
v -64 -208 0
v -64 -176 0
v -32 -176 0
v -288 -208 0
v -320 -208 0
v -320 -176 0
v -288 -176 0
v 0 -224 0
v -32 -224 0
v -32 -192 0
v 0 -192 0
v -32 -224 0
v -64 -224 0
v -64 -192 0
v -32 -192 0
v -256 -224 0
v -288 -224 0
v -288 -192 0
v -256 -192 0
v -288 -224 0
v -320 -224 0
v -320 -192 0
v -288 -192 0
v 0 -240 0
v -32 -240 0
v -32 -208 0
v 0 -208 0
v -32 -240 0
v -64 -240 0
v -64 -208 0
v -32 -208 0
v -288 -240 0
v -320 -240 0
v -320 -208 0
v -288 -208 0
v 0 -256 0
v -32 -256 0
v -32 -224 0
v 0 -224 0
v -32 -256 0
v -64 -256 0
v -64 -224 0
v -32 -224 0
v -288 -256 0
v -320 -256 0
v -320 -224 0
v -288 -224 0
v 0 -272 0
v -32 -272 0
v -32 -240 0
v 0 -240 0
v -16 -272 0
v -48 -272 0
v -48 -240 0
v -16 -240 0
v -32 -272 0
v -64 -272 0
v -64 -240 0
v -32 -240 0
v -288 -272 0
v -320 -272 0
v -320 -240 0
v -288 -240 0
v 0 -288 0
v -32 -288 0
v -32 -256 0
v 0 -256 0
v -32 -288 0
v -64 -288 0
v -64 -256 0
v -32 -256 0
v -288 -288 0
v -320 -288 0
v -320 -256 0
v -288 -256 0
v 0 -304 0
v -32 -304 0
v -32 -272 0
v 0 -272 0
v -32 -304 0
v -64 -304 0
v -64 -272 0
v -32 -272 0
v -288 -304 0
v -320 -304 0
v -320 -272 0
v -288 -272 0
v 0 -320 0
v -32 -320 0
v -32 -288 0
v 0 -288 0
v -32 -320 0
v -64 -320 0
v -64 -288 0
v -32 -288 0
v -288 -320 0
v -320 -320 0
v -320 -288 0
v -288 -288 0

# Texture cooridinates (Count = 20)
vt 0.625 0.9925581
vt 0.75 0.9925581
vt 0.75 0.9962791
vt 0.625 0.9962791
vt 0.375 0.9962791
vt 0.5 0.9962791
vt 0.5 1
vt 0.375 1
vt 0.875 0.9813954
vt 1 0.9813954
vt 1 0.9851163
vt 0.875 0.9851163
vt 0.625 0.9888372
vt 0.75 0.9888372
vt 0.625 0.9851163
vt 0.75 0.9851163
vt 0.625 0.9813954
vt 0.75 0.9813954
vt 0.25 0.9962791
vt 0.25 1

# Normal
vn 0 0 -1

# Mesh description
g idk_mesh_0002

# Faces
f 1/1/1 2/2/1 3/3/1 4/4/1
f 5/5/1 6/6/1 7/7/1 8/8/1
f 9/1/1 10/2/1 11/3/1 12/4/1
f 13/5/1 14/6/1 15/7/1 16/8/1
f 17/1/1 18/2/1 19/3/1 20/4/1
f 21/1/1 22/2/1 23/3/1 24/4/1
f 25/1/1 26/2/1 27/3/1 28/4/1
f 29/9/1 30/10/1 31/11/1 32/12/1
f 33/1/1 34/2/1 35/3/1 36/4/1
f 37/13/1 38/14/1 39/2/1 40/1/1
f 41/13/1 42/14/1 43/2/1 44/1/1
f 45/13/1 46/14/1 47/2/1 48/1/1
f 49/13/1 50/14/1 51/2/1 52/1/1
f 53/9/1 54/10/1 55/11/1 56/12/1
f 57/13/1 58/14/1 59/2/1 60/1/1
f 61/13/1 62/14/1 63/2/1 64/1/1
f 65/15/1 66/16/1 67/14/1 68/13/1
f 69/15/1 70/16/1 71/14/1 72/13/1
f 73/15/1 74/16/1 75/14/1 76/13/1
f 77/15/1 78/16/1 79/14/1 80/13/1
f 81/15/1 82/16/1 83/14/1 84/13/1
f 85/15/1 86/16/1 87/14/1 88/13/1
f 89/17/1 90/18/1 91/16/1 92/15/1
f 93/5/1 94/6/1 95/7/1 96/8/1
f 97/17/1 98/18/1 99/16/1 100/15/1
f 101/5/1 102/6/1 103/7/1 104/8/1
f 105/17/1 106/18/1 107/16/1 108/15/1
f 109/17/1 110/18/1 111/16/1 112/15/1
f 113/17/1 114/18/1 115/16/1 116/15/1
f 117/17/1 118/18/1 119/16/1 120/15/1
f 121/1/1 122/2/1 123/3/1 124/4/1
f 125/5/1 126/6/1 127/7/1 128/8/1
f 129/1/1 130/2/1 131/3/1 132/4/1
f 133/5/1 134/6/1 135/7/1 136/8/1
f 137/1/1 138/2/1 139/3/1 140/4/1
f 141/1/1 142/2/1 143/3/1 144/4/1
f 145/9/1 146/10/1 147/11/1 148/12/1
f 149/1/1 150/2/1 151/3/1 152/4/1
f 153/13/1 154/14/1 155/2/1 156/1/1
f 157/13/1 158/14/1 159/2/1 160/1/1
f 161/13/1 162/14/1 163/2/1 164/1/1
f 165/13/1 166/14/1 167/2/1 168/1/1
f 169/13/1 170/14/1 171/2/1 172/1/1
f 173/15/1 174/16/1 175/14/1 176/13/1
f 177/15/1 178/16/1 179/14/1 180/13/1
f 181/15/1 182/16/1 183/14/1 184/13/1
f 185/15/1 186/16/1 187/14/1 188/13/1
f 189/15/1 190/16/1 191/14/1 192/13/1
f 193/17/1 194/18/1 195/16/1 196/15/1
f 197/5/1 198/6/1 199/7/1 200/8/1
f 201/17/1 202/18/1 203/16/1 204/15/1
f 205/17/1 206/18/1 207/16/1 208/15/1
f 209/17/1 210/18/1 211/16/1 212/15/1
f 213/17/1 214/18/1 215/16/1 216/15/1
f 217/1/1 218/2/1 219/3/1 220/4/1
f 221/5/1 222/6/1 223/7/1 224/8/1
f 225/1/1 226/2/1 227/3/1 228/4/1
f 229/5/1 230/6/1 231/7/1 232/8/1
f 233/1/1 234/2/1 235/3/1 236/4/1
f 237/1/1 238/2/1 239/3/1 240/4/1
f 241/9/1 242/10/1 243/11/1 244/12/1
f 245/9/1 246/10/1 247/11/1 248/12/1
f 249/13/1 250/14/1 251/2/1 252/1/1
f 253/13/1 254/14/1 255/2/1 256/1/1
f 257/13/1 258/14/1 259/2/1 260/1/1
f 261/13/1 262/14/1 263/2/1 264/1/1
f 265/13/1 266/14/1 267/2/1 268/1/1
f 269/15/1 270/16/1 271/14/1 272/13/1
f 273/15/1 274/16/1 275/14/1 276/13/1
f 277/5/1 278/6/1 279/7/1 280/8/1
f 281/15/1 282/16/1 283/14/1 284/13/1
f 285/15/1 286/16/1 287/14/1 288/13/1
f 289/15/1 290/16/1 291/14/1 292/13/1
f 293/17/1 294/18/1 295/16/1 296/15/1
f 297/17/1 298/18/1 299/16/1 300/15/1
f 301/17/1 302/18/1 303/16/1 304/15/1
f 305/17/1 306/18/1 307/16/1 308/15/1
f 309/17/1 310/18/1 311/16/1 312/15/1
f 313/1/1 314/2/1 315/3/1 316/4/1
f 317/5/1 318/6/1 319/7/1 320/8/1
f 321/1/1 322/2/1 323/3/1 324/4/1
f 325/9/1 326/10/1 327/11/1 328/12/1
f 329/13/1 330/14/1 331/2/1 332/1/1
f 333/13/1 334/14/1 335/2/1 336/1/1
f 337/19/1 338/5/1 339/8/1 340/20/1
f 341/13/1 342/14/1 343/2/1 344/1/1
f 345/15/1 346/16/1 347/14/1 348/13/1
f 349/15/1 350/16/1 351/14/1 352/13/1
f 353/15/1 354/16/1 355/14/1 356/13/1
f 357/17/1 358/18/1 359/16/1 360/15/1
f 361/17/1 362/18/1 363/16/1 364/15/1
f 365/17/1 366/18/1 367/16/1 368/15/1
f 369/1/1 370/2/1 371/3/1 372/4/1
f 373/5/1 374/6/1 375/7/1 376/8/1
f 377/1/1 378/2/1 379/3/1 380/4/1
f 381/1/1 382/2/1 383/3/1 384/4/1
f 385/13/1 386/14/1 387/2/1 388/1/1
f 389/13/1 390/14/1 391/2/1 392/1/1
f 393/13/1 394/14/1 395/2/1 396/1/1
f 397/15/1 398/16/1 399/14/1 400/13/1
f 401/15/1 402/16/1 403/14/1 404/13/1
f 405/15/1 406/16/1 407/14/1 408/13/1
f 409/17/1 410/18/1 411/16/1 412/15/1
f 413/17/1 414/18/1 415/16/1 416/15/1
f 417/17/1 418/18/1 419/16/1 420/15/1

