# Tiled2Unity generated file. Do not modify by hand.
# Wavefront file for 'layout_mesh_0002.obj'

# Vertices (Count = 32)
v -32 -60 0
v -48 -60 0
v -48 -50 0
v -32 -50 0
v -48 -60 0
v -64 -60 0
v -64 -50 0
v -48 -50 0
v -64 -60 0
v -80 -60 0
v -80 -50 0
v -64 -50 0
v -32 -70 0
v -48 -70 0
v -48 -60 0
v -32 -60 0
v -48 -70 0
v -64 -70 0
v -64 -60 0
v -48 -60 0
v -64 -70 0
v -80 -70 0
v -80 -60 0
v -64 -60 0
v -32 -80 0
v -48 -80 0
v -48 -70 0
v -32 -70 0
v -32 -90 0
v -48 -90 0
v -48 -80 0
v -32 -80 0

# Texture cooridinates (Count = 12)
vt 0.1212121 0.96875
vt 0.1515152 0.96875
vt 0.1515152 1
vt 0.1212121 1
vt 0.1212121 0.9375
vt 0.1515152 0.9375
vt 0 0.71875
vt 0.03030303 0.71875
vt 0.03030303 0.75
vt 0 0.75
vt 0 0.6875
vt 0.03030303 0.6875

# Normal
vn 0 0 -1

# Mesh description
g layout_mesh_0002

# Faces
f 1/1/1 2/2/1 3/3/1 4/4/1
f 5/1/1 6/2/1 7/3/1 8/4/1
f 9/1/1 10/2/1 11/3/1 12/4/1
f 13/5/1 14/6/1 15/2/1 16/1/1
f 17/5/1 18/6/1 19/2/1 20/1/1
f 21/5/1 22/6/1 23/2/1 24/1/1
f 25/7/1 26/8/1 27/9/1 28/10/1
f 29/11/1 30/12/1 31/8/1 32/7/1

