# Tiled2Unity generated file. Do not modify by hand.
# Wavefront file for 'layout_mesh_0001.obj'

# Vertices (Count = 420)
v -16 -40 0
v -32 -40 0
v -32 -30 0
v -16 -30 0
v -32 -40 0
v -48 -40 0
v -48 -30 0
v -32 -30 0
v -48 -40 0
v -64 -40 0
v -64 -30 0
v -48 -30 0
v -64 -40 0
v -80 -40 0
v -80 -30 0
v -64 -30 0
v -80 -40 0
v -96 -40 0
v -96 -30 0
v -80 -30 0
v -96 -40 0
v -112 -40 0
v -112 -30 0
v -96 -30 0
v -112 -40 0
v -128 -40 0
v -128 -30 0
v -112 -30 0
v -128 -40 0
v -144 -40 0
v -144 -30 0
v -128 -30 0
v -144 -40 0
v -160 -40 0
v -160 -30 0
v -144 -30 0
v -160 -40 0
v -176 -40 0
v -176 -30 0
v -160 -30 0
v -176 -40 0
v -192 -40 0
v -192 -30 0
v -176 -30 0
v -192 -40 0
v -208 -40 0
v -208 -30 0
v -192 -30 0
v -208 -40 0
v -224 -40 0
v -224 -30 0
v -208 -30 0
v -224 -40 0
v -240 -40 0
v -240 -30 0
v -224 -30 0
v -240 -40 0
v -256 -40 0
v -256 -30 0
v -240 -30 0
v -16 -50 0
v -32 -50 0
v -32 -40 0
v -16 -40 0
v -32 -50 0
v -48 -50 0
v -48 -40 0
v -32 -40 0
v -48 -50 0
v -64 -50 0
v -64 -40 0
v -48 -40 0
v -64 -50 0
v -80 -50 0
v -80 -40 0
v -64 -40 0
v -80 -50 0
v -96 -50 0
v -96 -40 0
v -80 -40 0
v -96 -50 0
v -112 -50 0
v -112 -40 0
v -96 -40 0
v -112 -50 0
v -128 -50 0
v -128 -40 0
v -112 -40 0
v -128 -50 0
v -144 -50 0
v -144 -40 0
v -128 -40 0
v -144 -50 0
v -160 -50 0
v -160 -40 0
v -144 -40 0
v -160 -50 0
v -176 -50 0
v -176 -40 0
v -160 -40 0
v -176 -50 0
v -192 -50 0
v -192 -40 0
v -176 -40 0
v -192 -50 0
v -208 -50 0
v -208 -40 0
v -192 -40 0
v -208 -50 0
v -224 -50 0
v -224 -40 0
v -208 -40 0
v -224 -50 0
v -240 -50 0
v -240 -40 0
v -224 -40 0
v -240 -50 0
v -256 -50 0
v -256 -40 0
v -240 -40 0
v -16 -60 0
v -32 -60 0
v -32 -50 0
v -16 -50 0
v -32 -60 0
v -48 -60 0
v -48 -50 0
v -32 -50 0
v -48 -60 0
v -64 -60 0
v -64 -50 0
v -48 -50 0
v -64 -60 0
v -80 -60 0
v -80 -50 0
v -64 -50 0
v -80 -60 0
v -96 -60 0
v -96 -50 0
v -80 -50 0
v -96 -60 0
v -112 -60 0
v -112 -50 0
v -96 -50 0
v -112 -60 0
v -128 -60 0
v -128 -50 0
v -112 -50 0
v -128 -60 0
v -144 -60 0
v -144 -50 0
v -128 -50 0
v -144 -60 0
v -160 -60 0
v -160 -50 0
v -144 -50 0
v -160 -60 0
v -176 -60 0
v -176 -50 0
v -160 -50 0
v -176 -60 0
v -192 -60 0
v -192 -50 0
v -176 -50 0
v -192 -60 0
v -208 -60 0
v -208 -50 0
v -192 -50 0
v -208 -60 0
v -224 -60 0
v -224 -50 0
v -208 -50 0
v -224 -60 0
v -240 -60 0
v -240 -50 0
v -224 -50 0
v -240 -60 0
v -256 -60 0
v -256 -50 0
v -240 -50 0
v -16 -70 0
v -32 -70 0
v -32 -60 0
v -16 -60 0
v -32 -70 0
v -48 -70 0
v -48 -60 0
v -32 -60 0
v -48 -70 0
v -64 -70 0
v -64 -60 0
v -48 -60 0
v -64 -70 0
v -80 -70 0
v -80 -60 0
v -64 -60 0
v -80 -70 0
v -96 -70 0
v -96 -60 0
v -80 -60 0
v -96 -70 0
v -112 -70 0
v -112 -60 0
v -96 -60 0
v -112 -70 0
v -128 -70 0
v -128 -60 0
v -112 -60 0
v -128 -70 0
v -144 -70 0
v -144 -60 0
v -128 -60 0
v -144 -70 0
v -160 -70 0
v -160 -60 0
v -144 -60 0
v -160 -70 0
v -176 -70 0
v -176 -60 0
v -160 -60 0
v -176 -70 0
v -192 -70 0
v -192 -60 0
v -176 -60 0
v -192 -70 0
v -208 -70 0
v -208 -60 0
v -192 -60 0
v -208 -70 0
v -224 -70 0
v -224 -60 0
v -208 -60 0
v -224 -70 0
v -240 -70 0
v -240 -60 0
v -224 -60 0
v -240 -70 0
v -256 -70 0
v -256 -60 0
v -240 -60 0
v -16 -80 0
v -32 -80 0
v -32 -70 0
v -16 -70 0
v -32 -80 0
v -48 -80 0
v -48 -70 0
v -32 -70 0
v -48 -80 0
v -64 -80 0
v -64 -70 0
v -48 -70 0
v -64 -80 0
v -80 -80 0
v -80 -70 0
v -64 -70 0
v -80 -80 0
v -96 -80 0
v -96 -70 0
v -80 -70 0
v -96 -80 0
v -112 -80 0
v -112 -70 0
v -96 -70 0
v -112 -80 0
v -128 -80 0
v -128 -70 0
v -112 -70 0
v -128 -80 0
v -144 -80 0
v -144 -70 0
v -128 -70 0
v -144 -80 0
v -160 -80 0
v -160 -70 0
v -144 -70 0
v -160 -80 0
v -176 -80 0
v -176 -70 0
v -160 -70 0
v -176 -80 0
v -192 -80 0
v -192 -70 0
v -176 -70 0
v -192 -80 0
v -208 -80 0
v -208 -70 0
v -192 -70 0
v -208 -80 0
v -224 -80 0
v -224 -70 0
v -208 -70 0
v -224 -80 0
v -240 -80 0
v -240 -70 0
v -224 -70 0
v -240 -80 0
v -256 -80 0
v -256 -70 0
v -240 -70 0
v -16 -90 0
v -32 -90 0
v -32 -80 0
v -16 -80 0
v -32 -90 0
v -48 -90 0
v -48 -80 0
v -32 -80 0
v -48 -90 0
v -64 -90 0
v -64 -80 0
v -48 -80 0
v -64 -90 0
v -80 -90 0
v -80 -80 0
v -64 -80 0
v -80 -90 0
v -96 -90 0
v -96 -80 0
v -80 -80 0
v -96 -90 0
v -112 -90 0
v -112 -80 0
v -96 -80 0
v -112 -90 0
v -128 -90 0
v -128 -80 0
v -112 -80 0
v -128 -90 0
v -144 -90 0
v -144 -80 0
v -128 -80 0
v -144 -90 0
v -160 -90 0
v -160 -80 0
v -144 -80 0
v -160 -90 0
v -176 -90 0
v -176 -80 0
v -160 -80 0
v -176 -90 0
v -192 -90 0
v -192 -80 0
v -176 -80 0
v -192 -90 0
v -208 -90 0
v -208 -80 0
v -192 -80 0
v -208 -90 0
v -224 -90 0
v -224 -80 0
v -208 -80 0
v -224 -90 0
v -240 -90 0
v -240 -80 0
v -224 -80 0
v -240 -90 0
v -256 -90 0
v -256 -80 0
v -240 -80 0
v -16 -100 0
v -32 -100 0
v -32 -90 0
v -16 -90 0
v -32 -100 0
v -48 -100 0
v -48 -90 0
v -32 -90 0
v -48 -100 0
v -64 -100 0
v -64 -90 0
v -48 -90 0
v -64 -100 0
v -80 -100 0
v -80 -90 0
v -64 -90 0
v -80 -100 0
v -96 -100 0
v -96 -90 0
v -80 -90 0
v -96 -100 0
v -112 -100 0
v -112 -90 0
v -96 -90 0
v -112 -100 0
v -128 -100 0
v -128 -90 0
v -112 -90 0
v -128 -100 0
v -144 -100 0
v -144 -90 0
v -128 -90 0
v -144 -100 0
v -160 -100 0
v -160 -90 0
v -144 -90 0
v -160 -100 0
v -176 -100 0
v -176 -90 0
v -160 -90 0
v -176 -100 0
v -192 -100 0
v -192 -90 0
v -176 -90 0
v -192 -100 0
v -208 -100 0
v -208 -90 0
v -192 -90 0
v -208 -100 0
v -224 -100 0
v -224 -90 0
v -208 -90 0
v -224 -100 0
v -240 -100 0
v -240 -90 0
v -224 -90 0
v -240 -100 0
v -256 -100 0
v -256 -90 0
v -240 -90 0

# Texture cooridinates (Count = 128)
vt 0 0.5833334
vt 0.06666667 0.5833334
vt 0.06666667 0.6527778
vt 0 0.6527778
vt 0.1333333 0.5833334
vt 0.1333333 0.6527778
vt 0.2 0.5833334
vt 0.2 0.6527778
vt 0.2666667 0.5833334
vt 0.2666667 0.6527778
vt 0.3333333 0.5833334
vt 0.3333333 0.6527778
vt 0.4 0.5833334
vt 0.4 0.6527778
vt 0.4666667 0.5833334
vt 0.4666667 0.6527778
vt 0.5333334 0.5833334
vt 0.5333334 0.6527778
vt 0.6 0.5833334
vt 0.6 0.6527778
vt 0.6666667 0.5833334
vt 0.6666667 0.6527778
vt 0.7333333 0.5833334
vt 0.7333333 0.6527778
vt 0.8 0.5833334
vt 0.8 0.6527778
vt 0.8666667 0.5833334
vt 0.8666667 0.6527778
vt 0.9333333 0.5833334
vt 0.9333333 0.6527778
vt 1 0.5833334
vt 1 0.6527778
vt 0 0.5138889
vt 0.06666667 0.5138889
vt 0.1333333 0.5138889
vt 0.2 0.5138889
vt 0.2666667 0.5138889
vt 0.3333333 0.5138889
vt 0.4 0.5138889
vt 0.4666667 0.5138889
vt 0.5333334 0.5138889
vt 0.6 0.5138889
vt 0.6666667 0.5138889
vt 0.7333333 0.5138889
vt 0.8 0.5138889
vt 0.8666667 0.5138889
vt 0.9333333 0.5138889
vt 1 0.5138889
vt 0 0.4444444
vt 0.06666667 0.4444444
vt 0.1333333 0.4444444
vt 0.2 0.4444444
vt 0.2666667 0.4444444
vt 0.3333333 0.4444444
vt 0.4 0.4444444
vt 0.4666667 0.4444444
vt 0.5333334 0.4444444
vt 0.6 0.4444444
vt 0.6666667 0.4444444
vt 0.7333333 0.4444444
vt 0.8 0.4444444
vt 0.8666667 0.4444444
vt 0.9333333 0.4444444
vt 1 0.4444444
vt 0 0.375
vt 0.06666667 0.375
vt 0.1333333 0.375
vt 0.2 0.375
vt 0.2666667 0.375
vt 0.3333333 0.375
vt 0.4 0.375
vt 0.4666667 0.375
vt 0.5333334 0.375
vt 0.6 0.375
vt 0.6666667 0.375
vt 0.7333333 0.375
vt 0.8 0.375
vt 0.8666667 0.375
vt 0.9333333 0.375
vt 1 0.375
vt 0 0.3055556
vt 0.06666667 0.3055556
vt 0.1333333 0.3055556
vt 0.2 0.3055556
vt 0.2666667 0.3055556
vt 0.3333333 0.3055556
vt 0.4 0.3055556
vt 0.4666667 0.3055556
vt 0.5333334 0.3055556
vt 0.6 0.3055556
vt 0.6666667 0.3055556
vt 0.7333333 0.3055556
vt 0.8 0.3055556
vt 0.8666667 0.3055556
vt 0.9333333 0.3055556
vt 1 0.3055556
vt 0 0.2361111
vt 0.06666667 0.2361111
vt 0.1333333 0.2361111
vt 0.2 0.2361111
vt 0.2666667 0.2361111
vt 0.3333333 0.2361111
vt 0.4 0.2361111
vt 0.4666667 0.2361111
vt 0.5333334 0.2361111
vt 0.6 0.2361111
vt 0.6666667 0.2361111
vt 0.7333333 0.2361111
vt 0.8 0.2361111
vt 0.8666667 0.2361111
vt 0.9333333 0.2361111
vt 1 0.2361111
vt 0 0.1666667
vt 0.06666667 0.1666667
vt 0.1333333 0.1666667
vt 0.2 0.1666667
vt 0.2666667 0.1666667
vt 0.3333333 0.1666667
vt 0.4 0.1666667
vt 0.4666667 0.1666667
vt 0.5333334 0.1666667
vt 0.6 0.1666667
vt 0.6666667 0.1666667
vt 0.7333333 0.1666667
vt 0.8 0.1666667
vt 0.8666667 0.1666667
vt 0.9333333 0.1666667
vt 1 0.1666667

# Normal
vn 0 0 -1

# Mesh description
g layout_mesh_0001

# Faces
f 1/1/1 2/2/1 3/3/1 4/4/1
f 5/2/1 6/5/1 7/6/1 8/3/1
f 9/5/1 10/7/1 11/8/1 12/6/1
f 13/7/1 14/9/1 15/10/1 16/8/1
f 17/9/1 18/11/1 19/12/1 20/10/1
f 21/11/1 22/13/1 23/14/1 24/12/1
f 25/13/1 26/15/1 27/16/1 28/14/1
f 29/15/1 30/17/1 31/18/1 32/16/1
f 33/17/1 34/19/1 35/20/1 36/18/1
f 37/19/1 38/21/1 39/22/1 40/20/1
f 41/21/1 42/23/1 43/24/1 44/22/1
f 45/23/1 46/25/1 47/26/1 48/24/1
f 49/25/1 50/27/1 51/28/1 52/26/1
f 53/27/1 54/29/1 55/30/1 56/28/1
f 57/29/1 58/31/1 59/32/1 60/30/1
f 61/33/1 62/34/1 63/2/1 64/1/1
f 65/34/1 66/35/1 67/5/1 68/2/1
f 69/35/1 70/36/1 71/7/1 72/5/1
f 73/36/1 74/37/1 75/9/1 76/7/1
f 77/37/1 78/38/1 79/11/1 80/9/1
f 81/38/1 82/39/1 83/13/1 84/11/1
f 85/39/1 86/40/1 87/15/1 88/13/1
f 89/40/1 90/41/1 91/17/1 92/15/1
f 93/41/1 94/42/1 95/19/1 96/17/1
f 97/42/1 98/43/1 99/21/1 100/19/1
f 101/43/1 102/44/1 103/23/1 104/21/1
f 105/44/1 106/45/1 107/25/1 108/23/1
f 109/45/1 110/46/1 111/27/1 112/25/1
f 113/46/1 114/47/1 115/29/1 116/27/1
f 117/47/1 118/48/1 119/31/1 120/29/1
f 121/49/1 122/50/1 123/34/1 124/33/1
f 125/50/1 126/51/1 127/35/1 128/34/1
f 129/51/1 130/52/1 131/36/1 132/35/1
f 133/52/1 134/53/1 135/37/1 136/36/1
f 137/53/1 138/54/1 139/38/1 140/37/1
f 141/54/1 142/55/1 143/39/1 144/38/1
f 145/55/1 146/56/1 147/40/1 148/39/1
f 149/56/1 150/57/1 151/41/1 152/40/1
f 153/57/1 154/58/1 155/42/1 156/41/1
f 157/58/1 158/59/1 159/43/1 160/42/1
f 161/59/1 162/60/1 163/44/1 164/43/1
f 165/60/1 166/61/1 167/45/1 168/44/1
f 169/61/1 170/62/1 171/46/1 172/45/1
f 173/62/1 174/63/1 175/47/1 176/46/1
f 177/63/1 178/64/1 179/48/1 180/47/1
f 181/65/1 182/66/1 183/50/1 184/49/1
f 185/66/1 186/67/1 187/51/1 188/50/1
f 189/67/1 190/68/1 191/52/1 192/51/1
f 193/68/1 194/69/1 195/53/1 196/52/1
f 197/69/1 198/70/1 199/54/1 200/53/1
f 201/70/1 202/71/1 203/55/1 204/54/1
f 205/71/1 206/72/1 207/56/1 208/55/1
f 209/72/1 210/73/1 211/57/1 212/56/1
f 213/73/1 214/74/1 215/58/1 216/57/1
f 217/74/1 218/75/1 219/59/1 220/58/1
f 221/75/1 222/76/1 223/60/1 224/59/1
f 225/76/1 226/77/1 227/61/1 228/60/1
f 229/77/1 230/78/1 231/62/1 232/61/1
f 233/78/1 234/79/1 235/63/1 236/62/1
f 237/79/1 238/80/1 239/64/1 240/63/1
f 241/81/1 242/82/1 243/66/1 244/65/1
f 245/82/1 246/83/1 247/67/1 248/66/1
f 249/83/1 250/84/1 251/68/1 252/67/1
f 253/84/1 254/85/1 255/69/1 256/68/1
f 257/85/1 258/86/1 259/70/1 260/69/1
f 261/86/1 262/87/1 263/71/1 264/70/1
f 265/87/1 266/88/1 267/72/1 268/71/1
f 269/88/1 270/89/1 271/73/1 272/72/1
f 273/89/1 274/90/1 275/74/1 276/73/1
f 277/90/1 278/91/1 279/75/1 280/74/1
f 281/91/1 282/92/1 283/76/1 284/75/1
f 285/92/1 286/93/1 287/77/1 288/76/1
f 289/93/1 290/94/1 291/78/1 292/77/1
f 293/94/1 294/95/1 295/79/1 296/78/1
f 297/95/1 298/96/1 299/80/1 300/79/1
f 301/97/1 302/98/1 303/82/1 304/81/1
f 305/98/1 306/99/1 307/83/1 308/82/1
f 309/99/1 310/100/1 311/84/1 312/83/1
f 313/100/1 314/101/1 315/85/1 316/84/1
f 317/101/1 318/102/1 319/86/1 320/85/1
f 321/102/1 322/103/1 323/87/1 324/86/1
f 325/103/1 326/104/1 327/88/1 328/87/1
f 329/104/1 330/105/1 331/89/1 332/88/1
f 333/105/1 334/106/1 335/90/1 336/89/1
f 337/106/1 338/107/1 339/91/1 340/90/1
f 341/107/1 342/108/1 343/92/1 344/91/1
f 345/108/1 346/109/1 347/93/1 348/92/1
f 349/109/1 350/110/1 351/94/1 352/93/1
f 353/110/1 354/111/1 355/95/1 356/94/1
f 357/111/1 358/112/1 359/96/1 360/95/1
f 361/113/1 362/114/1 363/98/1 364/97/1
f 365/114/1 366/115/1 367/99/1 368/98/1
f 369/115/1 370/116/1 371/100/1 372/99/1
f 373/116/1 374/117/1 375/101/1 376/100/1
f 377/117/1 378/118/1 379/102/1 380/101/1
f 381/118/1 382/119/1 383/103/1 384/102/1
f 385/119/1 386/120/1 387/104/1 388/103/1
f 389/120/1 390/121/1 391/105/1 392/104/1
f 393/121/1 394/122/1 395/106/1 396/105/1
f 397/122/1 398/123/1 399/107/1 400/106/1
f 401/123/1 402/124/1 403/108/1 404/107/1
f 405/124/1 406/125/1 407/109/1 408/108/1
f 409/125/1 410/126/1 411/110/1 412/109/1
f 413/126/1 414/127/1 415/111/1 416/110/1
f 417/127/1 418/128/1 419/112/1 420/111/1

