# Tiled2Unity generated file. Do not modify by hand.
# Wavefront file for 'prueba2_mesh_0002.obj'

# Vertices (Count = 128)
v -20 -20 0
v -40 -20 0
v -40 0 0
v -20 0 0
v -40 -20 0
v -60 -20 0
v -60 0 0
v -40 0 0
v -60 -20 0
v -80 -20 0
v -80 0 0
v -60 0 0
v -80 -20 0
v -100 -20 0
v -100 0 0
v -80 0 0
v -320 -20 0
v -340 -20 0
v -340 0 0
v -320 0 0
v -340 -20 0
v -360 -20 0
v -360 0 0
v -340 0 0
v -360 -20 0
v -380 -20 0
v -380 0 0
v -360 0 0
v -380 -20 0
v -400 -20 0
v -400 0 0
v -380 0 0
v -20 -40 0
v -40 -40 0
v -40 -20 0
v -20 -20 0
v -40 -40 0
v -60 -40 0
v -60 -20 0
v -40 -20 0
v -60 -40 0
v -80 -40 0
v -80 -20 0
v -60 -20 0
v -80 -40 0
v -100 -40 0
v -100 -20 0
v -80 -20 0
v -320 -40 0
v -340 -40 0
v -340 -20 0
v -320 -20 0
v -340 -40 0
v -360 -40 0
v -360 -20 0
v -340 -20 0
v -360 -40 0
v -380 -40 0
v -380 -20 0
v -360 -20 0
v -380 -40 0
v -400 -40 0
v -400 -20 0
v -380 -20 0
v -20 -60 0
v -40 -60 0
v -40 -40 0
v -20 -40 0
v -40 -60 0
v -60 -60 0
v -60 -40 0
v -40 -40 0
v -60 -60 0
v -80 -60 0
v -80 -40 0
v -60 -40 0
v -80 -60 0
v -100 -60 0
v -100 -40 0
v -80 -40 0
v -320 -60 0
v -340 -60 0
v -340 -40 0
v -320 -40 0
v -340 -60 0
v -360 -60 0
v -360 -40 0
v -340 -40 0
v -360 -60 0
v -380 -60 0
v -380 -40 0
v -360 -40 0
v -380 -60 0
v -400 -60 0
v -400 -40 0
v -380 -40 0
v -20 -80 0
v -40 -80 0
v -40 -60 0
v -20 -60 0
v -40 -80 0
v -60 -80 0
v -60 -60 0
v -40 -60 0
v -60 -80 0
v -80 -80 0
v -80 -60 0
v -60 -60 0
v -80 -80 0
v -100 -80 0
v -100 -60 0
v -80 -60 0
v -320 -80 0
v -340 -80 0
v -340 -60 0
v -320 -60 0
v -340 -80 0
v -360 -80 0
v -360 -60 0
v -340 -60 0
v -360 -80 0
v -380 -80 0
v -380 -60 0
v -360 -60 0
v -380 -80 0
v -400 -80 0
v -400 -60 0
v -380 -60 0

# Texture cooridinates (Count = 45)
vt 0.15625 0.9652778
vt 0.1875 0.9652778
vt 0.1875 1
vt 0.15625 1
vt 0.21875 0.9652778
vt 0.21875 1
vt 0.25 0.9652778
vt 0.25 1
vt 0.28125 0.9652778
vt 0.28125 1
vt 0.3125 0.9652778
vt 0.3125 1
vt 0.34375 0.9652778
vt 0.34375 1
vt 0.375 0.9652778
vt 0.375 1
vt 0.40625 0.9652778
vt 0.40625 1
vt 0.15625 0.9305556
vt 0.1875 0.9305556
vt 0.21875 0.9305556
vt 0.25 0.9305556
vt 0.28125 0.9305556
vt 0.3125 0.9305556
vt 0.34375 0.9305556
vt 0.375 0.9305556
vt 0.40625 0.9305556
vt 0.15625 0.8958333
vt 0.1875 0.8958333
vt 0.21875 0.8958333
vt 0.25 0.8958333
vt 0.28125 0.8958333
vt 0.3125 0.8958333
vt 0.34375 0.8958333
vt 0.375 0.8958333
vt 0.40625 0.8958333
vt 0.15625 0.8611111
vt 0.1875 0.8611111
vt 0.21875 0.8611111
vt 0.25 0.8611111
vt 0.28125 0.8611111
vt 0.3125 0.8611111
vt 0.34375 0.8611111
vt 0.375 0.8611111
vt 0.40625 0.8611111

# Normal
vn 0 0 -1

# Mesh description
g prueba2_mesh_0002

# Faces
f 1/1/1 2/2/1 3/3/1 4/4/1
f 5/2/1 6/5/1 7/6/1 8/3/1
f 9/5/1 10/7/1 11/8/1 12/6/1
f 13/7/1 14/9/1 15/10/1 16/8/1
f 17/9/1 18/11/1 19/12/1 20/10/1
f 21/11/1 22/13/1 23/14/1 24/12/1
f 25/13/1 26/15/1 27/16/1 28/14/1
f 29/15/1 30/17/1 31/18/1 32/16/1
f 33/19/1 34/20/1 35/2/1 36/1/1
f 37/20/1 38/21/1 39/5/1 40/2/1
f 41/21/1 42/22/1 43/7/1 44/5/1
f 45/22/1 46/23/1 47/9/1 48/7/1
f 49/23/1 50/24/1 51/11/1 52/9/1
f 53/24/1 54/25/1 55/13/1 56/11/1
f 57/25/1 58/26/1 59/15/1 60/13/1
f 61/26/1 62/27/1 63/17/1 64/15/1
f 65/28/1 66/29/1 67/20/1 68/19/1
f 69/29/1 70/30/1 71/21/1 72/20/1
f 73/30/1 74/31/1 75/22/1 76/21/1
f 77/31/1 78/32/1 79/23/1 80/22/1
f 81/32/1 82/33/1 83/24/1 84/23/1
f 85/33/1 86/34/1 87/25/1 88/24/1
f 89/34/1 90/35/1 91/26/1 92/25/1
f 93/35/1 94/36/1 95/27/1 96/26/1
f 97/37/1 98/38/1 99/29/1 100/28/1
f 101/38/1 102/39/1 103/30/1 104/29/1
f 105/39/1 106/40/1 107/31/1 108/30/1
f 109/40/1 110/41/1 111/32/1 112/31/1
f 113/41/1 114/42/1 115/33/1 116/32/1
f 117/42/1 118/43/1 119/34/1 120/33/1
f 121/43/1 122/44/1 123/35/1 124/34/1
f 125/44/1 126/45/1 127/36/1 128/35/1

