# Tiled2Unity generated file. Do not modify by hand.
# Wavefront file for 'casita_mesh_0002.obj'

# Vertices (Count = 356)
v -80 -8 0
v -88 -8 0
v -88 0 0
v -80 0 0
v -88 -8 0
v -96 -8 0
v -96 0 0
v -88 0 0
v -96 -8 0
v -104 -8 0
v -104 0 0
v -96 0 0
v -104 -8 0
v -112 -8 0
v -112 0 0
v -104 0 0
v -112 -8 0
v -120 -8 0
v -120 0 0
v -112 0 0
v -120 -8 0
v -128 -8 0
v -128 0 0
v -120 0 0
v -128 -8 0
v -136 -8 0
v -136 0 0
v -128 0 0
v -136 -8 0
v -144 -8 0
v -144 0 0
v -136 0 0
v -144 -8 0
v -152 -8 0
v -152 0 0
v -144 0 0
v -160 -8 0
v -168 -8 0
v -168 0 0
v -160 0 0
v -168 -8 0
v -176 -8 0
v -176 0 0
v -168 0 0
v -176 -8 0
v -184 -8 0
v -184 0 0
v -176 0 0
v -184 -8 0
v -192 -8 0
v -192 0 0
v -184 0 0
v -80 -16 0
v -88 -16 0
v -88 -8 0
v -80 -8 0
v -88 -16 0
v -96 -16 0
v -96 -8 0
v -88 -8 0
v -96 -16 0
v -104 -16 0
v -104 -8 0
v -96 -8 0
v -104 -16 0
v -112 -16 0
v -112 -8 0
v -104 -8 0
v -120 -16 0
v -128 -16 0
v -128 -8 0
v -120 -8 0
v -128 -16 0
v -136 -16 0
v -136 -8 0
v -128 -8 0
v -136 -16 0
v -144 -16 0
v -144 -8 0
v -136 -8 0
v -144 -16 0
v -152 -16 0
v -152 -8 0
v -144 -8 0
v -160 -16 0
v -168 -16 0
v -168 -8 0
v -160 -8 0
v -168 -16 0
v -176 -16 0
v -176 -8 0
v -168 -8 0
v -176 -16 0
v -184 -16 0
v -184 -8 0
v -176 -8 0
v -184 -16 0
v -192 -16 0
v -192 -8 0
v -184 -8 0
v -88 -32 0
v -96 -32 0
v -96 -24 0
v -88 -24 0
v -96 -32 0
v -104 -32 0
v -104 -24 0
v -96 -24 0
v -104 -32 0
v -112 -32 0
v -112 -24 0
v -104 -24 0
v -112 -32 0
v -120 -32 0
v -120 -24 0
v -112 -24 0
v -120 -32 0
v -128 -32 0
v -128 -24 0
v -120 -24 0
v -128 -32 0
v -136 -32 0
v -136 -24 0
v -128 -24 0
v -136 -32 0
v -144 -32 0
v -144 -24 0
v -136 -24 0
v -144 -32 0
v -152 -32 0
v -152 -24 0
v -144 -24 0
v -152 -32 0
v -160 -32 0
v -160 -24 0
v -152 -24 0
v -160 -32 0
v -168 -32 0
v -168 -24 0
v -160 -24 0
v -168 -32 0
v -176 -32 0
v -176 -24 0
v -168 -24 0
v -176 -32 0
v -184 -32 0
v -184 -24 0
v -176 -24 0
v -184 -32 0
v -192 -32 0
v -192 -24 0
v -184 -24 0
v -192 -32 0
v -200 -32 0
v -200 -24 0
v -192 -24 0
v -200 -32 0
v -208 -32 0
v -208 -24 0
v -200 -24 0
v -208 -32 0
v -216 -32 0
v -216 -24 0
v -208 -24 0
v -88 -40 0
v -96 -40 0
v -96 -32 0
v -88 -32 0
v -96 -40 0
v -104 -40 0
v -104 -32 0
v -96 -32 0
v -104 -40 0
v -112 -40 0
v -112 -32 0
v -104 -32 0
v -112 -40 0
v -120 -40 0
v -120 -32 0
v -112 -32 0
v -120 -40 0
v -128 -40 0
v -128 -32 0
v -120 -32 0
v -128 -40 0
v -136 -40 0
v -136 -32 0
v -128 -32 0
v -136 -40 0
v -144 -40 0
v -144 -32 0
v -136 -32 0
v -144 -40 0
v -152 -40 0
v -152 -32 0
v -144 -32 0
v -152 -40 0
v -160 -40 0
v -160 -32 0
v -152 -32 0
v -160 -40 0
v -168 -40 0
v -168 -32 0
v -160 -32 0
v -168 -40 0
v -176 -40 0
v -176 -32 0
v -168 -32 0
v -176 -40 0
v -184 -40 0
v -184 -32 0
v -176 -32 0
v -184 -40 0
v -192 -40 0
v -192 -32 0
v -184 -32 0
v -192 -40 0
v -200 -40 0
v -200 -32 0
v -192 -32 0
v -200 -40 0
v -208 -40 0
v -208 -32 0
v -200 -32 0
v -208 -40 0
v -216 -40 0
v -216 -32 0
v -208 -32 0
v -88 -48 0
v -96 -48 0
v -96 -40 0
v -88 -40 0
v -96 -48 0
v -104 -48 0
v -104 -40 0
v -96 -40 0
v -104 -48 0
v -112 -48 0
v -112 -40 0
v -104 -40 0
v -112 -48 0
v -120 -48 0
v -120 -40 0
v -112 -40 0
v -120 -48 0
v -128 -48 0
v -128 -40 0
v -120 -40 0
v -128 -48 0
v -136 -48 0
v -136 -40 0
v -128 -40 0
v -136 -48 0
v -144 -48 0
v -144 -40 0
v -136 -40 0
v -144 -48 0
v -152 -48 0
v -152 -40 0
v -144 -40 0
v -152 -48 0
v -160 -48 0
v -160 -40 0
v -152 -40 0
v -160 -48 0
v -168 -48 0
v -168 -40 0
v -160 -40 0
v -168 -48 0
v -176 -48 0
v -176 -40 0
v -168 -40 0
v -176 -48 0
v -184 -48 0
v -184 -40 0
v -176 -40 0
v -184 -48 0
v -192 -48 0
v -192 -40 0
v -184 -40 0
v -192 -48 0
v -200 -48 0
v -200 -40 0
v -192 -40 0
v -200 -48 0
v -208 -48 0
v -208 -40 0
v -200 -40 0
v -208 -48 0
v -216 -48 0
v -216 -40 0
v -208 -40 0
v -88 -56 0
v -96 -56 0
v -96 -48 0
v -88 -48 0
v -96 -56 0
v -104 -56 0
v -104 -48 0
v -96 -48 0
v -104 -56 0
v -112 -56 0
v -112 -48 0
v -104 -48 0
v -112 -56 0
v -120 -56 0
v -120 -48 0
v -112 -48 0
v -120 -56 0
v -128 -56 0
v -128 -48 0
v -120 -48 0
v -128 -56 0
v -136 -56 0
v -136 -48 0
v -128 -48 0
v -136 -56 0
v -144 -56 0
v -144 -48 0
v -136 -48 0
v -144 -56 0
v -152 -56 0
v -152 -48 0
v -144 -48 0
v -152 -56 0
v -160 -56 0
v -160 -48 0
v -152 -48 0
v -160 -56 0
v -168 -56 0
v -168 -48 0
v -160 -48 0
v -168 -56 0
v -176 -56 0
v -176 -48 0
v -168 -48 0
v -176 -56 0
v -184 -56 0
v -184 -48 0
v -176 -48 0
v -184 -56 0
v -192 -56 0
v -192 -48 0
v -184 -48 0
v -192 -56 0
v -200 -56 0
v -200 -48 0
v -192 -48 0
v -200 -56 0
v -208 -56 0
v -208 -48 0
v -200 -48 0
v -208 -56 0
v -216 -56 0
v -216 -48 0
v -208 -48 0

# Texture cooridinates (Count = 46)
vt 0 0.7638889
vt 0.0125 0.7638889
vt 0.0125 0.7777778
vt 0 0.7777778
vt 0.025 0.7638889
vt 0.025 0.7777778
vt 0 0.9861111
vt 0.0125 0.9861111
vt 0.0125 1
vt 0 1
vt 0.025 0.9861111
vt 0.025 1
vt 0.0375 0.7638889
vt 0.0375 0.7777778
vt 0.05 0.7638889
vt 0.05 0.7777778
vt 0 0.75
vt 0.0125 0.75
vt 0.025 0.75
vt 0.0375 0.75
vt 0.05 0.75
vt 0 0.04166669
vt 0.0125 0.04166669
vt 0.0125 0.05555558
vt 0 0.05555558
vt 0.025 0.04166669
vt 0.025 0.05555558
vt 0.0375 0.04166669
vt 0.0375 0.05555558
vt 0.05 0.04166669
vt 0.05 0.05555558
vt 0 0.02777779
vt 0.0125 0.02777779
vt 0.025 0.02777779
vt 0.0375 0.02777779
vt 0.05 0.02777779
vt 0 0.0138889
vt 0.0125 0.0138889
vt 0.025 0.0138889
vt 0.0375 0.0138889
vt 0.05 0.0138889
vt 0 0
vt 0.0125 0
vt 0.025 0
vt 0.0375 0
vt 0.05 0

# Normal
vn 0 0 -1

# Mesh description
g casita_mesh_0002

# Faces
f 1/1/1 2/2/1 3/3/1 4/4/1
f 5/2/1 6/5/1 7/6/1 8/3/1
f 9/7/1 10/8/1 11/9/1 12/10/1
f 13/7/1 14/8/1 15/9/1 16/10/1
f 17/7/1 18/8/1 19/9/1 20/10/1
f 21/7/1 22/8/1 23/9/1 24/10/1
f 25/7/1 26/8/1 27/9/1 28/10/1
f 29/7/1 30/8/1 31/9/1 32/10/1
f 33/8/1 34/11/1 35/12/1 36/9/1
f 37/1/1 38/2/1 39/3/1 40/4/1
f 41/2/1 42/5/1 43/6/1 44/3/1
f 45/5/1 46/13/1 47/14/1 48/6/1
f 49/13/1 50/15/1 51/16/1 52/14/1
f 53/17/1 54/18/1 55/2/1 56/1/1
f 57/18/1 58/19/1 59/5/1 60/2/1
f 61/19/1 62/20/1 63/13/1 64/5/1
f 65/20/1 66/21/1 67/15/1 68/13/1
f 69/17/1 70/18/1 71/2/1 72/1/1
f 73/18/1 74/19/1 75/5/1 76/2/1
f 77/19/1 78/20/1 79/13/1 80/5/1
f 81/20/1 82/21/1 83/15/1 84/13/1
f 85/17/1 86/18/1 87/2/1 88/1/1
f 89/18/1 90/19/1 91/5/1 92/2/1
f 93/19/1 94/20/1 95/13/1 96/5/1
f 97/20/1 98/21/1 99/15/1 100/13/1
f 101/22/1 102/23/1 103/24/1 104/25/1
f 105/23/1 106/26/1 107/27/1 108/24/1
f 109/26/1 110/28/1 111/29/1 112/27/1
f 113/28/1 114/30/1 115/31/1 116/29/1
f 117/22/1 118/23/1 119/24/1 120/25/1
f 121/23/1 122/26/1 123/27/1 124/24/1
f 125/26/1 126/28/1 127/29/1 128/27/1
f 129/28/1 130/30/1 131/31/1 132/29/1
f 133/22/1 134/23/1 135/24/1 136/25/1
f 137/23/1 138/26/1 139/27/1 140/24/1
f 141/26/1 142/28/1 143/29/1 144/27/1
f 145/28/1 146/30/1 147/31/1 148/29/1
f 149/22/1 150/23/1 151/24/1 152/25/1
f 153/23/1 154/26/1 155/27/1 156/24/1
f 157/26/1 158/28/1 159/29/1 160/27/1
f 161/28/1 162/30/1 163/31/1 164/29/1
f 165/32/1 166/33/1 167/23/1 168/22/1
f 169/33/1 170/34/1 171/26/1 172/23/1
f 173/34/1 174/35/1 175/28/1 176/26/1
f 177/35/1 178/36/1 179/30/1 180/28/1
f 181/32/1 182/33/1 183/23/1 184/22/1
f 185/33/1 186/34/1 187/26/1 188/23/1
f 189/34/1 190/35/1 191/28/1 192/26/1
f 193/35/1 194/36/1 195/30/1 196/28/1
f 197/32/1 198/33/1 199/23/1 200/22/1
f 201/33/1 202/34/1 203/26/1 204/23/1
f 205/34/1 206/35/1 207/28/1 208/26/1
f 209/35/1 210/36/1 211/30/1 212/28/1
f 213/32/1 214/33/1 215/23/1 216/22/1
f 217/33/1 218/34/1 219/26/1 220/23/1
f 221/34/1 222/35/1 223/28/1 224/26/1
f 225/35/1 226/36/1 227/30/1 228/28/1
f 229/37/1 230/38/1 231/33/1 232/32/1
f 233/38/1 234/39/1 235/34/1 236/33/1
f 237/39/1 238/40/1 239/35/1 240/34/1
f 241/40/1 242/41/1 243/36/1 244/35/1
f 245/37/1 246/38/1 247/33/1 248/32/1
f 249/38/1 250/39/1 251/34/1 252/33/1
f 253/39/1 254/40/1 255/35/1 256/34/1
f 257/40/1 258/41/1 259/36/1 260/35/1
f 261/37/1 262/38/1 263/33/1 264/32/1
f 265/38/1 266/39/1 267/34/1 268/33/1
f 269/39/1 270/40/1 271/35/1 272/34/1
f 273/40/1 274/41/1 275/36/1 276/35/1
f 277/37/1 278/38/1 279/33/1 280/32/1
f 281/38/1 282/39/1 283/34/1 284/33/1
f 285/39/1 286/40/1 287/35/1 288/34/1
f 289/40/1 290/41/1 291/36/1 292/35/1
f 293/42/1 294/43/1 295/38/1 296/37/1
f 297/43/1 298/44/1 299/39/1 300/38/1
f 301/44/1 302/45/1 303/40/1 304/39/1
f 305/45/1 306/46/1 307/41/1 308/40/1
f 309/42/1 310/43/1 311/38/1 312/37/1
f 313/43/1 314/44/1 315/39/1 316/38/1
f 317/44/1 318/45/1 319/40/1 320/39/1
f 321/45/1 322/46/1 323/41/1 324/40/1
f 325/42/1 326/43/1 327/38/1 328/37/1
f 329/43/1 330/44/1 331/39/1 332/38/1
f 333/44/1 334/45/1 335/40/1 336/39/1
f 337/45/1 338/46/1 339/41/1 340/40/1
f 341/42/1 342/43/1 343/38/1 344/37/1
f 345/43/1 346/44/1 347/39/1 348/38/1
f 349/44/1 350/45/1 351/40/1 352/39/1
f 353/45/1 354/46/1 355/41/1 356/40/1

