# Tiled2Unity generated file. Do not modify by hand.
# Wavefront file for 'casita_mesh_0003.obj'

# Vertices (Count = 64)
v -8 -8 0
v -16 -8 0
v -16 0 0
v -8 0 0
v -16 -8 0
v -24 -8 0
v -24 0 0
v -16 0 0
v -24 -8 0
v -32 -8 0
v -32 0 0
v -24 0 0
v -32 -8 0
v -40 -8 0
v -40 0 0
v -32 0 0
v -200 -8 0
v -208 -8 0
v -208 0 0
v -200 0 0
v -208 -8 0
v -216 -8 0
v -216 0 0
v -208 0 0
v -216 -8 0
v -224 -8 0
v -224 0 0
v -216 0 0
v -224 -8 0
v -232 -8 0
v -232 0 0
v -224 0 0
v -8 -16 0
v -16 -16 0
v -16 -8 0
v -8 -8 0
v -16 -16 0
v -24 -16 0
v -24 -8 0
v -16 -8 0
v -24 -16 0
v -32 -16 0
v -32 -8 0
v -24 -8 0
v -32 -16 0
v -40 -16 0
v -40 -8 0
v -32 -8 0
v -200 -16 0
v -208 -16 0
v -208 -8 0
v -200 -8 0
v -208 -16 0
v -216 -16 0
v -216 -8 0
v -208 -8 0
v -216 -16 0
v -224 -16 0
v -224 -8 0
v -216 -8 0
v -224 -16 0
v -232 -16 0
v -232 -8 0
v -224 -8 0

# Texture cooridinates (Count = 15)
vt 0.2727273 0.975
vt 0.2878788 0.975
vt 0.2878788 1
vt 0.2727273 1
vt 0.3030303 0.975
vt 0.3030303 1
vt 0.3181818 0.975
vt 0.3181818 1
vt 0.3333333 0.975
vt 0.3333333 1
vt 0.2727273 0.95
vt 0.2878788 0.95
vt 0.3030303 0.95
vt 0.3181818 0.95
vt 0.3333333 0.95

# Normal
vn 0 0 -1

# Mesh description
g casita_mesh_0003

# Faces
f 1/1/1 2/2/1 3/3/1 4/4/1
f 5/2/1 6/5/1 7/6/1 8/3/1
f 9/5/1 10/7/1 11/8/1 12/6/1
f 13/7/1 14/9/1 15/10/1 16/8/1
f 17/1/1 18/2/1 19/3/1 20/4/1
f 21/2/1 22/5/1 23/6/1 24/3/1
f 25/5/1 26/7/1 27/8/1 28/6/1
f 29/7/1 30/9/1 31/10/1 32/8/1
f 33/11/1 34/12/1 35/2/1 36/1/1
f 37/12/1 38/13/1 39/5/1 40/2/1
f 41/13/1 42/14/1 43/7/1 44/5/1
f 45/14/1 46/15/1 47/9/1 48/7/1
f 49/11/1 50/12/1 51/2/1 52/1/1
f 53/12/1 54/13/1 55/5/1 56/2/1
f 57/13/1 58/14/1 59/7/1 60/5/1
f 61/14/1 62/15/1 63/9/1 64/7/1

