# Tiled2Unity generated file. Do not modify by hand.
# Wavefront file for 'casita_mesh_0005.obj'

# Vertices (Count = 440)
v -8 -8 0
v -16 -8 0
v -16 0 0
v -8 0 0
v -16 -8 0
v -24 -8 0
v -24 0 0
v -16 0 0
v -24 -8 0
v -32 -8 0
v -32 0 0
v -24 0 0
v -32 -8 0
v -40 -8 0
v -40 0 0
v -32 0 0
v -40 -8 0
v -48 -8 0
v -48 0 0
v -40 0 0
v -48 -8 0
v -56 -8 0
v -56 0 0
v -48 0 0
v -56 -8 0
v -64 -8 0
v -64 0 0
v -56 0 0
v -64 -8 0
v -72 -8 0
v -72 0 0
v -64 0 0
v -72 -8 0
v -80 -8 0
v -80 0 0
v -72 0 0
v -80 -8 0
v -88 -8 0
v -88 0 0
v -80 0 0
v -96 -8 0
v -104 -8 0
v -104 0 0
v -96 0 0
v -104 -8 0
v -112 -8 0
v -112 0 0
v -104 0 0
v -112 -8 0
v -120 -8 0
v -120 0 0
v -112 0 0
v -120 -8 0
v -128 -8 0
v -128 0 0
v -120 0 0
v -128 -8 0
v -136 -8 0
v -136 0 0
v -128 0 0
v -136 -8 0
v -144 -8 0
v -144 0 0
v -136 0 0
v -144 -8 0
v -152 -8 0
v -152 0 0
v -144 0 0
v -152 -8 0
v -160 -8 0
v -160 0 0
v -152 0 0
v -160 -8 0
v -168 -8 0
v -168 0 0
v -160 0 0
v -168 -8 0
v -176 -8 0
v -176 0 0
v -168 0 0
v -8 -16 0
v -16 -16 0
v -16 -8 0
v -8 -8 0
v -16 -16 0
v -24 -16 0
v -24 -8 0
v -16 -8 0
v -24 -16 0
v -32 -16 0
v -32 -8 0
v -24 -8 0
v -32 -16 0
v -40 -16 0
v -40 -8 0
v -32 -8 0
v -40 -16 0
v -48 -16 0
v -48 -8 0
v -40 -8 0
v -48 -16 0
v -56 -16 0
v -56 -8 0
v -48 -8 0
v -56 -16 0
v -64 -16 0
v -64 -8 0
v -56 -8 0
v -64 -16 0
v -72 -16 0
v -72 -8 0
v -64 -8 0
v -72 -16 0
v -80 -16 0
v -80 -8 0
v -72 -8 0
v -80 -16 0
v -88 -16 0
v -88 -8 0
v -80 -8 0
v -8 -24 0
v -16 -24 0
v -16 -16 0
v -8 -16 0
v -16 -24 0
v -24 -24 0
v -24 -16 0
v -16 -16 0
v -24 -24 0
v -32 -24 0
v -32 -16 0
v -24 -16 0
v -32 -24 0
v -40 -24 0
v -40 -16 0
v -32 -16 0
v -40 -24 0
v -48 -24 0
v -48 -16 0
v -40 -16 0
v -48 -24 0
v -56 -24 0
v -56 -16 0
v -48 -16 0
v -56 -24 0
v -64 -24 0
v -64 -16 0
v -56 -16 0
v -64 -24 0
v -72 -24 0
v -72 -16 0
v -64 -16 0
v -72 -24 0
v -80 -24 0
v -80 -16 0
v -72 -16 0
v -80 -24 0
v -88 -24 0
v -88 -16 0
v -80 -16 0
v -8 -32 0
v -16 -32 0
v -16 -24 0
v -8 -24 0
v -16 -32 0
v -24 -32 0
v -24 -24 0
v -16 -24 0
v -24 -32 0
v -32 -32 0
v -32 -24 0
v -24 -24 0
v -32 -32 0
v -40 -32 0
v -40 -24 0
v -32 -24 0
v -40 -32 0
v -48 -32 0
v -48 -24 0
v -40 -24 0
v -48 -32 0
v -56 -32 0
v -56 -24 0
v -48 -24 0
v -56 -32 0
v -64 -32 0
v -64 -24 0
v -56 -24 0
v -64 -32 0
v -72 -32 0
v -72 -24 0
v -64 -24 0
v -72 -32 0
v -80 -32 0
v -80 -24 0
v -72 -24 0
v -80 -32 0
v -88 -32 0
v -88 -24 0
v -80 -24 0
v -8 -40 0
v -16 -40 0
v -16 -32 0
v -8 -32 0
v -16 -40 0
v -24 -40 0
v -24 -32 0
v -16 -32 0
v -24 -40 0
v -32 -40 0
v -32 -32 0
v -24 -32 0
v -32 -40 0
v -40 -40 0
v -40 -32 0
v -32 -32 0
v -40 -40 0
v -48 -40 0
v -48 -32 0
v -40 -32 0
v -48 -40 0
v -56 -40 0
v -56 -32 0
v -48 -32 0
v -56 -40 0
v -64 -40 0
v -64 -32 0
v -56 -32 0
v -64 -40 0
v -72 -40 0
v -72 -32 0
v -64 -32 0
v -72 -40 0
v -80 -40 0
v -80 -32 0
v -72 -32 0
v -80 -40 0
v -88 -40 0
v -88 -32 0
v -80 -32 0
v -8 -48 0
v -16 -48 0
v -16 -40 0
v -8 -40 0
v -16 -48 0
v -24 -48 0
v -24 -40 0
v -16 -40 0
v -24 -48 0
v -32 -48 0
v -32 -40 0
v -24 -40 0
v -32 -48 0
v -40 -48 0
v -40 -40 0
v -32 -40 0
v -40 -48 0
v -48 -48 0
v -48 -40 0
v -40 -40 0
v -48 -48 0
v -56 -48 0
v -56 -40 0
v -48 -40 0
v -56 -48 0
v -64 -48 0
v -64 -40 0
v -56 -40 0
v -64 -48 0
v -72 -48 0
v -72 -40 0
v -64 -40 0
v -72 -48 0
v -80 -48 0
v -80 -40 0
v -72 -40 0
v -80 -48 0
v -88 -48 0
v -88 -40 0
v -80 -40 0
v -8 -56 0
v -16 -56 0
v -16 -48 0
v -8 -48 0
v -16 -56 0
v -24 -56 0
v -24 -48 0
v -16 -48 0
v -24 -56 0
v -32 -56 0
v -32 -48 0
v -24 -48 0
v -32 -56 0
v -40 -56 0
v -40 -48 0
v -32 -48 0
v -40 -56 0
v -48 -56 0
v -48 -48 0
v -40 -48 0
v -48 -56 0
v -56 -56 0
v -56 -48 0
v -48 -48 0
v -56 -56 0
v -64 -56 0
v -64 -48 0
v -56 -48 0
v -64 -56 0
v -72 -56 0
v -72 -48 0
v -64 -48 0
v -72 -56 0
v -80 -56 0
v -80 -48 0
v -72 -48 0
v -80 -56 0
v -88 -56 0
v -88 -48 0
v -80 -48 0
v -8 -64 0
v -16 -64 0
v -16 -56 0
v -8 -56 0
v -16 -64 0
v -24 -64 0
v -24 -56 0
v -16 -56 0
v -24 -64 0
v -32 -64 0
v -32 -56 0
v -24 -56 0
v -32 -64 0
v -40 -64 0
v -40 -56 0
v -32 -56 0
v -40 -64 0
v -48 -64 0
v -48 -56 0
v -40 -56 0
v -48 -64 0
v -56 -64 0
v -56 -56 0
v -48 -56 0
v -56 -64 0
v -64 -64 0
v -64 -56 0
v -56 -56 0
v -64 -64 0
v -72 -64 0
v -72 -56 0
v -64 -56 0
v -72 -64 0
v -80 -64 0
v -80 -56 0
v -72 -56 0
v -80 -64 0
v -88 -64 0
v -88 -56 0
v -80 -56 0
v -8 -72 0
v -16 -72 0
v -16 -64 0
v -8 -64 0
v -16 -72 0
v -24 -72 0
v -24 -64 0
v -16 -64 0
v -24 -72 0
v -32 -72 0
v -32 -64 0
v -24 -64 0
v -32 -72 0
v -40 -72 0
v -40 -64 0
v -32 -64 0
v -40 -72 0
v -48 -72 0
v -48 -64 0
v -40 -64 0
v -48 -72 0
v -56 -72 0
v -56 -64 0
v -48 -64 0
v -56 -72 0
v -64 -72 0
v -64 -64 0
v -56 -64 0
v -64 -72 0
v -72 -72 0
v -72 -64 0
v -64 -64 0
v -72 -72 0
v -80 -72 0
v -80 -64 0
v -72 -64 0
v -80 -72 0
v -88 -72 0
v -88 -64 0
v -80 -64 0
v -8 -80 0
v -16 -80 0
v -16 -72 0
v -8 -72 0
v -16 -80 0
v -24 -80 0
v -24 -72 0
v -16 -72 0
v -24 -80 0
v -32 -80 0
v -32 -72 0
v -24 -72 0
v -32 -80 0
v -40 -80 0
v -40 -72 0
v -32 -72 0
v -40 -80 0
v -48 -80 0
v -48 -72 0
v -40 -72 0
v -48 -80 0
v -56 -80 0
v -56 -72 0
v -48 -72 0
v -56 -80 0
v -64 -80 0
v -64 -72 0
v -56 -72 0
v -64 -80 0
v -72 -80 0
v -72 -72 0
v -64 -72 0
v -72 -80 0
v -80 -80 0
v -80 -72 0
v -72 -72 0
v -80 -80 0
v -88 -80 0
v -88 -72 0
v -80 -72 0

# Texture cooridinates (Count = 127)
vt 0.15 0.9861111
vt 0.1625 0.9861111
vt 0.1625 1
vt 0.15 1
vt 0.175 0.9861111
vt 0.175 1
vt 0.1875 0.9861111
vt 0.1875 1
vt 0.2 0.9861111
vt 0.2 1
vt 0.2125 0.9861111
vt 0.2125 1
vt 0.225 0.9861111
vt 0.225 1
vt 0.2375 0.9861111
vt 0.2375 1
vt 0.25 0.9861111
vt 0.25 1
vt 0.2625 0.9861111
vt 0.2625 1
vt 0.275 0.9861111
vt 0.275 1
vt 0 0.9861111
vt 0.0125 0.9861111
vt 0.0125 1
vt 0 1
vt 0.025 0.9861111
vt 0.025 1
vt 0.15 0.9722222
vt 0.1625 0.9722222
vt 0.175 0.9722222
vt 0.1875 0.9722222
vt 0.2 0.9722222
vt 0.2125 0.9722222
vt 0.225 0.9722222
vt 0.2375 0.9722222
vt 0.25 0.9722222
vt 0.2625 0.9722222
vt 0.275 0.9722222
vt 0.15 0.9583333
vt 0.1625 0.9583333
vt 0.175 0.9583333
vt 0.1875 0.9583333
vt 0.2 0.9583333
vt 0.2125 0.9583333
vt 0.225 0.9583333
vt 0.2375 0.9583333
vt 0.25 0.9583333
vt 0.2625 0.9583333
vt 0.275 0.9583333
vt 0.15 0.9444444
vt 0.1625 0.9444444
vt 0.175 0.9444444
vt 0.1875 0.9444444
vt 0.2 0.9444444
vt 0.2125 0.9444444
vt 0.225 0.9444444
vt 0.2375 0.9444444
vt 0.25 0.9444444
vt 0.2625 0.9444444
vt 0.275 0.9444444
vt 0.15 0.9305556
vt 0.1625 0.9305556
vt 0.175 0.9305556
vt 0.1875 0.9305556
vt 0.2 0.9305556
vt 0.2125 0.9305556
vt 0.225 0.9305556
vt 0.2375 0.9305556
vt 0.25 0.9305556
vt 0.2625 0.9305556
vt 0.275 0.9305556
vt 0.15 0.9166667
vt 0.1625 0.9166667
vt 0.175 0.9166667
vt 0.1875 0.9166667
vt 0.2 0.9166667
vt 0.2125 0.9166667
vt 0.225 0.9166667
vt 0.2375 0.9166667
vt 0.25 0.9166667
vt 0.2625 0.9166667
vt 0.275 0.9166667
vt 0.15 0.9027778
vt 0.1625 0.9027778
vt 0.175 0.9027778
vt 0.1875 0.9027778
vt 0.2 0.9027778
vt 0.2125 0.9027778
vt 0.225 0.9027778
vt 0.2375 0.9027778
vt 0.25 0.9027778
vt 0.2625 0.9027778
vt 0.275 0.9027778
vt 0.15 0.8888889
vt 0.1625 0.8888889
vt 0.175 0.8888889
vt 0.1875 0.8888889
vt 0.2 0.8888889
vt 0.2125 0.8888889
vt 0.225 0.8888889
vt 0.2375 0.8888889
vt 0.25 0.8888889
vt 0.2625 0.8888889
vt 0.275 0.8888889
vt 0.15 0.875
vt 0.1625 0.875
vt 0.175 0.875
vt 0.1875 0.875
vt 0.2 0.875
vt 0.2125 0.875
vt 0.225 0.875
vt 0.2375 0.875
vt 0.25 0.875
vt 0.2625 0.875
vt 0.275 0.875
vt 0.15 0.8611111
vt 0.1625 0.8611111
vt 0.175 0.8611111
vt 0.1875 0.8611111
vt 0.2 0.8611111
vt 0.2125 0.8611111
vt 0.225 0.8611111
vt 0.2375 0.8611111
vt 0.25 0.8611111
vt 0.2625 0.8611111
vt 0.275 0.8611111

# Normal
vn 0 0 -1

# Mesh description
g casita_mesh_0005

# Faces
f 1/1/1 2/2/1 3/3/1 4/4/1
f 5/2/1 6/5/1 7/6/1 8/3/1
f 9/5/1 10/7/1 11/8/1 12/6/1
f 13/7/1 14/9/1 15/10/1 16/8/1
f 17/9/1 18/11/1 19/12/1 20/10/1
f 21/11/1 22/13/1 23/14/1 24/12/1
f 25/13/1 26/15/1 27/16/1 28/14/1
f 29/15/1 30/17/1 31/18/1 32/16/1
f 33/17/1 34/19/1 35/20/1 36/18/1
f 37/19/1 38/21/1 39/22/1 40/20/1
f 41/23/1 42/24/1 43/25/1 44/26/1
f 45/23/1 46/24/1 47/25/1 48/26/1
f 49/23/1 50/24/1 51/25/1 52/26/1
f 53/23/1 54/24/1 55/25/1 56/26/1
f 57/23/1 58/24/1 59/25/1 60/26/1
f 61/23/1 62/24/1 63/25/1 64/26/1
f 65/23/1 66/24/1 67/25/1 68/26/1
f 69/23/1 70/24/1 71/25/1 72/26/1
f 73/23/1 74/24/1 75/25/1 76/26/1
f 77/24/1 78/27/1 79/28/1 80/25/1
f 81/29/1 82/30/1 83/2/1 84/1/1
f 85/30/1 86/31/1 87/5/1 88/2/1
f 89/31/1 90/32/1 91/7/1 92/5/1
f 93/32/1 94/33/1 95/9/1 96/7/1
f 97/33/1 98/34/1 99/11/1 100/9/1
f 101/34/1 102/35/1 103/13/1 104/11/1
f 105/35/1 106/36/1 107/15/1 108/13/1
f 109/36/1 110/37/1 111/17/1 112/15/1
f 113/37/1 114/38/1 115/19/1 116/17/1
f 117/38/1 118/39/1 119/21/1 120/19/1
f 121/40/1 122/41/1 123/30/1 124/29/1
f 125/41/1 126/42/1 127/31/1 128/30/1
f 129/42/1 130/43/1 131/32/1 132/31/1
f 133/43/1 134/44/1 135/33/1 136/32/1
f 137/44/1 138/45/1 139/34/1 140/33/1
f 141/45/1 142/46/1 143/35/1 144/34/1
f 145/46/1 146/47/1 147/36/1 148/35/1
f 149/47/1 150/48/1 151/37/1 152/36/1
f 153/48/1 154/49/1 155/38/1 156/37/1
f 157/49/1 158/50/1 159/39/1 160/38/1
f 161/51/1 162/52/1 163/41/1 164/40/1
f 165/52/1 166/53/1 167/42/1 168/41/1
f 169/53/1 170/54/1 171/43/1 172/42/1
f 173/54/1 174/55/1 175/44/1 176/43/1
f 177/55/1 178/56/1 179/45/1 180/44/1
f 181/56/1 182/57/1 183/46/1 184/45/1
f 185/57/1 186/58/1 187/47/1 188/46/1
f 189/58/1 190/59/1 191/48/1 192/47/1
f 193/59/1 194/60/1 195/49/1 196/48/1
f 197/60/1 198/61/1 199/50/1 200/49/1
f 201/62/1 202/63/1 203/52/1 204/51/1
f 205/63/1 206/64/1 207/53/1 208/52/1
f 209/64/1 210/65/1 211/54/1 212/53/1
f 213/65/1 214/66/1 215/55/1 216/54/1
f 217/66/1 218/67/1 219/56/1 220/55/1
f 221/67/1 222/68/1 223/57/1 224/56/1
f 225/68/1 226/69/1 227/58/1 228/57/1
f 229/69/1 230/70/1 231/59/1 232/58/1
f 233/70/1 234/71/1 235/60/1 236/59/1
f 237/71/1 238/72/1 239/61/1 240/60/1
f 241/73/1 242/74/1 243/63/1 244/62/1
f 245/74/1 246/75/1 247/64/1 248/63/1
f 249/75/1 250/76/1 251/65/1 252/64/1
f 253/76/1 254/77/1 255/66/1 256/65/1
f 257/77/1 258/78/1 259/67/1 260/66/1
f 261/78/1 262/79/1 263/68/1 264/67/1
f 265/79/1 266/80/1 267/69/1 268/68/1
f 269/80/1 270/81/1 271/70/1 272/69/1
f 273/81/1 274/82/1 275/71/1 276/70/1
f 277/82/1 278/83/1 279/72/1 280/71/1
f 281/84/1 282/85/1 283/74/1 284/73/1
f 285/85/1 286/86/1 287/75/1 288/74/1
f 289/86/1 290/87/1 291/76/1 292/75/1
f 293/87/1 294/88/1 295/77/1 296/76/1
f 297/88/1 298/89/1 299/78/1 300/77/1
f 301/89/1 302/90/1 303/79/1 304/78/1
f 305/90/1 306/91/1 307/80/1 308/79/1
f 309/91/1 310/92/1 311/81/1 312/80/1
f 313/92/1 314/93/1 315/82/1 316/81/1
f 317/93/1 318/94/1 319/83/1 320/82/1
f 321/95/1 322/96/1 323/85/1 324/84/1
f 325/96/1 326/97/1 327/86/1 328/85/1
f 329/97/1 330/98/1 331/87/1 332/86/1
f 333/98/1 334/99/1 335/88/1 336/87/1
f 337/99/1 338/100/1 339/89/1 340/88/1
f 341/100/1 342/101/1 343/90/1 344/89/1
f 345/101/1 346/102/1 347/91/1 348/90/1
f 349/102/1 350/103/1 351/92/1 352/91/1
f 353/103/1 354/104/1 355/93/1 356/92/1
f 357/104/1 358/105/1 359/94/1 360/93/1
f 361/106/1 362/107/1 363/96/1 364/95/1
f 365/107/1 366/108/1 367/97/1 368/96/1
f 369/108/1 370/109/1 371/98/1 372/97/1
f 373/109/1 374/110/1 375/99/1 376/98/1
f 377/110/1 378/111/1 379/100/1 380/99/1
f 381/111/1 382/112/1 383/101/1 384/100/1
f 385/112/1 386/113/1 387/102/1 388/101/1
f 389/113/1 390/114/1 391/103/1 392/102/1
f 393/114/1 394/115/1 395/104/1 396/103/1
f 397/115/1 398/116/1 399/105/1 400/104/1
f 401/117/1 402/118/1 403/107/1 404/106/1
f 405/118/1 406/119/1 407/108/1 408/107/1
f 409/119/1 410/120/1 411/109/1 412/108/1
f 413/120/1 414/121/1 415/110/1 416/109/1
f 417/121/1 418/122/1 419/111/1 420/110/1
f 421/122/1 422/123/1 423/112/1 424/111/1
f 425/123/1 426/124/1 427/113/1 428/112/1
f 429/124/1 430/125/1 431/114/1 432/113/1
f 433/125/1 434/126/1 435/115/1 436/114/1
f 437/126/1 438/127/1 439/116/1 440/115/1

