# Tiled2Unity generated file. Do not modify by hand.
# Wavefront file for 'preplaya_mesh_0002.obj'

# Vertices (Count = 536)
v -48 -16 0
v -64 -16 0
v -64 0 0
v -48 0 0
v -64 -16 0
v -80 -16 0
v -80 0 0
v -64 0 0
v -240 -16 0
v -256 -16 0
v -256 0 0
v -240 0 0
v -256 -16 0
v -272 -16 0
v -272 0 0
v -256 0 0
v -48 -32 0
v -64 -32 0
v -64 -16 0
v -48 -16 0
v -64 -32 0
v -80 -32 0
v -80 -16 0
v -64 -16 0
v -240 -32 0
v -256 -32 0
v -256 -16 0
v -240 -16 0
v -256 -32 0
v -272 -32 0
v -272 -16 0
v -256 -16 0
v 0 -208 0
v -16 -208 0
v -16 -192 0
v 0 -192 0
v -16 -208 0
v -32 -208 0
v -32 -192 0
v -16 -192 0
v -48 -208 0
v -64 -208 0
v -64 -192 0
v -48 -192 0
v -64 -208 0
v -80 -208 0
v -80 -192 0
v -64 -192 0
v -80 -208 0
v -96 -208 0
v -96 -192 0
v -80 -192 0
v -96 -208 0
v -112 -208 0
v -112 -192 0
v -96 -192 0
v -112 -208 0
v -128 -208 0
v -128 -192 0
v -112 -192 0
v -128 -208 0
v -144 -208 0
v -144 -192 0
v -128 -192 0
v -144 -208 0
v -160 -208 0
v -160 -192 0
v -144 -192 0
v -160 -208 0
v -176 -208 0
v -176 -192 0
v -160 -192 0
v -176 -208 0
v -192 -208 0
v -192 -192 0
v -176 -192 0
v -192 -208 0
v -208 -208 0
v -208 -192 0
v -192 -192 0
v -208 -208 0
v -224 -208 0
v -224 -192 0
v -208 -192 0
v -224 -208 0
v -240 -208 0
v -240 -192 0
v -224 -192 0
v -240 -208 0
v -256 -208 0
v -256 -192 0
v -240 -192 0
v -256 -208 0
v -272 -208 0
v -272 -192 0
v -256 -192 0
v -272 -208 0
v -288 -208 0
v -288 -192 0
v -272 -192 0
v -288 -208 0
v -304 -208 0
v -304 -192 0
v -288 -192 0
v 0 -224 0
v -16 -224 0
v -16 -208 0
v 0 -208 0
v -16 -224 0
v -32 -224 0
v -32 -208 0
v -16 -208 0
v -48 -224 0
v -64 -224 0
v -64 -208 0
v -48 -208 0
v -64 -224 0
v -80 -224 0
v -80 -208 0
v -64 -208 0
v -80 -224 0
v -96 -224 0
v -96 -208 0
v -80 -208 0
v -96 -224 0
v -112 -224 0
v -112 -208 0
v -96 -208 0
v -112 -224 0
v -128 -224 0
v -128 -208 0
v -112 -208 0
v -128 -224 0
v -144 -224 0
v -144 -208 0
v -128 -208 0
v -144 -224 0
v -160 -224 0
v -160 -208 0
v -144 -208 0
v -160 -224 0
v -176 -224 0
v -176 -208 0
v -160 -208 0
v -176 -224 0
v -192 -224 0
v -192 -208 0
v -176 -208 0
v -192 -224 0
v -208 -224 0
v -208 -208 0
v -192 -208 0
v -208 -224 0
v -224 -224 0
v -224 -208 0
v -208 -208 0
v -224 -224 0
v -240 -224 0
v -240 -208 0
v -224 -208 0
v -240 -224 0
v -256 -224 0
v -256 -208 0
v -240 -208 0
v -256 -224 0
v -272 -224 0
v -272 -208 0
v -256 -208 0
v -272 -224 0
v -288 -224 0
v -288 -208 0
v -272 -208 0
v -288 -224 0
v -304 -224 0
v -304 -208 0
v -288 -208 0
v -48 -240 0
v -64 -240 0
v -64 -224 0
v -48 -224 0
v -64 -240 0
v -80 -240 0
v -80 -224 0
v -64 -224 0
v -80 -240 0
v -96 -240 0
v -96 -224 0
v -80 -224 0
v -96 -240 0
v -112 -240 0
v -112 -224 0
v -96 -224 0
v -112 -240 0
v -128 -240 0
v -128 -224 0
v -112 -224 0
v -128 -240 0
v -144 -240 0
v -144 -224 0
v -128 -224 0
v -144 -240 0
v -160 -240 0
v -160 -224 0
v -144 -224 0
v -160 -240 0
v -176 -240 0
v -176 -224 0
v -160 -224 0
v -176 -240 0
v -192 -240 0
v -192 -224 0
v -176 -224 0
v -192 -240 0
v -208 -240 0
v -208 -224 0
v -192 -224 0
v -208 -240 0
v -224 -240 0
v -224 -224 0
v -208 -224 0
v -224 -240 0
v -240 -240 0
v -240 -224 0
v -224 -224 0
v -240 -240 0
v -256 -240 0
v -256 -224 0
v -240 -224 0
v -256 -240 0
v -272 -240 0
v -272 -224 0
v -256 -224 0
v -48 -256 0
v -64 -256 0
v -64 -240 0
v -48 -240 0
v -64 -256 0
v -80 -256 0
v -80 -240 0
v -64 -240 0
v -80 -256 0
v -96 -256 0
v -96 -240 0
v -80 -240 0
v -96 -256 0
v -112 -256 0
v -112 -240 0
v -96 -240 0
v -112 -256 0
v -128 -256 0
v -128 -240 0
v -112 -240 0
v -128 -256 0
v -144 -256 0
v -144 -240 0
v -128 -240 0
v -144 -256 0
v -160 -256 0
v -160 -240 0
v -144 -240 0
v -160 -256 0
v -176 -256 0
v -176 -240 0
v -160 -240 0
v -176 -256 0
v -192 -256 0
v -192 -240 0
v -176 -240 0
v -192 -256 0
v -208 -256 0
v -208 -240 0
v -192 -240 0
v -208 -256 0
v -224 -256 0
v -224 -240 0
v -208 -240 0
v -224 -256 0
v -240 -256 0
v -240 -240 0
v -224 -240 0
v -240 -256 0
v -256 -256 0
v -256 -240 0
v -240 -240 0
v -256 -256 0
v -272 -256 0
v -272 -240 0
v -256 -240 0
v -48 -272 0
v -64 -272 0
v -64 -256 0
v -48 -256 0
v -64 -272 0
v -80 -272 0
v -80 -256 0
v -64 -256 0
v -80 -272 0
v -96 -272 0
v -96 -256 0
v -80 -256 0
v -96 -272 0
v -112 -272 0
v -112 -256 0
v -96 -256 0
v -112 -272 0
v -128 -272 0
v -128 -256 0
v -112 -256 0
v -128 -272 0
v -144 -272 0
v -144 -256 0
v -128 -256 0
v -144 -272 0
v -160 -272 0
v -160 -256 0
v -144 -256 0
v -160 -272 0
v -176 -272 0
v -176 -256 0
v -160 -256 0
v -176 -272 0
v -192 -272 0
v -192 -256 0
v -176 -256 0
v -192 -272 0
v -208 -272 0
v -208 -256 0
v -192 -256 0
v -208 -272 0
v -224 -272 0
v -224 -256 0
v -208 -256 0
v -224 -272 0
v -240 -272 0
v -240 -256 0
v -224 -256 0
v -240 -272 0
v -256 -272 0
v -256 -256 0
v -240 -256 0
v -256 -272 0
v -272 -272 0
v -272 -256 0
v -256 -256 0
v -48 -288 0
v -64 -288 0
v -64 -272 0
v -48 -272 0
v -64 -288 0
v -80 -288 0
v -80 -272 0
v -64 -272 0
v -80 -288 0
v -96 -288 0
v -96 -272 0
v -80 -272 0
v -96 -288 0
v -112 -288 0
v -112 -272 0
v -96 -272 0
v -112 -288 0
v -128 -288 0
v -128 -272 0
v -112 -272 0
v -128 -288 0
v -144 -288 0
v -144 -272 0
v -128 -272 0
v -144 -288 0
v -160 -288 0
v -160 -272 0
v -144 -272 0
v -160 -288 0
v -176 -288 0
v -176 -272 0
v -160 -272 0
v -176 -288 0
v -192 -288 0
v -192 -272 0
v -176 -272 0
v -192 -288 0
v -208 -288 0
v -208 -272 0
v -192 -272 0
v -208 -288 0
v -224 -288 0
v -224 -272 0
v -208 -272 0
v -224 -288 0
v -240 -288 0
v -240 -272 0
v -224 -272 0
v -240 -288 0
v -256 -288 0
v -256 -272 0
v -240 -272 0
v -256 -288 0
v -272 -288 0
v -272 -272 0
v -256 -272 0
v -48 -304 0
v -64 -304 0
v -64 -288 0
v -48 -288 0
v -64 -304 0
v -80 -304 0
v -80 -288 0
v -64 -288 0
v -80 -304 0
v -96 -304 0
v -96 -288 0
v -80 -288 0
v -96 -304 0
v -112 -304 0
v -112 -288 0
v -96 -288 0
v -112 -304 0
v -128 -304 0
v -128 -288 0
v -112 -288 0
v -128 -304 0
v -144 -304 0
v -144 -288 0
v -128 -288 0
v -144 -304 0
v -160 -304 0
v -160 -288 0
v -144 -288 0
v -160 -304 0
v -176 -304 0
v -176 -288 0
v -160 -288 0
v -176 -304 0
v -192 -304 0
v -192 -288 0
v -176 -288 0
v -192 -304 0
v -208 -304 0
v -208 -288 0
v -192 -288 0
v -208 -304 0
v -224 -304 0
v -224 -288 0
v -208 -288 0
v -224 -304 0
v -240 -304 0
v -240 -288 0
v -224 -288 0
v -240 -304 0
v -256 -304 0
v -256 -288 0
v -240 -288 0
v -256 -304 0
v -272 -304 0
v -272 -288 0
v -256 -288 0
v 0 -320 0
v -16 -320 0
v -16 -304 0
v 0 -304 0
v -16 -320 0
v -32 -320 0
v -32 -304 0
v -16 -304 0
v -32 -320 0
v -48 -320 0
v -48 -304 0
v -32 -304 0
v -48 -320 0
v -64 -320 0
v -64 -304 0
v -48 -304 0
v -64 -320 0
v -80 -320 0
v -80 -304 0
v -64 -304 0
v -80 -320 0
v -96 -320 0
v -96 -304 0
v -80 -304 0
v -96 -320 0
v -112 -320 0
v -112 -304 0
v -96 -304 0
v -112 -320 0
v -128 -320 0
v -128 -304 0
v -112 -304 0
v -128 -320 0
v -144 -320 0
v -144 -304 0
v -128 -304 0
v -144 -320 0
v -160 -320 0
v -160 -304 0
v -144 -304 0
v -160 -320 0
v -176 -320 0
v -176 -304 0
v -160 -304 0
v -176 -320 0
v -192 -320 0
v -192 -304 0
v -176 -304 0
v -192 -320 0
v -208 -320 0
v -208 -304 0
v -192 -304 0
v -208 -320 0
v -224 -320 0
v -224 -304 0
v -208 -304 0
v -224 -320 0
v -240 -320 0
v -240 -304 0
v -224 -304 0
v -240 -320 0
v -256 -320 0
v -256 -304 0
v -240 -304 0
v -256 -320 0
v -272 -320 0
v -272 -304 0
v -256 -304 0
v -272 -320 0
v -288 -320 0
v -288 -304 0
v -272 -304 0
v -288 -320 0
v -304 -320 0
v -304 -304 0
v -288 -304 0
v -304 -320 0
v -320 -320 0
v -320 -304 0
v -304 -304 0

# Texture cooridinates (Count = 19)
vt 0.375 0.9981396
vt 0.4375 0.9981396
vt 0.4375 1
vt 0.375 1
vt 0.5 0.9981396
vt 0.5 1
vt 0.375 0.9962791
vt 0.4375 0.9962791
vt 0.5 0.9962791
vt 0.125 0.9665116
vt 0.1875 0.9665116
vt 0.1875 0.9683721
vt 0.125 0.9683721
vt 0.25 0.9665116
vt 0.25 0.9683721
vt 0.4375 0.8995349
vt 0.5 0.8995349
vt 0.5 0.9013953
vt 0.4375 0.9013953

# Normal
vn 0 0 -1

# Mesh description
g preplaya_mesh_0002

# Faces
f 1/1/1 2/2/1 3/3/1 4/4/1
f 5/2/1 6/5/1 7/6/1 8/3/1
f 9/1/1 10/2/1 11/3/1 12/4/1
f 13/2/1 14/5/1 15/6/1 16/3/1
f 17/7/1 18/8/1 19/2/1 20/1/1
f 21/8/1 22/9/1 23/5/1 24/2/1
f 25/7/1 26/8/1 27/2/1 28/1/1
f 29/8/1 30/9/1 31/5/1 32/2/1
f 33/1/1 34/2/1 35/3/1 36/4/1
f 37/2/1 38/5/1 39/6/1 40/3/1
f 41/10/1 42/11/1 43/12/1 44/13/1
f 45/11/1 46/14/1 47/15/1 48/12/1
f 49/10/1 50/11/1 51/12/1 52/13/1
f 53/10/1 54/11/1 55/12/1 56/13/1
f 57/10/1 58/11/1 59/12/1 60/13/1
f 61/10/1 62/11/1 63/12/1 64/13/1
f 65/10/1 66/11/1 67/12/1 68/13/1
f 69/10/1 70/11/1 71/12/1 72/13/1
f 73/10/1 74/11/1 75/12/1 76/13/1
f 77/10/1 78/11/1 79/12/1 80/13/1
f 81/10/1 82/11/1 83/12/1 84/13/1
f 85/10/1 86/11/1 87/12/1 88/13/1
f 89/10/1 90/11/1 91/12/1 92/13/1
f 93/11/1 94/14/1 95/15/1 96/12/1
f 97/1/1 98/2/1 99/3/1 100/4/1
f 101/2/1 102/5/1 103/6/1 104/3/1
f 105/7/1 106/8/1 107/2/1 108/1/1
f 109/8/1 110/9/1 111/5/1 112/2/1
f 113/16/1 114/17/1 115/18/1 116/19/1
f 117/16/1 118/17/1 119/18/1 120/19/1
f 121/16/1 122/17/1 123/18/1 124/19/1
f 125/16/1 126/17/1 127/18/1 128/19/1
f 129/16/1 130/17/1 131/18/1 132/19/1
f 133/16/1 134/17/1 135/18/1 136/19/1
f 137/16/1 138/17/1 139/18/1 140/19/1
f 141/16/1 142/17/1 143/18/1 144/19/1
f 145/16/1 146/17/1 147/18/1 148/19/1
f 149/16/1 150/17/1 151/18/1 152/19/1
f 153/16/1 154/17/1 155/18/1 156/19/1
f 157/16/1 158/17/1 159/18/1 160/19/1
f 161/16/1 162/17/1 163/18/1 164/19/1
f 165/16/1 166/17/1 167/18/1 168/19/1
f 169/7/1 170/8/1 171/2/1 172/1/1
f 173/8/1 174/9/1 175/5/1 176/2/1
f 177/16/1 178/17/1 179/18/1 180/19/1
f 181/16/1 182/17/1 183/18/1 184/19/1
f 185/16/1 186/17/1 187/18/1 188/19/1
f 189/16/1 190/17/1 191/18/1 192/19/1
f 193/16/1 194/17/1 195/18/1 196/19/1
f 197/16/1 198/17/1 199/18/1 200/19/1
f 201/16/1 202/17/1 203/18/1 204/19/1
f 205/16/1 206/17/1 207/18/1 208/19/1
f 209/16/1 210/17/1 211/18/1 212/19/1
f 213/16/1 214/17/1 215/18/1 216/19/1
f 217/16/1 218/17/1 219/18/1 220/19/1
f 221/16/1 222/17/1 223/18/1 224/19/1
f 225/16/1 226/17/1 227/18/1 228/19/1
f 229/16/1 230/17/1 231/18/1 232/19/1
f 233/16/1 234/17/1 235/18/1 236/19/1
f 237/16/1 238/17/1 239/18/1 240/19/1
f 241/16/1 242/17/1 243/18/1 244/19/1
f 245/16/1 246/17/1 247/18/1 248/19/1
f 249/16/1 250/17/1 251/18/1 252/19/1
f 253/16/1 254/17/1 255/18/1 256/19/1
f 257/16/1 258/17/1 259/18/1 260/19/1
f 261/16/1 262/17/1 263/18/1 264/19/1
f 265/16/1 266/17/1 267/18/1 268/19/1
f 269/16/1 270/17/1 271/18/1 272/19/1
f 273/16/1 274/17/1 275/18/1 276/19/1
f 277/16/1 278/17/1 279/18/1 280/19/1
f 281/16/1 282/17/1 283/18/1 284/19/1
f 285/16/1 286/17/1 287/18/1 288/19/1
f 289/16/1 290/17/1 291/18/1 292/19/1
f 293/16/1 294/17/1 295/18/1 296/19/1
f 297/16/1 298/17/1 299/18/1 300/19/1
f 301/16/1 302/17/1 303/18/1 304/19/1
f 305/16/1 306/17/1 307/18/1 308/19/1
f 309/16/1 310/17/1 311/18/1 312/19/1
f 313/16/1 314/17/1 315/18/1 316/19/1
f 317/16/1 318/17/1 319/18/1 320/19/1
f 321/16/1 322/17/1 323/18/1 324/19/1
f 325/16/1 326/17/1 327/18/1 328/19/1
f 329/16/1 330/17/1 331/18/1 332/19/1
f 333/16/1 334/17/1 335/18/1 336/19/1
f 337/16/1 338/17/1 339/18/1 340/19/1
f 341/16/1 342/17/1 343/18/1 344/19/1
f 345/16/1 346/17/1 347/18/1 348/19/1
f 349/16/1 350/17/1 351/18/1 352/19/1
f 353/16/1 354/17/1 355/18/1 356/19/1
f 357/16/1 358/17/1 359/18/1 360/19/1
f 361/16/1 362/17/1 363/18/1 364/19/1
f 365/16/1 366/17/1 367/18/1 368/19/1
f 369/16/1 370/17/1 371/18/1 372/19/1
f 373/16/1 374/17/1 375/18/1 376/19/1
f 377/16/1 378/17/1 379/18/1 380/19/1
f 381/16/1 382/17/1 383/18/1 384/19/1
f 385/16/1 386/17/1 387/18/1 388/19/1
f 389/16/1 390/17/1 391/18/1 392/19/1
f 393/16/1 394/17/1 395/18/1 396/19/1
f 397/16/1 398/17/1 399/18/1 400/19/1
f 401/16/1 402/17/1 403/18/1 404/19/1
f 405/16/1 406/17/1 407/18/1 408/19/1
f 409/16/1 410/17/1 411/18/1 412/19/1
f 413/16/1 414/17/1 415/18/1 416/19/1
f 417/16/1 418/17/1 419/18/1 420/19/1
f 421/16/1 422/17/1 423/18/1 424/19/1
f 425/16/1 426/17/1 427/18/1 428/19/1
f 429/16/1 430/17/1 431/18/1 432/19/1
f 433/16/1 434/17/1 435/18/1 436/19/1
f 437/16/1 438/17/1 439/18/1 440/19/1
f 441/16/1 442/17/1 443/18/1 444/19/1
f 445/16/1 446/17/1 447/18/1 448/19/1
f 449/16/1 450/17/1 451/18/1 452/19/1
f 453/16/1 454/17/1 455/18/1 456/19/1
f 457/16/1 458/17/1 459/18/1 460/19/1
f 461/16/1 462/17/1 463/18/1 464/19/1
f 465/16/1 466/17/1 467/18/1 468/19/1
f 469/16/1 470/17/1 471/18/1 472/19/1
f 473/16/1 474/17/1 475/18/1 476/19/1
f 477/16/1 478/17/1 479/18/1 480/19/1
f 481/16/1 482/17/1 483/18/1 484/19/1
f 485/16/1 486/17/1 487/18/1 488/19/1
f 489/16/1 490/17/1 491/18/1 492/19/1
f 493/16/1 494/17/1 495/18/1 496/19/1
f 497/16/1 498/17/1 499/18/1 500/19/1
f 501/16/1 502/17/1 503/18/1 504/19/1
f 505/16/1 506/17/1 507/18/1 508/19/1
f 509/16/1 510/17/1 511/18/1 512/19/1
f 513/16/1 514/17/1 515/18/1 516/19/1
f 517/16/1 518/17/1 519/18/1 520/19/1
f 521/16/1 522/17/1 523/18/1 524/19/1
f 525/16/1 526/17/1 527/18/1 528/19/1
f 529/16/1 530/17/1 531/18/1 532/19/1
f 533/16/1 534/17/1 535/18/1 536/19/1

