# Tiled2Unity generated file. Do not modify by hand.
# Wavefront file for 'bosque_mesh_0002.obj'

# Vertices (Count = 880)
v 0 -8 0
v -8 -8 0
v -8 0 0
v 0 0 0
v -8 -8 0
v -16 -8 0
v -16 0 0
v -8 0 0
v -16 -8 0
v -24 -8 0
v -24 0 0
v -16 0 0
v -24 -8 0
v -32 -8 0
v -32 0 0
v -24 0 0
v -64 -8 0
v -72 -8 0
v -72 0 0
v -64 0 0
v -72 -8 0
v -80 -8 0
v -80 0 0
v -72 0 0
v -80 -8 0
v -88 -8 0
v -88 0 0
v -80 0 0
v -88 -8 0
v -96 -8 0
v -96 0 0
v -88 0 0
v -128 -8 0
v -136 -8 0
v -136 0 0
v -128 0 0
v -136 -8 0
v -144 -8 0
v -144 0 0
v -136 0 0
v -144 -8 0
v -152 -8 0
v -152 0 0
v -144 0 0
v -152 -8 0
v -160 -8 0
v -160 0 0
v -152 0 0
v 0 -16 0
v -8 -16 0
v -8 -8 0
v 0 -8 0
v -8 -16 0
v -16 -16 0
v -16 -8 0
v -8 -8 0
v -16 -16 0
v -24 -16 0
v -24 -8 0
v -16 -8 0
v -24 -16 0
v -32 -16 0
v -32 -8 0
v -24 -8 0
v -64 -16 0
v -72 -16 0
v -72 -8 0
v -64 -8 0
v -72 -16 0
v -80 -16 0
v -80 -8 0
v -72 -8 0
v -80 -16 0
v -88 -16 0
v -88 -8 0
v -80 -8 0
v -88 -16 0
v -96 -16 0
v -96 -8 0
v -88 -8 0
v -128 -16 0
v -136 -16 0
v -136 -8 0
v -128 -8 0
v -136 -16 0
v -144 -16 0
v -144 -8 0
v -136 -8 0
v -144 -16 0
v -152 -16 0
v -152 -8 0
v -144 -8 0
v -152 -16 0
v -160 -16 0
v -160 -8 0
v -152 -8 0
v 0 -24 0
v -8 -24 0
v -8 -16 0
v 0 -16 0
v -8 -24 0
v -16 -24 0
v -16 -16 0
v -8 -16 0
v -16 -24 0
v -24 -24 0
v -24 -16 0
v -16 -16 0
v -24 -24 0
v -32 -24 0
v -32 -16 0
v -24 -16 0
v -64 -24 0
v -72 -24 0
v -72 -16 0
v -64 -16 0
v -72 -24 0
v -80 -24 0
v -80 -16 0
v -72 -16 0
v -80 -24 0
v -88 -24 0
v -88 -16 0
v -80 -16 0
v -88 -24 0
v -96 -24 0
v -96 -16 0
v -88 -16 0
v -128 -24 0
v -136 -24 0
v -136 -16 0
v -128 -16 0
v -136 -24 0
v -144 -24 0
v -144 -16 0
v -136 -16 0
v -144 -24 0
v -152 -24 0
v -152 -16 0
v -144 -16 0
v -152 -24 0
v -160 -24 0
v -160 -16 0
v -152 -16 0
v -8 -32 0
v -16 -32 0
v -16 -24 0
v -8 -24 0
v -16 -32 0
v -24 -32 0
v -24 -24 0
v -16 -24 0
v -64 -32 0
v -72 -32 0
v -72 -24 0
v -64 -24 0
v -72 -32 0
v -80 -32 0
v -80 -24 0
v -72 -24 0
v -80 -32 0
v -88 -32 0
v -88 -24 0
v -80 -24 0
v -88 -32 0
v -96 -32 0
v -96 -24 0
v -88 -24 0
v -136 -32 0
v -144 -32 0
v -144 -24 0
v -136 -24 0
v -144 -32 0
v -152 -32 0
v -152 -24 0
v -144 -24 0
v 0 -40 0
v -8 -40 0
v -8 -32 0
v 0 -32 0
v -8 -40 0
v -16 -40 0
v -16 -32 0
v -8 -32 0
v -16 -40 0
v -24 -40 0
v -24 -32 0
v -16 -32 0
v -24 -40 0
v -32 -40 0
v -32 -32 0
v -24 -32 0
v -64 -40 0
v -72 -40 0
v -72 -32 0
v -64 -32 0
v -72 -40 0
v -80 -40 0
v -80 -32 0
v -72 -32 0
v -80 -40 0
v -88 -40 0
v -88 -32 0
v -80 -32 0
v -88 -40 0
v -96 -40 0
v -96 -32 0
v -88 -32 0
v -128 -40 0
v -136 -40 0
v -136 -32 0
v -128 -32 0
v -136 -40 0
v -144 -40 0
v -144 -32 0
v -136 -32 0
v -144 -40 0
v -152 -40 0
v -152 -32 0
v -144 -32 0
v -152 -40 0
v -160 -40 0
v -160 -32 0
v -152 -32 0
v 0 -48 0
v -8 -48 0
v -8 -40 0
v 0 -40 0
v -8 -48 0
v -16 -48 0
v -16 -40 0
v -8 -40 0
v -16 -48 0
v -24 -48 0
v -24 -40 0
v -16 -40 0
v -24 -48 0
v -32 -48 0
v -32 -40 0
v -24 -40 0
v -64 -48 0
v -72 -48 0
v -72 -40 0
v -64 -40 0
v -72 -48 0
v -80 -48 0
v -80 -40 0
v -72 -40 0
v -80 -48 0
v -88 -48 0
v -88 -40 0
v -80 -40 0
v -88 -48 0
v -96 -48 0
v -96 -40 0
v -88 -40 0
v -128 -48 0
v -136 -48 0
v -136 -40 0
v -128 -40 0
v -136 -48 0
v -144 -48 0
v -144 -40 0
v -136 -40 0
v -144 -48 0
v -152 -48 0
v -152 -40 0
v -144 -40 0
v -152 -48 0
v -160 -48 0
v -160 -40 0
v -152 -40 0
v 0 -56 0
v -8 -56 0
v -8 -48 0
v 0 -48 0
v -8 -56 0
v -16 -56 0
v -16 -48 0
v -8 -48 0
v -16 -56 0
v -24 -56 0
v -24 -48 0
v -16 -48 0
v -24 -56 0
v -32 -56 0
v -32 -48 0
v -24 -48 0
v -64 -56 0
v -72 -56 0
v -72 -48 0
v -64 -48 0
v -72 -56 0
v -80 -56 0
v -80 -48 0
v -72 -48 0
v -80 -56 0
v -88 -56 0
v -88 -48 0
v -80 -48 0
v -88 -56 0
v -96 -56 0
v -96 -48 0
v -88 -48 0
v -128 -56 0
v -136 -56 0
v -136 -48 0
v -128 -48 0
v -136 -56 0
v -144 -56 0
v -144 -48 0
v -136 -48 0
v -144 -56 0
v -152 -56 0
v -152 -48 0
v -144 -48 0
v -152 -56 0
v -160 -56 0
v -160 -48 0
v -152 -48 0
v -8 -64 0
v -16 -64 0
v -16 -56 0
v -8 -56 0
v -16 -64 0
v -24 -64 0
v -24 -56 0
v -16 -56 0
v -64 -64 0
v -72 -64 0
v -72 -56 0
v -64 -56 0
v -72 -64 0
v -80 -64 0
v -80 -56 0
v -72 -56 0
v -80 -64 0
v -88 -64 0
v -88 -56 0
v -80 -56 0
v -88 -64 0
v -96 -64 0
v -96 -56 0
v -88 -56 0
v -136 -64 0
v -144 -64 0
v -144 -56 0
v -136 -56 0
v -144 -64 0
v -152 -64 0
v -152 -56 0
v -144 -56 0
v 0 -72 0
v -8 -72 0
v -8 -64 0
v 0 -64 0
v -8 -72 0
v -16 -72 0
v -16 -64 0
v -8 -64 0
v -16 -72 0
v -24 -72 0
v -24 -64 0
v -16 -64 0
v -24 -72 0
v -32 -72 0
v -32 -64 0
v -24 -64 0
v -64 -72 0
v -72 -72 0
v -72 -64 0
v -64 -64 0
v -72 -72 0
v -80 -72 0
v -80 -64 0
v -72 -64 0
v -80 -72 0
v -88 -72 0
v -88 -64 0
v -80 -64 0
v -88 -72 0
v -96 -72 0
v -96 -64 0
v -88 -64 0
v 0 -80 0
v -8 -80 0
v -8 -72 0
v 0 -72 0
v -8 -80 0
v -16 -80 0
v -16 -72 0
v -8 -72 0
v -16 -80 0
v -24 -80 0
v -24 -72 0
v -16 -72 0
v -24 -80 0
v -32 -80 0
v -32 -72 0
v -24 -72 0
v -64 -80 0
v -72 -80 0
v -72 -72 0
v -64 -72 0
v -72 -80 0
v -80 -80 0
v -80 -72 0
v -72 -72 0
v -80 -80 0
v -88 -80 0
v -88 -72 0
v -80 -72 0
v -88 -80 0
v -96 -80 0
v -96 -72 0
v -88 -72 0
v -128 -80 0
v -136 -80 0
v -136 -72 0
v -128 -72 0
v -136 -80 0
v -144 -80 0
v -144 -72 0
v -136 -72 0
v -144 -80 0
v -152 -80 0
v -152 -72 0
v -144 -72 0
v -152 -80 0
v -160 -80 0
v -160 -72 0
v -152 -72 0
v 0 -88 0
v -8 -88 0
v -8 -80 0
v 0 -80 0
v -8 -88 0
v -16 -88 0
v -16 -80 0
v -8 -80 0
v -16 -88 0
v -24 -88 0
v -24 -80 0
v -16 -80 0
v -24 -88 0
v -32 -88 0
v -32 -80 0
v -24 -80 0
v -64 -88 0
v -72 -88 0
v -72 -80 0
v -64 -80 0
v -72 -88 0
v -80 -88 0
v -80 -80 0
v -72 -80 0
v -80 -88 0
v -88 -88 0
v -88 -80 0
v -80 -80 0
v -88 -88 0
v -96 -88 0
v -96 -80 0
v -88 -80 0
v -128 -88 0
v -136 -88 0
v -136 -80 0
v -128 -80 0
v -136 -88 0
v -144 -88 0
v -144 -80 0
v -136 -80 0
v -144 -88 0
v -152 -88 0
v -152 -80 0
v -144 -80 0
v -152 -88 0
v -160 -88 0
v -160 -80 0
v -152 -80 0
v -8 -96 0
v -16 -96 0
v -16 -88 0
v -8 -88 0
v -16 -96 0
v -24 -96 0
v -24 -88 0
v -16 -88 0
v -64 -96 0
v -72 -96 0
v -72 -88 0
v -64 -88 0
v -72 -96 0
v -80 -96 0
v -80 -88 0
v -72 -88 0
v -80 -96 0
v -88 -96 0
v -88 -88 0
v -80 -88 0
v -88 -96 0
v -96 -96 0
v -96 -88 0
v -88 -88 0
v -128 -96 0
v -136 -96 0
v -136 -88 0
v -128 -88 0
v -136 -96 0
v -144 -96 0
v -144 -88 0
v -136 -88 0
v -144 -96 0
v -152 -96 0
v -152 -88 0
v -144 -88 0
v -152 -96 0
v -160 -96 0
v -160 -88 0
v -152 -88 0
v 0 -104 0
v -8 -104 0
v -8 -96 0
v 0 -96 0
v -8 -104 0
v -16 -104 0
v -16 -96 0
v -8 -96 0
v -16 -104 0
v -24 -104 0
v -24 -96 0
v -16 -96 0
v -24 -104 0
v -32 -104 0
v -32 -96 0
v -24 -96 0
v -64 -104 0
v -72 -104 0
v -72 -96 0
v -64 -96 0
v -72 -104 0
v -80 -104 0
v -80 -96 0
v -72 -96 0
v -80 -104 0
v -88 -104 0
v -88 -96 0
v -80 -96 0
v -88 -104 0
v -96 -104 0
v -96 -96 0
v -88 -96 0
v -136 -104 0
v -144 -104 0
v -144 -96 0
v -136 -96 0
v -144 -104 0
v -152 -104 0
v -152 -96 0
v -144 -96 0
v 0 -112 0
v -8 -112 0
v -8 -104 0
v 0 -104 0
v -8 -112 0
v -16 -112 0
v -16 -104 0
v -8 -104 0
v -16 -112 0
v -24 -112 0
v -24 -104 0
v -16 -104 0
v -24 -112 0
v -32 -112 0
v -32 -104 0
v -24 -104 0
v -64 -112 0
v -72 -112 0
v -72 -104 0
v -64 -104 0
v -72 -112 0
v -80 -112 0
v -80 -104 0
v -72 -104 0
v -80 -112 0
v -88 -112 0
v -88 -104 0
v -80 -104 0
v -88 -112 0
v -96 -112 0
v -96 -104 0
v -88 -104 0
v -128 -112 0
v -136 -112 0
v -136 -104 0
v -128 -104 0
v -136 -112 0
v -144 -112 0
v -144 -104 0
v -136 -104 0
v -144 -112 0
v -152 -112 0
v -152 -104 0
v -144 -104 0
v -152 -112 0
v -160 -112 0
v -160 -104 0
v -152 -104 0
v 0 -120 0
v -8 -120 0
v -8 -112 0
v 0 -112 0
v -8 -120 0
v -16 -120 0
v -16 -112 0
v -8 -112 0
v -16 -120 0
v -24 -120 0
v -24 -112 0
v -16 -112 0
v -24 -120 0
v -32 -120 0
v -32 -112 0
v -24 -112 0
v -64 -120 0
v -72 -120 0
v -72 -112 0
v -64 -112 0
v -72 -120 0
v -80 -120 0
v -80 -112 0
v -72 -112 0
v -80 -120 0
v -88 -120 0
v -88 -112 0
v -80 -112 0
v -88 -120 0
v -96 -120 0
v -96 -112 0
v -88 -112 0
v -128 -120 0
v -136 -120 0
v -136 -112 0
v -128 -112 0
v -136 -120 0
v -144 -120 0
v -144 -112 0
v -136 -112 0
v -144 -120 0
v -152 -120 0
v -152 -112 0
v -144 -112 0
v -152 -120 0
v -160 -120 0
v -160 -112 0
v -152 -112 0
v -8 -128 0
v -16 -128 0
v -16 -120 0
v -8 -120 0
v -16 -128 0
v -24 -128 0
v -24 -120 0
v -16 -120 0
v -64 -128 0
v -72 -128 0
v -72 -120 0
v -64 -120 0
v -72 -128 0
v -80 -128 0
v -80 -120 0
v -72 -120 0
v -80 -128 0
v -88 -128 0
v -88 -120 0
v -80 -120 0
v -88 -128 0
v -96 -128 0
v -96 -120 0
v -88 -120 0
v -128 -128 0
v -136 -128 0
v -136 -120 0
v -128 -120 0
v -136 -128 0
v -144 -128 0
v -144 -120 0
v -136 -120 0
v -144 -128 0
v -152 -128 0
v -152 -120 0
v -144 -120 0
v -152 -128 0
v -160 -128 0
v -160 -120 0
v -152 -120 0
v 0 -136 0
v -8 -136 0
v -8 -128 0
v 0 -128 0
v -8 -136 0
v -16 -136 0
v -16 -128 0
v -8 -128 0
v -16 -136 0
v -24 -136 0
v -24 -128 0
v -16 -128 0
v -24 -136 0
v -32 -136 0
v -32 -128 0
v -24 -128 0
v -64 -136 0
v -72 -136 0
v -72 -128 0
v -64 -128 0
v -72 -136 0
v -80 -136 0
v -80 -128 0
v -72 -128 0
v -80 -136 0
v -88 -136 0
v -88 -128 0
v -80 -128 0
v -88 -136 0
v -96 -136 0
v -96 -128 0
v -88 -128 0
v -128 -136 0
v -136 -136 0
v -136 -128 0
v -128 -128 0
v -136 -136 0
v -144 -136 0
v -144 -128 0
v -136 -128 0
v -144 -136 0
v -152 -136 0
v -152 -128 0
v -144 -128 0
v -152 -136 0
v -160 -136 0
v -160 -128 0
v -152 -128 0
v 0 -144 0
v -8 -144 0
v -8 -136 0
v 0 -136 0
v -8 -144 0
v -16 -144 0
v -16 -136 0
v -8 -136 0
v -16 -144 0
v -24 -144 0
v -24 -136 0
v -16 -136 0
v -24 -144 0
v -32 -144 0
v -32 -136 0
v -24 -136 0
v -64 -144 0
v -72 -144 0
v -72 -136 0
v -64 -136 0
v -72 -144 0
v -80 -144 0
v -80 -136 0
v -72 -136 0
v -80 -144 0
v -88 -144 0
v -88 -136 0
v -80 -136 0
v -88 -144 0
v -96 -144 0
v -96 -136 0
v -88 -136 0
v -128 -144 0
v -136 -144 0
v -136 -136 0
v -128 -136 0
v -136 -144 0
v -144 -144 0
v -144 -136 0
v -136 -136 0
v -144 -144 0
v -152 -144 0
v -152 -136 0
v -144 -136 0
v -152 -144 0
v -160 -144 0
v -160 -136 0
v -152 -136 0
v 0 -152 0
v -8 -152 0
v -8 -144 0
v 0 -144 0
v -8 -152 0
v -16 -152 0
v -16 -144 0
v -8 -144 0
v -16 -152 0
v -24 -152 0
v -24 -144 0
v -16 -144 0
v -24 -152 0
v -32 -152 0
v -32 -144 0
v -24 -144 0
v -64 -152 0
v -72 -152 0
v -72 -144 0
v -64 -144 0
v -72 -152 0
v -80 -152 0
v -80 -144 0
v -72 -144 0
v -80 -152 0
v -88 -152 0
v -88 -144 0
v -80 -144 0
v -88 -152 0
v -96 -152 0
v -96 -144 0
v -88 -144 0
v -128 -152 0
v -136 -152 0
v -136 -144 0
v -128 -144 0
v -136 -152 0
v -144 -152 0
v -144 -144 0
v -136 -144 0
v -144 -152 0
v -152 -152 0
v -152 -144 0
v -144 -144 0
v -152 -152 0
v -160 -152 0
v -160 -144 0
v -152 -144 0
v -8 -160 0
v -16 -160 0
v -16 -152 0
v -8 -152 0
v -16 -160 0
v -24 -160 0
v -24 -152 0
v -16 -152 0
v -64 -160 0
v -72 -160 0
v -72 -152 0
v -64 -152 0
v -72 -160 0
v -80 -160 0
v -80 -152 0
v -72 -152 0
v -80 -160 0
v -88 -160 0
v -88 -152 0
v -80 -152 0
v -88 -160 0
v -96 -160 0
v -96 -152 0
v -88 -152 0
v -128 -160 0
v -136 -160 0
v -136 -152 0
v -128 -152 0
v -136 -160 0
v -144 -160 0
v -144 -152 0
v -136 -152 0
v -144 -160 0
v -152 -160 0
v -152 -152 0
v -144 -152 0
v -152 -160 0
v -160 -160 0
v -160 -152 0
v -152 -152 0

# Texture cooridinates (Count = 93)
vt 0.5 0.9990698
vt 0.53125 0.9990698
vt 0.53125 1
vt 0.5 1
vt 0.5625 0.9990698
vt 0.5625 1
vt 0.59375 0.9990698
vt 0.59375 1
vt 0.625 0.9990698
vt 0.625 1
vt 0.4375 0.9767442
vt 0.46875 0.9767442
vt 0.46875 0.9776744
vt 0.4375 0.9776744
vt 0.5 0.9767442
vt 0.5 0.9776744
vt 0.53125 0.9767442
vt 0.53125 0.9776744
vt 0.5625 0.9767442
vt 0.5625 0.9776744
vt 0.5 0.9981396
vt 0.53125 0.9981396
vt 0.5625 0.9981396
vt 0.59375 0.9981396
vt 0.625 0.9981396
vt 0.4375 0.9758139
vt 0.46875 0.9758139
vt 0.5 0.9758139
vt 0.53125 0.9758139
vt 0.5625 0.9758139
vt 0.5 0.9972093
vt 0.53125 0.9972093
vt 0.5625 0.9972093
vt 0.59375 0.9972093
vt 0.625 0.9972093
vt 0.4375 0.9748837
vt 0.46875 0.9748837
vt 0.5 0.9748837
vt 0.53125 0.9748837
vt 0.5625 0.9748837
vt 0.53125 0.9962791
vt 0.5625 0.9962791
vt 0.59375 0.9962791
vt 0.4375 0.9739535
vt 0.46875 0.9739535
vt 0.5 0.9739535
vt 0.53125 0.9739535
vt 0.5625 0.9739535
vt 0.4375 0.9730232
vt 0.46875 0.9730232
vt 0.5 0.9730232
vt 0.53125 0.9730232
vt 0.5625 0.9730232
vt 0.4375 0.972093
vt 0.46875 0.972093
vt 0.5 0.972093
vt 0.53125 0.972093
vt 0.5625 0.972093
vt 0.4375 0.9711628
vt 0.46875 0.9711628
vt 0.5 0.9711628
vt 0.53125 0.9711628
vt 0.5625 0.9711628
vt 0.4375 0.9702325
vt 0.46875 0.9702325
vt 0.5 0.9702325
vt 0.53125 0.9702325
vt 0.5625 0.9702325
vt 0.75 0.9841861
vt 0.78125 0.9841861
vt 0.78125 0.9851163
vt 0.75 0.9851163
vt 0.8125 0.9841861
vt 0.8125 0.9851163
vt 0.84375 0.9841861
vt 0.84375 0.9851163
vt 0.875 0.9841861
vt 0.875 0.9851163
vt 0.75 0.9832558
vt 0.78125 0.9832558
vt 0.8125 0.9832558
vt 0.84375 0.9832558
vt 0.875 0.9832558
vt 0.75 0.9823256
vt 0.78125 0.9823256
vt 0.8125 0.9823256
vt 0.84375 0.9823256
vt 0.875 0.9823256
vt 0.75 0.9813954
vt 0.78125 0.9813954
vt 0.8125 0.9813954
vt 0.84375 0.9813954
vt 0.875 0.9813954

# Normal
vn 0 0 -1

# Mesh description
g bosque_mesh_0002

# Faces
f 1/1/1 2/2/1 3/3/1 4/4/1
f 5/2/1 6/5/1 7/6/1 8/3/1
f 9/5/1 10/7/1 11/8/1 12/6/1
f 13/7/1 14/9/1 15/10/1 16/8/1
f 17/11/1 18/12/1 19/13/1 20/14/1
f 21/12/1 22/15/1 23/16/1 24/13/1
f 25/15/1 26/17/1 27/18/1 28/16/1
f 29/17/1 30/19/1 31/20/1 32/18/1
f 33/1/1 34/2/1 35/3/1 36/4/1
f 37/2/1 38/5/1 39/6/1 40/3/1
f 41/5/1 42/7/1 43/8/1 44/6/1
f 45/7/1 46/9/1 47/10/1 48/8/1
f 49/21/1 50/22/1 51/2/1 52/1/1
f 53/22/1 54/23/1 55/5/1 56/2/1
f 57/23/1 58/24/1 59/7/1 60/5/1
f 61/24/1 62/25/1 63/9/1 64/7/1
f 65/26/1 66/27/1 67/12/1 68/11/1
f 69/27/1 70/28/1 71/15/1 72/12/1
f 73/28/1 74/29/1 75/17/1 76/15/1
f 77/29/1 78/30/1 79/19/1 80/17/1
f 81/21/1 82/22/1 83/2/1 84/1/1
f 85/22/1 86/23/1 87/5/1 88/2/1
f 89/23/1 90/24/1 91/7/1 92/5/1
f 93/24/1 94/25/1 95/9/1 96/7/1
f 97/31/1 98/32/1 99/22/1 100/21/1
f 101/32/1 102/33/1 103/23/1 104/22/1
f 105/33/1 106/34/1 107/24/1 108/23/1
f 109/34/1 110/35/1 111/25/1 112/24/1
f 113/36/1 114/37/1 115/27/1 116/26/1
f 117/37/1 118/38/1 119/28/1 120/27/1
f 121/38/1 122/39/1 123/29/1 124/28/1
f 125/39/1 126/40/1 127/30/1 128/29/1
f 129/31/1 130/32/1 131/22/1 132/21/1
f 133/32/1 134/33/1 135/23/1 136/22/1
f 137/33/1 138/34/1 139/24/1 140/23/1
f 141/34/1 142/35/1 143/25/1 144/24/1
f 145/41/1 146/42/1 147/33/1 148/32/1
f 149/42/1 150/43/1 151/34/1 152/33/1
f 153/44/1 154/45/1 155/37/1 156/36/1
f 157/45/1 158/46/1 159/38/1 160/37/1
f 161/46/1 162/47/1 163/39/1 164/38/1
f 165/47/1 166/48/1 167/40/1 168/39/1
f 169/41/1 170/42/1 171/33/1 172/32/1
f 173/42/1 174/43/1 175/34/1 176/33/1
f 177/1/1 178/2/1 179/3/1 180/4/1
f 181/2/1 182/5/1 183/6/1 184/3/1
f 185/5/1 186/7/1 187/8/1 188/6/1
f 189/7/1 190/9/1 191/10/1 192/8/1
f 193/49/1 194/50/1 195/45/1 196/44/1
f 197/50/1 198/51/1 199/46/1 200/45/1
f 201/51/1 202/52/1 203/47/1 204/46/1
f 205/52/1 206/53/1 207/48/1 208/47/1
f 209/1/1 210/2/1 211/3/1 212/4/1
f 213/2/1 214/5/1 215/6/1 216/3/1
f 217/5/1 218/7/1 219/8/1 220/6/1
f 221/7/1 222/9/1 223/10/1 224/8/1
f 225/21/1 226/22/1 227/2/1 228/1/1
f 229/22/1 230/23/1 231/5/1 232/2/1
f 233/23/1 234/24/1 235/7/1 236/5/1
f 237/24/1 238/25/1 239/9/1 240/7/1
f 241/54/1 242/55/1 243/50/1 244/49/1
f 245/55/1 246/56/1 247/51/1 248/50/1
f 249/56/1 250/57/1 251/52/1 252/51/1
f 253/57/1 254/58/1 255/53/1 256/52/1
f 257/21/1 258/22/1 259/2/1 260/1/1
f 261/22/1 262/23/1 263/5/1 264/2/1
f 265/23/1 266/24/1 267/7/1 268/5/1
f 269/24/1 270/25/1 271/9/1 272/7/1
f 273/31/1 274/32/1 275/22/1 276/21/1
f 277/32/1 278/33/1 279/23/1 280/22/1
f 281/33/1 282/34/1 283/24/1 284/23/1
f 285/34/1 286/35/1 287/25/1 288/24/1
f 289/59/1 290/60/1 291/55/1 292/54/1
f 293/60/1 294/61/1 295/56/1 296/55/1
f 297/61/1 298/62/1 299/57/1 300/56/1
f 301/62/1 302/63/1 303/58/1 304/57/1
f 305/31/1 306/32/1 307/22/1 308/21/1
f 309/32/1 310/33/1 311/23/1 312/22/1
f 313/33/1 314/34/1 315/24/1 316/23/1
f 317/34/1 318/35/1 319/25/1 320/24/1
f 321/41/1 322/42/1 323/33/1 324/32/1
f 325/42/1 326/43/1 327/34/1 328/33/1
f 329/64/1 330/65/1 331/60/1 332/59/1
f 333/65/1 334/66/1 335/61/1 336/60/1
f 337/66/1 338/67/1 339/62/1 340/61/1
f 341/67/1 342/68/1 343/63/1 344/62/1
f 345/41/1 346/42/1 347/33/1 348/32/1
f 349/42/1 350/43/1 351/34/1 352/33/1
f 353/1/1 354/2/1 355/3/1 356/4/1
f 357/2/1 358/5/1 359/6/1 360/3/1
f 361/5/1 362/7/1 363/8/1 364/6/1
f 365/7/1 366/9/1 367/10/1 368/8/1
f 369/11/1 370/12/1 371/13/1 372/14/1
f 373/12/1 374/15/1 375/16/1 376/13/1
f 377/15/1 378/17/1 379/18/1 380/16/1
f 381/17/1 382/19/1 383/20/1 384/18/1
f 385/21/1 386/22/1 387/2/1 388/1/1
f 389/22/1 390/23/1 391/5/1 392/2/1
f 393/23/1 394/24/1 395/7/1 396/5/1
f 397/24/1 398/25/1 399/9/1 400/7/1
f 401/26/1 402/27/1 403/12/1 404/11/1
f 405/27/1 406/28/1 407/15/1 408/12/1
f 409/28/1 410/29/1 411/17/1 412/15/1
f 413/29/1 414/30/1 415/19/1 416/17/1
f 417/1/1 418/2/1 419/3/1 420/4/1
f 421/2/1 422/5/1 423/6/1 424/3/1
f 425/5/1 426/7/1 427/8/1 428/6/1
f 429/7/1 430/9/1 431/10/1 432/8/1
f 433/31/1 434/32/1 435/22/1 436/21/1
f 437/32/1 438/33/1 439/23/1 440/22/1
f 441/33/1 442/34/1 443/24/1 444/23/1
f 445/34/1 446/35/1 447/25/1 448/24/1
f 449/36/1 450/37/1 451/27/1 452/26/1
f 453/37/1 454/38/1 455/28/1 456/27/1
f 457/38/1 458/39/1 459/29/1 460/28/1
f 461/39/1 462/40/1 463/30/1 464/29/1
f 465/21/1 466/22/1 467/2/1 468/1/1
f 469/22/1 470/23/1 471/5/1 472/2/1
f 473/23/1 474/24/1 475/7/1 476/5/1
f 477/24/1 478/25/1 479/9/1 480/7/1
f 481/41/1 482/42/1 483/33/1 484/32/1
f 485/42/1 486/43/1 487/34/1 488/33/1
f 489/44/1 490/45/1 491/37/1 492/36/1
f 493/45/1 494/46/1 495/38/1 496/37/1
f 497/46/1 498/47/1 499/39/1 500/38/1
f 501/47/1 502/48/1 503/40/1 504/39/1
f 505/31/1 506/32/1 507/22/1 508/21/1
f 509/32/1 510/33/1 511/23/1 512/22/1
f 513/33/1 514/34/1 515/24/1 516/23/1
f 517/34/1 518/35/1 519/25/1 520/24/1
f 521/1/1 522/2/1 523/3/1 524/4/1
f 525/2/1 526/5/1 527/6/1 528/3/1
f 529/5/1 530/7/1 531/8/1 532/6/1
f 533/7/1 534/9/1 535/10/1 536/8/1
f 537/11/1 538/12/1 539/13/1 540/14/1
f 541/12/1 542/15/1 543/16/1 544/13/1
f 545/15/1 546/17/1 547/18/1 548/16/1
f 549/17/1 550/19/1 551/20/1 552/18/1
f 553/41/1 554/42/1 555/33/1 556/32/1
f 557/42/1 558/43/1 559/34/1 560/33/1
f 561/21/1 562/22/1 563/2/1 564/1/1
f 565/22/1 566/23/1 567/5/1 568/2/1
f 569/23/1 570/24/1 571/7/1 572/5/1
f 573/24/1 574/25/1 575/9/1 576/7/1
f 577/26/1 578/27/1 579/12/1 580/11/1
f 581/27/1 582/28/1 583/15/1 584/12/1
f 585/28/1 586/29/1 587/17/1 588/15/1
f 589/29/1 590/30/1 591/19/1 592/17/1
f 593/1/1 594/2/1 595/3/1 596/4/1
f 597/2/1 598/5/1 599/6/1 600/3/1
f 601/5/1 602/7/1 603/8/1 604/6/1
f 605/7/1 606/9/1 607/10/1 608/8/1
f 609/31/1 610/32/1 611/22/1 612/21/1
f 613/32/1 614/33/1 615/23/1 616/22/1
f 617/33/1 618/34/1 619/24/1 620/23/1
f 621/34/1 622/35/1 623/25/1 624/24/1
f 625/36/1 626/37/1 627/27/1 628/26/1
f 629/37/1 630/38/1 631/28/1 632/27/1
f 633/38/1 634/39/1 635/29/1 636/28/1
f 637/39/1 638/40/1 639/30/1 640/29/1
f 641/21/1 642/22/1 643/2/1 644/1/1
f 645/22/1 646/23/1 647/5/1 648/2/1
f 649/23/1 650/24/1 651/7/1 652/5/1
f 653/24/1 654/25/1 655/9/1 656/7/1
f 657/41/1 658/42/1 659/33/1 660/32/1
f 661/42/1 662/43/1 663/34/1 664/33/1
f 665/44/1 666/45/1 667/37/1 668/36/1
f 669/45/1 670/46/1 671/38/1 672/37/1
f 673/46/1 674/47/1 675/39/1 676/38/1
f 677/47/1 678/48/1 679/40/1 680/39/1
f 681/31/1 682/32/1 683/22/1 684/21/1
f 685/32/1 686/33/1 687/23/1 688/22/1
f 689/33/1 690/34/1 691/24/1 692/23/1
f 693/34/1 694/35/1 695/25/1 696/24/1
f 697/1/1 698/2/1 699/3/1 700/4/1
f 701/2/1 702/5/1 703/6/1 704/3/1
f 705/5/1 706/7/1 707/8/1 708/6/1
f 709/7/1 710/9/1 711/10/1 712/8/1
f 713/49/1 714/50/1 715/45/1 716/44/1
f 717/50/1 718/51/1 719/46/1 720/45/1
f 721/51/1 722/52/1 723/47/1 724/46/1
f 725/52/1 726/53/1 727/48/1 728/47/1
f 729/69/1 730/70/1 731/71/1 732/72/1
f 733/70/1 734/73/1 735/74/1 736/71/1
f 737/73/1 738/75/1 739/76/1 740/74/1
f 741/75/1 742/77/1 743/78/1 744/76/1
f 745/21/1 746/22/1 747/2/1 748/1/1
f 749/22/1 750/23/1 751/5/1 752/2/1
f 753/23/1 754/24/1 755/7/1 756/5/1
f 757/24/1 758/25/1 759/9/1 760/7/1
f 761/54/1 762/55/1 763/50/1 764/49/1
f 765/55/1 766/56/1 767/51/1 768/50/1
f 769/56/1 770/57/1 771/52/1 772/51/1
f 773/57/1 774/58/1 775/53/1 776/52/1
f 777/79/1 778/80/1 779/70/1 780/69/1
f 781/80/1 782/81/1 783/73/1 784/70/1
f 785/81/1 786/82/1 787/75/1 788/73/1
f 789/82/1 790/83/1 791/77/1 792/75/1
f 793/31/1 794/32/1 795/22/1 796/21/1
f 797/32/1 798/33/1 799/23/1 800/22/1
f 801/33/1 802/34/1 803/24/1 804/23/1
f 805/34/1 806/35/1 807/25/1 808/24/1
f 809/59/1 810/60/1 811/55/1 812/54/1
f 813/60/1 814/61/1 815/56/1 816/55/1
f 817/61/1 818/62/1 819/57/1 820/56/1
f 821/62/1 822/63/1 823/58/1 824/57/1
f 825/84/1 826/85/1 827/80/1 828/79/1
f 829/85/1 830/86/1 831/81/1 832/80/1
f 833/86/1 834/87/1 835/82/1 836/81/1
f 837/87/1 838/88/1 839/83/1 840/82/1
f 841/41/1 842/42/1 843/33/1 844/32/1
f 845/42/1 846/43/1 847/34/1 848/33/1
f 849/64/1 850/65/1 851/60/1 852/59/1
f 853/65/1 854/66/1 855/61/1 856/60/1
f 857/66/1 858/67/1 859/62/1 860/61/1
f 861/67/1 862/68/1 863/63/1 864/62/1
f 865/89/1 866/90/1 867/85/1 868/84/1
f 869/90/1 870/91/1 871/86/1 872/85/1
f 873/91/1 874/92/1 875/87/1 876/86/1
f 877/92/1 878/93/1 879/88/1 880/87/1

