# Tiled2Unity generated file. Do not modify by hand.
# Wavefront file for 'bosque_mesh_0004.obj'

# Vertices (Count = 700)
v -24 -8 0
v -32 -8 0
v -32 0 0
v -24 0 0
v -32 -8 0
v -40 -8 0
v -40 0 0
v -32 0 0
v -40 -8 0
v -48 -8 0
v -48 0 0
v -40 0 0
v -48 -8 0
v -56 -8 0
v -56 0 0
v -48 0 0
v -56 -8 0
v -64 -8 0
v -64 0 0
v -56 0 0
v -104 -8 0
v -112 -8 0
v -112 0 0
v -104 0 0
v -112 -8 0
v -120 -8 0
v -120 0 0
v -112 0 0
v -120 -8 0
v -128 -8 0
v -128 0 0
v -120 0 0
v -128 -8 0
v -136 -8 0
v -136 0 0
v -128 0 0
v -24 -16 0
v -32 -16 0
v -32 -8 0
v -24 -8 0
v -32 -16 0
v -40 -16 0
v -40 -8 0
v -32 -8 0
v -40 -16 0
v -48 -16 0
v -48 -8 0
v -40 -8 0
v -48 -16 0
v -56 -16 0
v -56 -8 0
v -48 -8 0
v -56 -16 0
v -64 -16 0
v -64 -8 0
v -56 -8 0
v -104 -16 0
v -112 -16 0
v -112 -8 0
v -104 -8 0
v -112 -16 0
v -120 -16 0
v -120 -8 0
v -112 -8 0
v -120 -16 0
v -128 -16 0
v -128 -8 0
v -120 -8 0
v -128 -16 0
v -136 -16 0
v -136 -8 0
v -128 -8 0
v -24 -24 0
v -32 -24 0
v -32 -16 0
v -24 -16 0
v -32 -24 0
v -40 -24 0
v -40 -16 0
v -32 -16 0
v -40 -24 0
v -48 -24 0
v -48 -16 0
v -40 -16 0
v -48 -24 0
v -56 -24 0
v -56 -16 0
v -48 -16 0
v -56 -24 0
v -64 -24 0
v -64 -16 0
v -56 -16 0
v -104 -24 0
v -112 -24 0
v -112 -16 0
v -104 -16 0
v -112 -24 0
v -120 -24 0
v -120 -16 0
v -112 -16 0
v -120 -24 0
v -128 -24 0
v -128 -16 0
v -120 -16 0
v -128 -24 0
v -136 -24 0
v -136 -16 0
v -128 -16 0
v -24 -32 0
v -32 -32 0
v -32 -24 0
v -24 -24 0
v -32 -32 0
v -40 -32 0
v -40 -24 0
v -32 -24 0
v -40 -32 0
v -48 -32 0
v -48 -24 0
v -40 -24 0
v -48 -32 0
v -56 -32 0
v -56 -24 0
v -48 -24 0
v -56 -32 0
v -64 -32 0
v -64 -24 0
v -56 -24 0
v -104 -32 0
v -112 -32 0
v -112 -24 0
v -104 -24 0
v -112 -32 0
v -120 -32 0
v -120 -24 0
v -112 -24 0
v -120 -32 0
v -128 -32 0
v -128 -24 0
v -120 -24 0
v -128 -32 0
v -136 -32 0
v -136 -24 0
v -128 -24 0
v -24 -40 0
v -32 -40 0
v -32 -32 0
v -24 -32 0
v -32 -40 0
v -40 -40 0
v -40 -32 0
v -32 -32 0
v -40 -40 0
v -48 -40 0
v -48 -32 0
v -40 -32 0
v -48 -40 0
v -56 -40 0
v -56 -32 0
v -48 -32 0
v -56 -40 0
v -64 -40 0
v -64 -32 0
v -56 -32 0
v -104 -40 0
v -112 -40 0
v -112 -32 0
v -104 -32 0
v -112 -40 0
v -120 -40 0
v -120 -32 0
v -112 -32 0
v -120 -40 0
v -128 -40 0
v -128 -32 0
v -120 -32 0
v -128 -40 0
v -136 -40 0
v -136 -32 0
v -128 -32 0
v -24 -48 0
v -32 -48 0
v -32 -40 0
v -24 -40 0
v -32 -48 0
v -40 -48 0
v -40 -40 0
v -32 -40 0
v -40 -48 0
v -48 -48 0
v -48 -40 0
v -40 -40 0
v -48 -48 0
v -56 -48 0
v -56 -40 0
v -48 -40 0
v -56 -48 0
v -64 -48 0
v -64 -40 0
v -56 -40 0
v -104 -48 0
v -112 -48 0
v -112 -40 0
v -104 -40 0
v -112 -48 0
v -120 -48 0
v -120 -40 0
v -112 -40 0
v -120 -48 0
v -128 -48 0
v -128 -40 0
v -120 -40 0
v -128 -48 0
v -136 -48 0
v -136 -40 0
v -128 -40 0
v -24 -56 0
v -32 -56 0
v -32 -48 0
v -24 -48 0
v -32 -56 0
v -40 -56 0
v -40 -48 0
v -32 -48 0
v -40 -56 0
v -48 -56 0
v -48 -48 0
v -40 -48 0
v -48 -56 0
v -56 -56 0
v -56 -48 0
v -48 -48 0
v -56 -56 0
v -64 -56 0
v -64 -48 0
v -56 -48 0
v -104 -56 0
v -112 -56 0
v -112 -48 0
v -104 -48 0
v -112 -56 0
v -120 -56 0
v -120 -48 0
v -112 -48 0
v -120 -56 0
v -128 -56 0
v -128 -48 0
v -120 -48 0
v -128 -56 0
v -136 -56 0
v -136 -48 0
v -128 -48 0
v -24 -64 0
v -32 -64 0
v -32 -56 0
v -24 -56 0
v -32 -64 0
v -40 -64 0
v -40 -56 0
v -32 -56 0
v -40 -64 0
v -48 -64 0
v -48 -56 0
v -40 -56 0
v -48 -64 0
v -56 -64 0
v -56 -56 0
v -48 -56 0
v -56 -64 0
v -64 -64 0
v -64 -56 0
v -56 -56 0
v -24 -72 0
v -32 -72 0
v -32 -64 0
v -24 -64 0
v -32 -72 0
v -40 -72 0
v -40 -64 0
v -32 -64 0
v -40 -72 0
v -48 -72 0
v -48 -64 0
v -40 -64 0
v -48 -72 0
v -56 -72 0
v -56 -64 0
v -48 -64 0
v -56 -72 0
v -64 -72 0
v -64 -64 0
v -56 -64 0
v -24 -80 0
v -32 -80 0
v -32 -72 0
v -24 -72 0
v -32 -80 0
v -40 -80 0
v -40 -72 0
v -32 -72 0
v -40 -80 0
v -48 -80 0
v -48 -72 0
v -40 -72 0
v -48 -80 0
v -56 -80 0
v -56 -72 0
v -48 -72 0
v -56 -80 0
v -64 -80 0
v -64 -72 0
v -56 -72 0
v -104 -80 0
v -112 -80 0
v -112 -72 0
v -104 -72 0
v -112 -80 0
v -120 -80 0
v -120 -72 0
v -112 -72 0
v -120 -80 0
v -128 -80 0
v -128 -72 0
v -120 -72 0
v -128 -80 0
v -136 -80 0
v -136 -72 0
v -128 -72 0
v -24 -88 0
v -32 -88 0
v -32 -80 0
v -24 -80 0
v -32 -88 0
v -40 -88 0
v -40 -80 0
v -32 -80 0
v -40 -88 0
v -48 -88 0
v -48 -80 0
v -40 -80 0
v -48 -88 0
v -56 -88 0
v -56 -80 0
v -48 -80 0
v -56 -88 0
v -64 -88 0
v -64 -80 0
v -56 -80 0
v -104 -88 0
v -112 -88 0
v -112 -80 0
v -104 -80 0
v -112 -88 0
v -120 -88 0
v -120 -80 0
v -112 -80 0
v -120 -88 0
v -128 -88 0
v -128 -80 0
v -120 -80 0
v -128 -88 0
v -136 -88 0
v -136 -80 0
v -128 -80 0
v -24 -96 0
v -32 -96 0
v -32 -88 0
v -24 -88 0
v -32 -96 0
v -40 -96 0
v -40 -88 0
v -32 -88 0
v -40 -96 0
v -48 -96 0
v -48 -88 0
v -40 -88 0
v -48 -96 0
v -56 -96 0
v -56 -88 0
v -48 -88 0
v -56 -96 0
v -64 -96 0
v -64 -88 0
v -56 -88 0
v -64 -96 0
v -72 -96 0
v -72 -88 0
v -64 -88 0
v -104 -96 0
v -112 -96 0
v -112 -88 0
v -104 -88 0
v -112 -96 0
v -120 -96 0
v -120 -88 0
v -112 -88 0
v -120 -96 0
v -128 -96 0
v -128 -88 0
v -120 -88 0
v -128 -96 0
v -136 -96 0
v -136 -88 0
v -128 -88 0
v -24 -104 0
v -32 -104 0
v -32 -96 0
v -24 -96 0
v -32 -104 0
v -40 -104 0
v -40 -96 0
v -32 -96 0
v -40 -104 0
v -48 -104 0
v -48 -96 0
v -40 -96 0
v -48 -104 0
v -56 -104 0
v -56 -96 0
v -48 -96 0
v -56 -104 0
v -64 -104 0
v -64 -96 0
v -56 -96 0
v -64 -104 0
v -72 -104 0
v -72 -96 0
v -64 -96 0
v -104 -104 0
v -112 -104 0
v -112 -96 0
v -104 -96 0
v -112 -104 0
v -120 -104 0
v -120 -96 0
v -112 -96 0
v -120 -104 0
v -128 -104 0
v -128 -96 0
v -120 -96 0
v -128 -104 0
v -136 -104 0
v -136 -96 0
v -128 -96 0
v -24 -112 0
v -32 -112 0
v -32 -104 0
v -24 -104 0
v -32 -112 0
v -40 -112 0
v -40 -104 0
v -32 -104 0
v -40 -112 0
v -48 -112 0
v -48 -104 0
v -40 -104 0
v -48 -112 0
v -56 -112 0
v -56 -104 0
v -48 -104 0
v -56 -112 0
v -64 -112 0
v -64 -104 0
v -56 -104 0
v -64 -112 0
v -72 -112 0
v -72 -104 0
v -64 -104 0
v -96 -112 0
v -104 -112 0
v -104 -104 0
v -96 -104 0
v -104 -112 0
v -112 -112 0
v -112 -104 0
v -104 -104 0
v -112 -112 0
v -120 -112 0
v -120 -104 0
v -112 -104 0
v -120 -112 0
v -128 -112 0
v -128 -104 0
v -120 -104 0
v -24 -120 0
v -32 -120 0
v -32 -112 0
v -24 -112 0
v -32 -120 0
v -40 -120 0
v -40 -112 0
v -32 -112 0
v -40 -120 0
v -48 -120 0
v -48 -112 0
v -40 -112 0
v -48 -120 0
v -56 -120 0
v -56 -112 0
v -48 -112 0
v -56 -120 0
v -64 -120 0
v -64 -112 0
v -56 -112 0
v -96 -120 0
v -104 -120 0
v -104 -112 0
v -96 -112 0
v -104 -120 0
v -112 -120 0
v -112 -112 0
v -104 -112 0
v -112 -120 0
v -120 -120 0
v -120 -112 0
v -112 -112 0
v -120 -120 0
v -128 -120 0
v -128 -112 0
v -120 -112 0
v -24 -128 0
v -32 -128 0
v -32 -120 0
v -24 -120 0
v -32 -128 0
v -40 -128 0
v -40 -120 0
v -32 -120 0
v -40 -128 0
v -48 -128 0
v -48 -120 0
v -40 -120 0
v -48 -128 0
v -56 -128 0
v -56 -120 0
v -48 -120 0
v -56 -128 0
v -64 -128 0
v -64 -120 0
v -56 -120 0
v -96 -128 0
v -104 -128 0
v -104 -120 0
v -96 -120 0
v -104 -128 0
v -112 -128 0
v -112 -120 0
v -104 -120 0
v -112 -128 0
v -120 -128 0
v -120 -120 0
v -112 -120 0
v -120 -128 0
v -128 -128 0
v -128 -120 0
v -120 -120 0
v -24 -136 0
v -32 -136 0
v -32 -128 0
v -24 -128 0
v -32 -136 0
v -40 -136 0
v -40 -128 0
v -32 -128 0
v -40 -136 0
v -48 -136 0
v -48 -128 0
v -40 -128 0
v -48 -136 0
v -56 -136 0
v -56 -128 0
v -48 -128 0
v -56 -136 0
v -64 -136 0
v -64 -128 0
v -56 -128 0
v -96 -136 0
v -104 -136 0
v -104 -128 0
v -96 -128 0
v -104 -136 0
v -112 -136 0
v -112 -128 0
v -104 -128 0
v -112 -136 0
v -120 -136 0
v -120 -128 0
v -112 -128 0
v -120 -136 0
v -128 -136 0
v -128 -128 0
v -120 -128 0
v -24 -144 0
v -32 -144 0
v -32 -136 0
v -24 -136 0
v -32 -144 0
v -40 -144 0
v -40 -136 0
v -32 -136 0
v -40 -144 0
v -48 -144 0
v -48 -136 0
v -40 -136 0
v -48 -144 0
v -56 -144 0
v -56 -136 0
v -48 -136 0
v -56 -144 0
v -64 -144 0
v -64 -136 0
v -56 -136 0
v -96 -144 0
v -104 -144 0
v -104 -136 0
v -96 -136 0
v -104 -144 0
v -112 -144 0
v -112 -136 0
v -104 -136 0
v -112 -144 0
v -120 -144 0
v -120 -136 0
v -112 -136 0
v -120 -144 0
v -128 -144 0
v -128 -136 0
v -120 -136 0
v -24 -152 0
v -32 -152 0
v -32 -144 0
v -24 -144 0
v -32 -152 0
v -40 -152 0
v -40 -144 0
v -32 -144 0
v -40 -152 0
v -48 -152 0
v -48 -144 0
v -40 -144 0
v -48 -152 0
v -56 -152 0
v -56 -144 0
v -48 -144 0
v -56 -152 0
v -64 -152 0
v -64 -144 0
v -56 -144 0
v -96 -152 0
v -104 -152 0
v -104 -144 0
v -96 -144 0
v -104 -152 0
v -112 -152 0
v -112 -144 0
v -104 -144 0
v -112 -152 0
v -120 -152 0
v -120 -144 0
v -112 -144 0
v -120 -152 0
v -128 -152 0
v -128 -144 0
v -120 -144 0
v -24 -160 0
v -32 -160 0
v -32 -152 0
v -24 -152 0
v -32 -160 0
v -40 -160 0
v -40 -152 0
v -32 -152 0
v -40 -160 0
v -48 -160 0
v -48 -152 0
v -40 -152 0
v -48 -160 0
v -56 -160 0
v -56 -152 0
v -48 -152 0
v -56 -160 0
v -64 -160 0
v -64 -152 0
v -56 -152 0
v -96 -160 0
v -104 -160 0
v -104 -152 0
v -96 -152 0
v -104 -160 0
v -112 -160 0
v -112 -152 0
v -104 -152 0
v -112 -160 0
v -120 -160 0
v -120 -152 0
v -112 -152 0
v -120 -160 0
v -128 -160 0
v -128 -152 0
v -120 -152 0

# Texture cooridinates (Count = 29)
vt 0.5 0.9990698
vt 0.53125 0.9990698
vt 0.53125 1
vt 0.5 1
vt 0.5625 0.9990698
vt 0.5625 1
vt 0.59375 0.9990698
vt 0.59375 1
vt 0.625 0.9990698
vt 0.625 1
vt 0.15625 0.9674419
vt 0.1875 0.9674419
vt 0.1875 0.9683721
vt 0.15625 0.9683721
vt 0.5 0.9981396
vt 0.53125 0.9981396
vt 0.5625 0.9981396
vt 0.59375 0.9981396
vt 0.625 0.9981396
vt 0.5 0.9972093
vt 0.53125 0.9972093
vt 0.5625 0.9972093
vt 0.59375 0.9972093
vt 0.625 0.9972093
vt 0.5 0.9962791
vt 0.53125 0.9962791
vt 0.5625 0.9962791
vt 0.59375 0.9962791
vt 0.625 0.9962791

# Normal
vn 0 0 -1

# Mesh description
g bosque_mesh_0004

# Faces
f 1/1/1 2/2/1 3/3/1 4/4/1
f 5/2/1 6/5/1 7/6/1 8/3/1
f 9/5/1 10/7/1 11/8/1 12/6/1
f 13/7/1 14/9/1 15/10/1 16/8/1
f 17/11/1 18/12/1 19/13/1 20/14/1
f 21/1/1 22/2/1 23/3/1 24/4/1
f 25/2/1 26/5/1 27/6/1 28/3/1
f 29/5/1 30/7/1 31/8/1 32/6/1
f 33/7/1 34/9/1 35/10/1 36/8/1
f 37/15/1 38/16/1 39/2/1 40/1/1
f 41/16/1 42/17/1 43/5/1 44/2/1
f 45/17/1 46/18/1 47/7/1 48/5/1
f 49/18/1 50/19/1 51/9/1 52/7/1
f 53/11/1 54/12/1 55/13/1 56/14/1
f 57/15/1 58/16/1 59/2/1 60/1/1
f 61/16/1 62/17/1 63/5/1 64/2/1
f 65/17/1 66/18/1 67/7/1 68/5/1
f 69/18/1 70/19/1 71/9/1 72/7/1
f 73/20/1 74/21/1 75/16/1 76/15/1
f 77/21/1 78/22/1 79/17/1 80/16/1
f 81/22/1 82/23/1 83/18/1 84/17/1
f 85/23/1 86/24/1 87/19/1 88/18/1
f 89/11/1 90/12/1 91/13/1 92/14/1
f 93/20/1 94/21/1 95/16/1 96/15/1
f 97/21/1 98/22/1 99/17/1 100/16/1
f 101/22/1 102/23/1 103/18/1 104/17/1
f 105/23/1 106/24/1 107/19/1 108/18/1
f 109/25/1 110/26/1 111/21/1 112/20/1
f 113/26/1 114/27/1 115/22/1 116/21/1
f 117/27/1 118/28/1 119/23/1 120/22/1
f 121/28/1 122/29/1 123/24/1 124/23/1
f 125/11/1 126/12/1 127/13/1 128/14/1
f 129/1/1 130/2/1 131/3/1 132/4/1
f 133/2/1 134/5/1 135/6/1 136/3/1
f 137/5/1 138/7/1 139/8/1 140/6/1
f 141/7/1 142/9/1 143/10/1 144/8/1
f 145/1/1 146/2/1 147/3/1 148/4/1
f 149/2/1 150/5/1 151/6/1 152/3/1
f 153/5/1 154/7/1 155/8/1 156/6/1
f 157/7/1 158/9/1 159/10/1 160/8/1
f 161/11/1 162/12/1 163/13/1 164/14/1
f 165/15/1 166/16/1 167/2/1 168/1/1
f 169/16/1 170/17/1 171/5/1 172/2/1
f 173/17/1 174/18/1 175/7/1 176/5/1
f 177/18/1 178/19/1 179/9/1 180/7/1
f 181/15/1 182/16/1 183/2/1 184/1/1
f 185/16/1 186/17/1 187/5/1 188/2/1
f 189/17/1 190/18/1 191/7/1 192/5/1
f 193/18/1 194/19/1 195/9/1 196/7/1
f 197/11/1 198/12/1 199/13/1 200/14/1
f 201/20/1 202/21/1 203/16/1 204/15/1
f 205/21/1 206/22/1 207/17/1 208/16/1
f 209/22/1 210/23/1 211/18/1 212/17/1
f 213/23/1 214/24/1 215/19/1 216/18/1
f 217/20/1 218/21/1 219/16/1 220/15/1
f 221/21/1 222/22/1 223/17/1 224/16/1
f 225/22/1 226/23/1 227/18/1 228/17/1
f 229/23/1 230/24/1 231/19/1 232/18/1
f 233/11/1 234/12/1 235/13/1 236/14/1
f 237/25/1 238/26/1 239/21/1 240/20/1
f 241/26/1 242/27/1 243/22/1 244/21/1
f 245/27/1 246/28/1 247/23/1 248/22/1
f 249/28/1 250/29/1 251/24/1 252/23/1
f 253/25/1 254/26/1 255/21/1 256/20/1
f 257/26/1 258/27/1 259/22/1 260/21/1
f 261/27/1 262/28/1 263/23/1 264/22/1
f 265/28/1 266/29/1 267/24/1 268/23/1
f 269/11/1 270/12/1 271/13/1 272/14/1
f 273/1/1 274/2/1 275/3/1 276/4/1
f 277/2/1 278/5/1 279/6/1 280/3/1
f 281/5/1 282/7/1 283/8/1 284/6/1
f 285/7/1 286/9/1 287/10/1 288/8/1
f 289/11/1 290/12/1 291/13/1 292/14/1
f 293/15/1 294/16/1 295/2/1 296/1/1
f 297/16/1 298/17/1 299/5/1 300/2/1
f 301/17/1 302/18/1 303/7/1 304/5/1
f 305/18/1 306/19/1 307/9/1 308/7/1
f 309/11/1 310/12/1 311/13/1 312/14/1
f 313/1/1 314/2/1 315/3/1 316/4/1
f 317/2/1 318/5/1 319/6/1 320/3/1
f 321/5/1 322/7/1 323/8/1 324/6/1
f 325/7/1 326/9/1 327/10/1 328/8/1
f 329/20/1 330/21/1 331/16/1 332/15/1
f 333/21/1 334/22/1 335/17/1 336/16/1
f 337/22/1 338/23/1 339/18/1 340/17/1
f 341/23/1 342/24/1 343/19/1 344/18/1
f 345/11/1 346/12/1 347/13/1 348/14/1
f 349/15/1 350/16/1 351/2/1 352/1/1
f 353/16/1 354/17/1 355/5/1 356/2/1
f 357/17/1 358/18/1 359/7/1 360/5/1
f 361/18/1 362/19/1 363/9/1 364/7/1
f 365/25/1 366/26/1 367/21/1 368/20/1
f 369/26/1 370/27/1 371/22/1 372/21/1
f 373/27/1 374/28/1 375/23/1 376/22/1
f 377/28/1 378/29/1 379/24/1 380/23/1
f 381/11/1 382/12/1 383/13/1 384/14/1
f 385/11/1 386/12/1 387/13/1 388/14/1
f 389/20/1 390/21/1 391/16/1 392/15/1
f 393/21/1 394/22/1 395/17/1 396/16/1
f 397/22/1 398/23/1 399/18/1 400/17/1
f 401/23/1 402/24/1 403/19/1 404/18/1
f 405/1/1 406/2/1 407/3/1 408/4/1
f 409/2/1 410/5/1 411/6/1 412/3/1
f 413/5/1 414/7/1 415/8/1 416/6/1
f 417/7/1 418/9/1 419/10/1 420/8/1
f 421/11/1 422/12/1 423/13/1 424/14/1
f 425/11/1 426/12/1 427/13/1 428/14/1
f 429/25/1 430/26/1 431/21/1 432/20/1
f 433/26/1 434/27/1 435/22/1 436/21/1
f 437/27/1 438/28/1 439/23/1 440/22/1
f 441/28/1 442/29/1 443/24/1 444/23/1
f 445/15/1 446/16/1 447/2/1 448/1/1
f 449/16/1 450/17/1 451/5/1 452/2/1
f 453/17/1 454/18/1 455/7/1 456/5/1
f 457/18/1 458/19/1 459/9/1 460/7/1
f 461/11/1 462/12/1 463/13/1 464/14/1
f 465/11/1 466/12/1 467/13/1 468/14/1
f 469/1/1 470/2/1 471/3/1 472/4/1
f 473/2/1 474/5/1 475/6/1 476/3/1
f 477/5/1 478/7/1 479/8/1 480/6/1
f 481/7/1 482/9/1 483/10/1 484/8/1
f 485/20/1 486/21/1 487/16/1 488/15/1
f 489/21/1 490/22/1 491/17/1 492/16/1
f 493/22/1 494/23/1 495/18/1 496/17/1
f 497/23/1 498/24/1 499/19/1 500/18/1
f 501/11/1 502/12/1 503/13/1 504/14/1
f 505/15/1 506/16/1 507/2/1 508/1/1
f 509/16/1 510/17/1 511/5/1 512/2/1
f 513/17/1 514/18/1 515/7/1 516/5/1
f 517/18/1 518/19/1 519/9/1 520/7/1
f 521/25/1 522/26/1 523/21/1 524/20/1
f 525/26/1 526/27/1 527/22/1 528/21/1
f 529/27/1 530/28/1 531/23/1 532/22/1
f 533/28/1 534/29/1 535/24/1 536/23/1
f 537/11/1 538/12/1 539/13/1 540/14/1
f 541/20/1 542/21/1 543/16/1 544/15/1
f 545/21/1 546/22/1 547/17/1 548/16/1
f 549/22/1 550/23/1 551/18/1 552/17/1
f 553/23/1 554/24/1 555/19/1 556/18/1
f 557/1/1 558/2/1 559/3/1 560/4/1
f 561/2/1 562/5/1 563/6/1 564/3/1
f 565/5/1 566/7/1 567/8/1 568/6/1
f 569/7/1 570/9/1 571/10/1 572/8/1
f 573/11/1 574/12/1 575/13/1 576/14/1
f 577/1/1 578/2/1 579/3/1 580/4/1
f 581/2/1 582/5/1 583/6/1 584/3/1
f 585/5/1 586/7/1 587/8/1 588/6/1
f 589/7/1 590/9/1 591/10/1 592/8/1
f 593/15/1 594/16/1 595/2/1 596/1/1
f 597/16/1 598/17/1 599/5/1 600/2/1
f 601/17/1 602/18/1 603/7/1 604/5/1
f 605/18/1 606/19/1 607/9/1 608/7/1
f 609/11/1 610/12/1 611/13/1 612/14/1
f 613/15/1 614/16/1 615/2/1 616/1/1
f 617/16/1 618/17/1 619/5/1 620/2/1
f 621/17/1 622/18/1 623/7/1 624/5/1
f 625/18/1 626/19/1 627/9/1 628/7/1
f 629/20/1 630/21/1 631/16/1 632/15/1
f 633/21/1 634/22/1 635/17/1 636/16/1
f 637/22/1 638/23/1 639/18/1 640/17/1
f 641/23/1 642/24/1 643/19/1 644/18/1
f 645/11/1 646/12/1 647/13/1 648/14/1
f 649/20/1 650/21/1 651/16/1 652/15/1
f 653/21/1 654/22/1 655/17/1 656/16/1
f 657/22/1 658/23/1 659/18/1 660/17/1
f 661/23/1 662/24/1 663/19/1 664/18/1
f 665/25/1 666/26/1 667/21/1 668/20/1
f 669/26/1 670/27/1 671/22/1 672/21/1
f 673/27/1 674/28/1 675/23/1 676/22/1
f 677/28/1 678/29/1 679/24/1 680/23/1
f 681/11/1 682/12/1 683/13/1 684/14/1
f 685/25/1 686/26/1 687/21/1 688/20/1
f 689/26/1 690/27/1 691/22/1 692/21/1
f 693/27/1 694/28/1 695/23/1 696/22/1
f 697/28/1 698/29/1 699/24/1 700/23/1

