# Tiled2Unity generated file. Do not modify by hand.
# Wavefront file for 'ruta1_mesh_0002.obj'

# Vertices (Count = 552)
v 0 -16 0
v -16 -16 0
v -16 0 0
v 0 0 0
v -16 -16 0
v -32 -16 0
v -32 0 0
v -16 0 0
v -32 -16 0
v -48 -16 0
v -48 0 0
v -32 0 0
v -48 -16 0
v -64 -16 0
v -64 0 0
v -48 0 0
v -64 -16 0
v -80 -16 0
v -80 0 0
v -64 0 0
v -80 -16 0
v -96 -16 0
v -96 0 0
v -80 0 0
v -96 -16 0
v -112 -16 0
v -112 0 0
v -96 0 0
v -208 -16 0
v -224 -16 0
v -224 0 0
v -208 0 0
v -224 -16 0
v -240 -16 0
v -240 0 0
v -224 0 0
v -240 -16 0
v -256 -16 0
v -256 0 0
v -240 0 0
v -256 -16 0
v -272 -16 0
v -272 0 0
v -256 0 0
v -272 -16 0
v -288 -16 0
v -288 0 0
v -272 0 0
v -288 -16 0
v -304 -16 0
v -304 0 0
v -288 0 0
v 0 -32 0
v -16 -32 0
v -16 -16 0
v 0 -16 0
v -16 -32 0
v -32 -32 0
v -32 -16 0
v -16 -16 0
v -32 -32 0
v -48 -32 0
v -48 -16 0
v -32 -16 0
v -48 -32 0
v -64 -32 0
v -64 -16 0
v -48 -16 0
v -64 -32 0
v -80 -32 0
v -80 -16 0
v -64 -16 0
v -240 -32 0
v -256 -32 0
v -256 -16 0
v -240 -16 0
v -256 -32 0
v -272 -32 0
v -272 -16 0
v -256 -16 0
v -272 -32 0
v -288 -32 0
v -288 -16 0
v -272 -16 0
v -288 -32 0
v -304 -32 0
v -304 -16 0
v -288 -16 0
v 0 -48 0
v -16 -48 0
v -16 -32 0
v 0 -32 0
v -16 -48 0
v -32 -48 0
v -32 -32 0
v -16 -32 0
v -32 -48 0
v -48 -48 0
v -48 -32 0
v -32 -32 0
v -48 -48 0
v -64 -48 0
v -64 -32 0
v -48 -32 0
v -64 -48 0
v -80 -48 0
v -80 -32 0
v -64 -32 0
v -240 -48 0
v -256 -48 0
v -256 -32 0
v -240 -32 0
v -256 -48 0
v -272 -48 0
v -272 -32 0
v -256 -32 0
v -272 -48 0
v -288 -48 0
v -288 -32 0
v -272 -32 0
v -288 -48 0
v -304 -48 0
v -304 -32 0
v -288 -32 0
v 0 -64 0
v -16 -64 0
v -16 -48 0
v 0 -48 0
v -16 -64 0
v -32 -64 0
v -32 -48 0
v -16 -48 0
v -32 -64 0
v -48 -64 0
v -48 -48 0
v -32 -48 0
v -240 -64 0
v -256 -64 0
v -256 -48 0
v -240 -48 0
v -256 -64 0
v -272 -64 0
v -272 -48 0
v -256 -48 0
v -272 -64 0
v -288 -64 0
v -288 -48 0
v -272 -48 0
v -288 -64 0
v -304 -64 0
v -304 -48 0
v -288 -48 0
v 0 -80 0
v -16 -80 0
v -16 -64 0
v 0 -64 0
v -16 -80 0
v -32 -80 0
v -32 -64 0
v -16 -64 0
v -32 -80 0
v -48 -80 0
v -48 -64 0
v -32 -64 0
v -240 -80 0
v -256 -80 0
v -256 -64 0
v -240 -64 0
v -256 -80 0
v -272 -80 0
v -272 -64 0
v -256 -64 0
v -272 -80 0
v -288 -80 0
v -288 -64 0
v -272 -64 0
v -288 -80 0
v -304 -80 0
v -304 -64 0
v -288 -64 0
v 0 -96 0
v -16 -96 0
v -16 -80 0
v 0 -80 0
v -16 -96 0
v -32 -96 0
v -32 -80 0
v -16 -80 0
v -32 -96 0
v -48 -96 0
v -48 -80 0
v -32 -80 0
v -272 -96 0
v -288 -96 0
v -288 -80 0
v -272 -80 0
v -288 -96 0
v -304 -96 0
v -304 -80 0
v -288 -80 0
v 0 -112 0
v -16 -112 0
v -16 -96 0
v 0 -96 0
v -16 -112 0
v -32 -112 0
v -32 -96 0
v -16 -96 0
v -32 -112 0
v -48 -112 0
v -48 -96 0
v -32 -96 0
v -272 -112 0
v -288 -112 0
v -288 -96 0
v -272 -96 0
v -288 -112 0
v -304 -112 0
v -304 -96 0
v -288 -96 0
v 0 -128 0
v -16 -128 0
v -16 -112 0
v 0 -112 0
v -16 -128 0
v -32 -128 0
v -32 -112 0
v -16 -112 0
v -32 -128 0
v -48 -128 0
v -48 -112 0
v -32 -112 0
v -272 -128 0
v -288 -128 0
v -288 -112 0
v -272 -112 0
v -288 -128 0
v -304 -128 0
v -304 -112 0
v -288 -112 0
v 0 -144 0
v -16 -144 0
v -16 -128 0
v 0 -128 0
v -16 -144 0
v -32 -144 0
v -32 -128 0
v -16 -128 0
v -32 -144 0
v -48 -144 0
v -48 -128 0
v -32 -128 0
v -272 -144 0
v -288 -144 0
v -288 -128 0
v -272 -128 0
v -288 -144 0
v -304 -144 0
v -304 -128 0
v -288 -128 0
v 0 -160 0
v -16 -160 0
v -16 -144 0
v 0 -144 0
v -16 -160 0
v -32 -160 0
v -32 -144 0
v -16 -144 0
v -32 -160 0
v -48 -160 0
v -48 -144 0
v -32 -144 0
v -272 -160 0
v -288 -160 0
v -288 -144 0
v -272 -144 0
v -288 -160 0
v -304 -160 0
v -304 -144 0
v -288 -144 0
v 0 -176 0
v -16 -176 0
v -16 -160 0
v 0 -160 0
v -16 -176 0
v -32 -176 0
v -32 -160 0
v -16 -160 0
v -32 -176 0
v -48 -176 0
v -48 -160 0
v -32 -160 0
v -272 -176 0
v -288 -176 0
v -288 -160 0
v -272 -160 0
v -288 -176 0
v -304 -176 0
v -304 -160 0
v -288 -160 0
v 0 -192 0
v -16 -192 0
v -16 -176 0
v 0 -176 0
v -16 -192 0
v -32 -192 0
v -32 -176 0
v -16 -176 0
v -32 -192 0
v -48 -192 0
v -48 -176 0
v -32 -176 0
v -272 -192 0
v -288 -192 0
v -288 -176 0
v -272 -176 0
v -288 -192 0
v -304 -192 0
v -304 -176 0
v -288 -176 0
v 0 -208 0
v -16 -208 0
v -16 -192 0
v 0 -192 0
v -16 -208 0
v -32 -208 0
v -32 -192 0
v -16 -192 0
v -32 -208 0
v -48 -208 0
v -48 -192 0
v -32 -192 0
v -272 -208 0
v -288 -208 0
v -288 -192 0
v -272 -192 0
v -288 -208 0
v -304 -208 0
v -304 -192 0
v -288 -192 0
v 0 -224 0
v -16 -224 0
v -16 -208 0
v 0 -208 0
v -16 -224 0
v -32 -224 0
v -32 -208 0
v -16 -208 0
v -32 -224 0
v -48 -224 0
v -48 -208 0
v -32 -208 0
v -272 -224 0
v -288 -224 0
v -288 -208 0
v -272 -208 0
v -288 -224 0
v -304 -224 0
v -304 -208 0
v -288 -208 0
v 0 -240 0
v -16 -240 0
v -16 -224 0
v 0 -224 0
v -16 -240 0
v -32 -240 0
v -32 -224 0
v -16 -224 0
v -32 -240 0
v -48 -240 0
v -48 -224 0
v -32 -224 0
v -272 -240 0
v -288 -240 0
v -288 -224 0
v -272 -224 0
v -288 -240 0
v -304 -240 0
v -304 -224 0
v -288 -224 0
v 0 -256 0
v -16 -256 0
v -16 -240 0
v 0 -240 0
v -16 -256 0
v -32 -256 0
v -32 -240 0
v -16 -240 0
v -32 -256 0
v -48 -256 0
v -48 -240 0
v -32 -240 0
v -272 -256 0
v -288 -256 0
v -288 -240 0
v -272 -240 0
v -288 -256 0
v -304 -256 0
v -304 -240 0
v -288 -240 0
v 0 -272 0
v -16 -272 0
v -16 -256 0
v 0 -256 0
v -16 -272 0
v -32 -272 0
v -32 -256 0
v -16 -256 0
v -32 -272 0
v -48 -272 0
v -48 -256 0
v -32 -256 0
v -48 -272 0
v -64 -272 0
v -64 -256 0
v -48 -256 0
v -64 -272 0
v -80 -272 0
v -80 -256 0
v -64 -256 0
v -80 -272 0
v -96 -272 0
v -96 -256 0
v -80 -256 0
v -272 -272 0
v -288 -272 0
v -288 -256 0
v -272 -256 0
v -288 -272 0
v -304 -272 0
v -304 -256 0
v -288 -256 0
v 0 -288 0
v -16 -288 0
v -16 -272 0
v 0 -272 0
v -16 -288 0
v -32 -288 0
v -32 -272 0
v -16 -272 0
v -32 -288 0
v -48 -288 0
v -48 -272 0
v -32 -272 0
v -48 -288 0
v -64 -288 0
v -64 -272 0
v -48 -272 0
v -64 -288 0
v -80 -288 0
v -80 -272 0
v -64 -272 0
v -80 -288 0
v -96 -288 0
v -96 -272 0
v -80 -272 0
v -272 -288 0
v -288 -288 0
v -288 -272 0
v -272 -272 0
v -288 -288 0
v -304 -288 0
v -304 -272 0
v -288 -272 0
v 0 -304 0
v -16 -304 0
v -16 -288 0
v 0 -288 0
v -16 -304 0
v -32 -304 0
v -32 -288 0
v -16 -288 0
v -32 -304 0
v -48 -304 0
v -48 -288 0
v -32 -288 0
v -48 -304 0
v -64 -304 0
v -64 -288 0
v -48 -288 0
v -64 -304 0
v -80 -304 0
v -80 -288 0
v -64 -288 0
v -80 -304 0
v -96 -304 0
v -96 -288 0
v -80 -288 0
v -272 -304 0
v -288 -304 0
v -288 -288 0
v -272 -288 0
v -288 -304 0
v -304 -304 0
v -304 -288 0
v -288 -288 0
v 0 -320 0
v -16 -320 0
v -16 -304 0
v 0 -304 0
v -16 -320 0
v -32 -320 0
v -32 -304 0
v -16 -304 0
v -32 -320 0
v -48 -320 0
v -48 -304 0
v -32 -304 0
v -48 -320 0
v -64 -320 0
v -64 -304 0
v -48 -304 0
v -64 -320 0
v -80 -320 0
v -80 -304 0
v -64 -304 0
v -80 -320 0
v -96 -320 0
v -96 -304 0
v -80 -304 0
v -96 -320 0
v -112 -320 0
v -112 -304 0
v -96 -304 0
v -112 -320 0
v -128 -320 0
v -128 -304 0
v -112 -304 0
v -208 -320 0
v -224 -320 0
v -224 -304 0
v -208 -304 0
v -224 -320 0
v -240 -320 0
v -240 -304 0
v -224 -304 0
v -240 -320 0
v -256 -320 0
v -256 -304 0
v -240 -304 0
v -256 -320 0
v -272 -320 0
v -272 -304 0
v -256 -304 0
v -272 -320 0
v -288 -320 0
v -288 -304 0
v -272 -304 0
v -288 -320 0
v -304 -320 0
v -304 -304 0
v -288 -304 0

# Texture cooridinates (Count = 32)
vt 0.175 0.5277778
vt 0.2 0.5277778
vt 0.2 0.5555556
vt 0.175 0.5555556
vt 0.125 0.5277778
vt 0.15 0.5277778
vt 0.15 0.5555556
vt 0.125 0.5555556
vt 0 0.75
vt 0.025 0.75
vt 0.025 0.7777778
vt 0 0.7777778
vt 0.05 0.75
vt 0.05 0.7777778
vt 0.175 0.5
vt 0.2 0.5
vt 0.125 0.5
vt 0.15 0.5
vt 0.05 0.8055556
vt 0.075 0.8055556
vt 0.075 0.8333333
vt 0.05 0.8333333
vt 0.1 0.8055556
vt 0.1 0.8333333
vt 0.125 0.8055556
vt 0.125 0.8333333
vt 0.075 0.7777778
vt 0.1 0.7777778
vt 0.125 0.7777778
vt 0.075 0.75
vt 0.1 0.75
vt 0.125 0.75

# Normal
vn 0 0 -1

# Mesh description
g ruta1_mesh_0002

# Faces
f 1/1/1 2/2/1 3/3/1 4/4/1
f 5/5/1 6/6/1 7/7/1 8/8/1
f 9/6/1 10/1/1 11/4/1 12/7/1
f 13/5/1 14/6/1 15/7/1 16/8/1
f 17/6/1 18/1/1 19/4/1 20/7/1
f 21/9/1 22/10/1 23/11/1 24/12/1
f 25/10/1 26/13/1 27/14/1 28/11/1
f 29/9/1 30/10/1 31/11/1 32/12/1
f 33/10/1 34/13/1 35/14/1 36/11/1
f 37/5/1 38/6/1 39/7/1 40/8/1
f 41/6/1 42/1/1 43/4/1 44/7/1
f 45/5/1 46/6/1 47/7/1 48/8/1
f 49/6/1 50/1/1 51/4/1 52/7/1
f 53/15/1 54/16/1 55/2/1 56/1/1
f 57/17/1 58/18/1 59/6/1 60/5/1
f 61/18/1 62/15/1 63/1/1 64/6/1
f 65/17/1 66/18/1 67/6/1 68/5/1
f 69/18/1 70/15/1 71/1/1 72/6/1
f 73/17/1 74/18/1 75/6/1 76/5/1
f 77/18/1 78/15/1 79/1/1 80/6/1
f 81/17/1 82/18/1 83/6/1 84/5/1
f 85/18/1 86/15/1 87/1/1 88/6/1
f 89/1/1 90/2/1 91/3/1 92/4/1
f 93/5/1 94/6/1 95/7/1 96/8/1
f 97/6/1 98/1/1 99/4/1 100/7/1
f 101/9/1 102/10/1 103/11/1 104/12/1
f 105/10/1 106/13/1 107/14/1 108/11/1
f 109/5/1 110/6/1 111/7/1 112/8/1
f 113/6/1 114/1/1 115/4/1 116/7/1
f 117/5/1 118/6/1 119/7/1 120/8/1
f 121/6/1 122/1/1 123/4/1 124/7/1
f 125/15/1 126/16/1 127/2/1 128/1/1
f 129/17/1 130/18/1 131/6/1 132/5/1
f 133/18/1 134/15/1 135/1/1 136/6/1
f 137/17/1 138/18/1 139/6/1 140/5/1
f 141/18/1 142/15/1 143/1/1 144/6/1
f 145/17/1 146/18/1 147/6/1 148/5/1
f 149/18/1 150/15/1 151/1/1 152/6/1
f 153/1/1 154/2/1 155/3/1 156/4/1
f 157/5/1 158/6/1 159/7/1 160/8/1
f 161/6/1 162/1/1 163/4/1 164/7/1
f 165/9/1 166/10/1 167/11/1 168/12/1
f 169/10/1 170/13/1 171/14/1 172/11/1
f 173/5/1 174/6/1 175/7/1 176/8/1
f 177/6/1 178/1/1 179/4/1 180/7/1
f 181/15/1 182/16/1 183/2/1 184/1/1
f 185/17/1 186/18/1 187/6/1 188/5/1
f 189/18/1 190/15/1 191/1/1 192/6/1
f 193/17/1 194/18/1 195/6/1 196/5/1
f 197/18/1 198/15/1 199/1/1 200/6/1
f 201/1/1 202/2/1 203/3/1 204/4/1
f 205/5/1 206/6/1 207/7/1 208/8/1
f 209/6/1 210/1/1 211/4/1 212/7/1
f 213/5/1 214/6/1 215/7/1 216/8/1
f 217/6/1 218/1/1 219/4/1 220/7/1
f 221/15/1 222/16/1 223/2/1 224/1/1
f 225/17/1 226/18/1 227/6/1 228/5/1
f 229/18/1 230/15/1 231/1/1 232/6/1
f 233/17/1 234/18/1 235/6/1 236/5/1
f 237/18/1 238/15/1 239/1/1 240/6/1
f 241/1/1 242/2/1 243/3/1 244/4/1
f 245/5/1 246/6/1 247/7/1 248/8/1
f 249/6/1 250/1/1 251/4/1 252/7/1
f 253/5/1 254/6/1 255/7/1 256/8/1
f 257/6/1 258/1/1 259/4/1 260/7/1
f 261/15/1 262/16/1 263/2/1 264/1/1
f 265/17/1 266/18/1 267/6/1 268/5/1
f 269/18/1 270/15/1 271/1/1 272/6/1
f 273/17/1 274/18/1 275/6/1 276/5/1
f 277/18/1 278/15/1 279/1/1 280/6/1
f 281/1/1 282/2/1 283/3/1 284/4/1
f 285/5/1 286/6/1 287/7/1 288/8/1
f 289/6/1 290/1/1 291/4/1 292/7/1
f 293/5/1 294/6/1 295/7/1 296/8/1
f 297/6/1 298/1/1 299/4/1 300/7/1
f 301/15/1 302/16/1 303/2/1 304/1/1
f 305/17/1 306/18/1 307/6/1 308/5/1
f 309/18/1 310/15/1 311/1/1 312/6/1
f 313/17/1 314/18/1 315/6/1 316/5/1
f 317/18/1 318/15/1 319/1/1 320/6/1
f 321/1/1 322/2/1 323/3/1 324/4/1
f 325/5/1 326/6/1 327/7/1 328/8/1
f 329/6/1 330/1/1 331/4/1 332/7/1
f 333/5/1 334/6/1 335/7/1 336/8/1
f 337/6/1 338/1/1 339/4/1 340/7/1
f 341/15/1 342/16/1 343/2/1 344/1/1
f 345/17/1 346/18/1 347/6/1 348/5/1
f 349/18/1 350/15/1 351/1/1 352/6/1
f 353/17/1 354/18/1 355/6/1 356/5/1
f 357/18/1 358/15/1 359/1/1 360/6/1
f 361/1/1 362/2/1 363/3/1 364/4/1
f 365/5/1 366/6/1 367/7/1 368/8/1
f 369/6/1 370/1/1 371/4/1 372/7/1
f 373/5/1 374/6/1 375/7/1 376/8/1
f 377/6/1 378/1/1 379/4/1 380/7/1
f 381/15/1 382/16/1 383/2/1 384/1/1
f 385/17/1 386/18/1 387/6/1 388/5/1
f 389/18/1 390/15/1 391/1/1 392/6/1
f 393/17/1 394/18/1 395/6/1 396/5/1
f 397/18/1 398/15/1 399/1/1 400/6/1
f 401/1/1 402/2/1 403/3/1 404/4/1
f 405/5/1 406/6/1 407/7/1 408/8/1
f 409/6/1 410/1/1 411/4/1 412/7/1
f 413/19/1 414/20/1 415/21/1 416/22/1
f 417/20/1 418/23/1 419/24/1 420/21/1
f 421/23/1 422/25/1 423/26/1 424/24/1
f 425/5/1 426/6/1 427/7/1 428/8/1
f 429/6/1 430/1/1 431/4/1 432/7/1
f 433/1/1 434/2/1 435/3/1 436/4/1
f 437/17/1 438/18/1 439/6/1 440/5/1
f 441/18/1 442/15/1 443/1/1 444/6/1
f 445/14/1 446/27/1 447/20/1 448/19/1
f 449/27/1 450/28/1 451/23/1 452/20/1
f 453/28/1 454/29/1 455/25/1 456/23/1
f 457/17/1 458/18/1 459/6/1 460/5/1
f 461/18/1 462/15/1 463/1/1 464/6/1
f 465/1/1 466/2/1 467/3/1 468/4/1
f 469/5/1 470/6/1 471/7/1 472/8/1
f 473/6/1 474/1/1 475/4/1 476/7/1
f 477/13/1 478/30/1 479/27/1 480/14/1
f 481/30/1 482/31/1 483/28/1 484/27/1
f 485/31/1 486/32/1 487/29/1 488/28/1
f 489/5/1 490/6/1 491/7/1 492/8/1
f 493/6/1 494/1/1 495/4/1 496/7/1
f 497/15/1 498/16/1 499/2/1 500/1/1
f 501/17/1 502/18/1 503/6/1 504/5/1
f 505/18/1 506/15/1 507/1/1 508/6/1
f 509/9/1 510/10/1 511/11/1 512/12/1
f 513/10/1 514/13/1 515/14/1 516/11/1
f 517/9/1 518/10/1 519/11/1 520/12/1
f 521/9/1 522/10/1 523/11/1 524/12/1
f 525/10/1 526/13/1 527/14/1 528/11/1
f 529/9/1 530/10/1 531/11/1 532/12/1
f 533/10/1 534/13/1 535/14/1 536/11/1
f 537/9/1 538/10/1 539/11/1 540/12/1
f 541/10/1 542/13/1 543/14/1 544/11/1
f 545/17/1 546/18/1 547/6/1 548/5/1
f 549/18/1 550/15/1 551/1/1 552/6/1

