# Tiled2Unity generated file. Do not modify by hand.
# Wavefront file for 'esce1nivel1_mesh_0006.obj'

# Vertices (Count = 484)
v 0 -390 0
v -32 -390 0
v -32 -358 0
v 0 -358 0
v -30 -390 0
v -62 -390 0
v -62 -358 0
v -30 -358 0
v -60 -390 0
v -92 -390 0
v -92 -358 0
v -60 -358 0
v -90 -390 0
v -122 -390 0
v -122 -358 0
v -90 -358 0
v -390 -390 0
v -422 -390 0
v -422 -358 0
v -390 -358 0
v 0 -660 0
v -32 -660 0
v -32 -628 0
v 0 -628 0
v -870 -660 0
v -902 -660 0
v -902 -628 0
v -870 -628 0
v 0 -690 0
v -32 -690 0
v -32 -658 0
v 0 -658 0
v -870 -690 0
v -902 -690 0
v -902 -658 0
v -870 -658 0
v 0 -720 0
v -32 -720 0
v -32 -688 0
v 0 -688 0
v -870 -720 0
v -902 -720 0
v -902 -688 0
v -870 -688 0
v 0 -750 0
v -32 -750 0
v -32 -718 0
v 0 -718 0
v -870 -750 0
v -902 -750 0
v -902 -718 0
v -870 -718 0
v 0 -810 0
v -32 -810 0
v -32 -778 0
v 0 -778 0
v -30 -810 0
v -62 -810 0
v -62 -778 0
v -30 -778 0
v -60 -810 0
v -92 -810 0
v -92 -778 0
v -60 -778 0
v -90 -810 0
v -122 -810 0
v -122 -778 0
v -90 -778 0
v -120 -810 0
v -152 -810 0
v -152 -778 0
v -120 -778 0
v -150 -810 0
v -182 -810 0
v -182 -778 0
v -150 -778 0
v -180 -810 0
v -212 -810 0
v -212 -778 0
v -180 -778 0
v -210 -810 0
v -242 -810 0
v -242 -778 0
v -210 -778 0
v -240 -810 0
v -272 -810 0
v -272 -778 0
v -240 -778 0
v -270 -810 0
v -302 -810 0
v -302 -778 0
v -270 -778 0
v -300 -810 0
v -332 -810 0
v -332 -778 0
v -300 -778 0
v -330 -810 0
v -362 -810 0
v -362 -778 0
v -330 -778 0
v -360 -810 0
v -392 -810 0
v -392 -778 0
v -360 -778 0
v -390 -810 0
v -422 -810 0
v -422 -778 0
v -390 -778 0
v -420 -810 0
v -452 -810 0
v -452 -778 0
v -420 -778 0
v -540 -810 0
v -572 -810 0
v -572 -778 0
v -540 -778 0
v -570 -810 0
v -602 -810 0
v -602 -778 0
v -570 -778 0
v -600 -810 0
v -632 -810 0
v -632 -778 0
v -600 -778 0
v -630 -810 0
v -662 -810 0
v -662 -778 0
v -630 -778 0
v -660 -810 0
v -692 -810 0
v -692 -778 0
v -660 -778 0
v -690 -810 0
v -722 -810 0
v -722 -778 0
v -690 -778 0
v -720 -810 0
v -752 -810 0
v -752 -778 0
v -720 -778 0
v -750 -810 0
v -782 -810 0
v -782 -778 0
v -750 -778 0
v -780 -810 0
v -812 -810 0
v -812 -778 0
v -780 -778 0
v -810 -810 0
v -842 -810 0
v -842 -778 0
v -810 -778 0
v -840 -810 0
v -872 -810 0
v -872 -778 0
v -840 -778 0
v -870 -810 0
v -902 -810 0
v -902 -778 0
v -870 -778 0
v 0 -840 0
v -32 -840 0
v -32 -808 0
v 0 -808 0
v -30 -840 0
v -62 -840 0
v -62 -808 0
v -30 -808 0
v -60 -840 0
v -92 -840 0
v -92 -808 0
v -60 -808 0
v -90 -840 0
v -122 -840 0
v -122 -808 0
v -90 -808 0
v -120 -840 0
v -152 -840 0
v -152 -808 0
v -120 -808 0
v -150 -840 0
v -182 -840 0
v -182 -808 0
v -150 -808 0
v -180 -840 0
v -212 -840 0
v -212 -808 0
v -180 -808 0
v -210 -840 0
v -242 -840 0
v -242 -808 0
v -210 -808 0
v -240 -840 0
v -272 -840 0
v -272 -808 0
v -240 -808 0
v -270 -840 0
v -302 -840 0
v -302 -808 0
v -270 -808 0
v -300 -840 0
v -332 -840 0
v -332 -808 0
v -300 -808 0
v -330 -840 0
v -362 -840 0
v -362 -808 0
v -330 -808 0
v -360 -840 0
v -392 -840 0
v -392 -808 0
v -360 -808 0
v -390 -840 0
v -422 -840 0
v -422 -808 0
v -390 -808 0
v -420 -840 0
v -452 -840 0
v -452 -808 0
v -420 -808 0
v -540 -840 0
v -572 -840 0
v -572 -808 0
v -540 -808 0
v -570 -840 0
v -602 -840 0
v -602 -808 0
v -570 -808 0
v -600 -840 0
v -632 -840 0
v -632 -808 0
v -600 -808 0
v -630 -840 0
v -662 -840 0
v -662 -808 0
v -630 -808 0
v -660 -840 0
v -692 -840 0
v -692 -808 0
v -660 -808 0
v -690 -840 0
v -722 -840 0
v -722 -808 0
v -690 -808 0
v -720 -840 0
v -752 -840 0
v -752 -808 0
v -720 -808 0
v -750 -840 0
v -782 -840 0
v -782 -808 0
v -750 -808 0
v -780 -840 0
v -812 -840 0
v -812 -808 0
v -780 -808 0
v -810 -840 0
v -842 -840 0
v -842 -808 0
v -810 -808 0
v -840 -840 0
v -872 -840 0
v -872 -808 0
v -840 -808 0
v -870 -840 0
v -902 -840 0
v -902 -808 0
v -870 -808 0
v 0 -870 0
v -32 -870 0
v -32 -838 0
v 0 -838 0
v -30 -870 0
v -62 -870 0
v -62 -838 0
v -30 -838 0
v -60 -870 0
v -92 -870 0
v -92 -838 0
v -60 -838 0
v -90 -870 0
v -122 -870 0
v -122 -838 0
v -90 -838 0
v -120 -870 0
v -152 -870 0
v -152 -838 0
v -120 -838 0
v -150 -870 0
v -182 -870 0
v -182 -838 0
v -150 -838 0
v -180 -870 0
v -212 -870 0
v -212 -838 0
v -180 -838 0
v -210 -870 0
v -242 -870 0
v -242 -838 0
v -210 -838 0
v -240 -870 0
v -272 -870 0
v -272 -838 0
v -240 -838 0
v -270 -870 0
v -302 -870 0
v -302 -838 0
v -270 -838 0
v -300 -870 0
v -332 -870 0
v -332 -838 0
v -300 -838 0
v -330 -870 0
v -362 -870 0
v -362 -838 0
v -330 -838 0
v -360 -870 0
v -392 -870 0
v -392 -838 0
v -360 -838 0
v -390 -870 0
v -422 -870 0
v -422 -838 0
v -390 -838 0
v -420 -870 0
v -452 -870 0
v -452 -838 0
v -420 -838 0
v -540 -870 0
v -572 -870 0
v -572 -838 0
v -540 -838 0
v -570 -870 0
v -602 -870 0
v -602 -838 0
v -570 -838 0
v -600 -870 0
v -632 -870 0
v -632 -838 0
v -600 -838 0
v -630 -870 0
v -662 -870 0
v -662 -838 0
v -630 -838 0
v -660 -870 0
v -692 -870 0
v -692 -838 0
v -660 -838 0
v -690 -870 0
v -722 -870 0
v -722 -838 0
v -690 -838 0
v -720 -870 0
v -752 -870 0
v -752 -838 0
v -720 -838 0
v -750 -870 0
v -782 -870 0
v -782 -838 0
v -750 -838 0
v -780 -870 0
v -812 -870 0
v -812 -838 0
v -780 -838 0
v -810 -870 0
v -842 -870 0
v -842 -838 0
v -810 -838 0
v -840 -870 0
v -872 -870 0
v -872 -838 0
v -840 -838 0
v -870 -870 0
v -902 -870 0
v -902 -838 0
v -870 -838 0
v 0 -900 0
v -32 -900 0
v -32 -868 0
v 0 -868 0
v -30 -900 0
v -62 -900 0
v -62 -868 0
v -30 -868 0
v -60 -900 0
v -92 -900 0
v -92 -868 0
v -60 -868 0
v -90 -900 0
v -122 -900 0
v -122 -868 0
v -90 -868 0
v -120 -900 0
v -152 -900 0
v -152 -868 0
v -120 -868 0
v -150 -900 0
v -182 -900 0
v -182 -868 0
v -150 -868 0
v -180 -900 0
v -212 -900 0
v -212 -868 0
v -180 -868 0
v -210 -900 0
v -242 -900 0
v -242 -868 0
v -210 -868 0
v -240 -900 0
v -272 -900 0
v -272 -868 0
v -240 -868 0
v -270 -900 0
v -302 -900 0
v -302 -868 0
v -270 -868 0
v -300 -900 0
v -332 -900 0
v -332 -868 0
v -300 -868 0
v -330 -900 0
v -362 -900 0
v -362 -868 0
v -330 -868 0
v -360 -900 0
v -392 -900 0
v -392 -868 0
v -360 -868 0
v -390 -900 0
v -422 -900 0
v -422 -868 0
v -390 -868 0
v -420 -900 0
v -452 -900 0
v -452 -868 0
v -420 -868 0
v -540 -900 0
v -572 -900 0
v -572 -868 0
v -540 -868 0
v -570 -900 0
v -602 -900 0
v -602 -868 0
v -570 -868 0
v -600 -900 0
v -632 -900 0
v -632 -868 0
v -600 -868 0
v -630 -900 0
v -662 -900 0
v -662 -868 0
v -630 -868 0
v -660 -900 0
v -692 -900 0
v -692 -868 0
v -660 -868 0
v -690 -900 0
v -722 -900 0
v -722 -868 0
v -690 -868 0
v -720 -900 0
v -752 -900 0
v -752 -868 0
v -720 -868 0
v -750 -900 0
v -782 -900 0
v -782 -868 0
v -750 -868 0
v -780 -900 0
v -812 -900 0
v -812 -868 0
v -780 -868 0
v -810 -900 0
v -842 -900 0
v -842 -868 0
v -810 -868 0
v -840 -900 0
v -872 -900 0
v -872 -868 0
v -840 -868 0
v -870 -900 0
v -902 -900 0
v -902 -868 0
v -870 -868 0

# Texture cooridinates (Count = 40)
vt 0.125 0.944186
vt 0.25 0.944186
vt 0.25 0.947907
vt 0.125 0.947907
vt 0 0.9702325
vt 0.125 0.9702325
vt 0.125 0.9739535
vt 0 0.9739535
vt 0.25 0.9702325
vt 0.375 0.9702325
vt 0.375 0.9739535
vt 0.25 0.9739535
vt 0 0.9665116
vt 0.125 0.9665116
vt 0.25 0.9665116
vt 0.375 0.9665116
vt 0 0.9627907
vt 0.125 0.9627907
vt 0.25 0.9627907
vt 0.375 0.9627907
vt 0.375 0.8772093
vt 0.5 0.8772093
vt 0.5 0.8809302
vt 0.375 0.8809302
vt 0.625 0.8772093
vt 0.625 0.8809302
vt 0.75 0.8772093
vt 0.75 0.8809302
vt 0.375 0.8734884
vt 0.5 0.8734884
vt 0.625 0.8734884
vt 0.75 0.8734884
vt 0.375 0.8697674
vt 0.5 0.8697674
vt 0.625 0.8697674
vt 0.75 0.8697674
vt 0.375 0.8660465
vt 0.5 0.8660465
vt 0.625 0.8660465
vt 0.75 0.8660465

# Normal
vn 0 0 -1

# Mesh description
g esce1nivel1_mesh_0006

# Faces
f 1/1/1 2/2/1 3/3/1 4/4/1
f 5/1/1 6/2/1 7/3/1 8/4/1
f 9/1/1 10/2/1 11/3/1 12/4/1
f 13/1/1 14/2/1 15/3/1 16/4/1
f 17/1/1 18/2/1 19/3/1 20/4/1
f 21/5/1 22/6/1 23/7/1 24/8/1
f 25/9/1 26/10/1 27/11/1 28/12/1
f 29/13/1 30/14/1 31/6/1 32/5/1
f 33/15/1 34/16/1 35/10/1 36/9/1
f 37/13/1 38/14/1 39/6/1 40/5/1
f 41/15/1 42/16/1 43/10/1 44/9/1
f 45/17/1 46/18/1 47/14/1 48/13/1
f 49/19/1 50/20/1 51/16/1 52/15/1
f 53/21/1 54/22/1 55/23/1 56/24/1
f 57/22/1 58/25/1 59/26/1 60/23/1
f 61/25/1 62/27/1 63/28/1 64/26/1
f 65/21/1 66/22/1 67/23/1 68/24/1
f 69/22/1 70/25/1 71/26/1 72/23/1
f 73/25/1 74/27/1 75/28/1 76/26/1
f 77/21/1 78/22/1 79/23/1 80/24/1
f 81/22/1 82/25/1 83/26/1 84/23/1
f 85/25/1 86/27/1 87/28/1 88/26/1
f 89/21/1 90/22/1 91/23/1 92/24/1
f 93/22/1 94/25/1 95/26/1 96/23/1
f 97/25/1 98/27/1 99/28/1 100/26/1
f 101/21/1 102/22/1 103/23/1 104/24/1
f 105/22/1 106/25/1 107/26/1 108/23/1
f 109/25/1 110/27/1 111/28/1 112/26/1
f 113/21/1 114/22/1 115/23/1 116/24/1
f 117/22/1 118/25/1 119/26/1 120/23/1
f 121/25/1 122/27/1 123/28/1 124/26/1
f 125/21/1 126/22/1 127/23/1 128/24/1
f 129/22/1 130/25/1 131/26/1 132/23/1
f 133/25/1 134/27/1 135/28/1 136/26/1
f 137/21/1 138/22/1 139/23/1 140/24/1
f 141/22/1 142/25/1 143/26/1 144/23/1
f 145/25/1 146/27/1 147/28/1 148/26/1
f 149/21/1 150/22/1 151/23/1 152/24/1
f 153/22/1 154/25/1 155/26/1 156/23/1
f 157/25/1 158/27/1 159/28/1 160/26/1
f 161/29/1 162/30/1 163/22/1 164/21/1
f 165/30/1 166/31/1 167/25/1 168/22/1
f 169/31/1 170/32/1 171/27/1 172/25/1
f 173/29/1 174/30/1 175/22/1 176/21/1
f 177/30/1 178/31/1 179/25/1 180/22/1
f 181/31/1 182/32/1 183/27/1 184/25/1
f 185/29/1 186/30/1 187/22/1 188/21/1
f 189/30/1 190/31/1 191/25/1 192/22/1
f 193/31/1 194/32/1 195/27/1 196/25/1
f 197/29/1 198/30/1 199/22/1 200/21/1
f 201/30/1 202/31/1 203/25/1 204/22/1
f 205/31/1 206/32/1 207/27/1 208/25/1
f 209/29/1 210/30/1 211/22/1 212/21/1
f 213/30/1 214/31/1 215/25/1 216/22/1
f 217/31/1 218/32/1 219/27/1 220/25/1
f 221/29/1 222/30/1 223/22/1 224/21/1
f 225/30/1 226/31/1 227/25/1 228/22/1
f 229/31/1 230/32/1 231/27/1 232/25/1
f 233/29/1 234/30/1 235/22/1 236/21/1
f 237/30/1 238/31/1 239/25/1 240/22/1
f 241/31/1 242/32/1 243/27/1 244/25/1
f 245/29/1 246/30/1 247/22/1 248/21/1
f 249/30/1 250/31/1 251/25/1 252/22/1
f 253/31/1 254/32/1 255/27/1 256/25/1
f 257/29/1 258/30/1 259/22/1 260/21/1
f 261/30/1 262/31/1 263/25/1 264/22/1
f 265/31/1 266/32/1 267/27/1 268/25/1
f 269/33/1 270/34/1 271/30/1 272/29/1
f 273/34/1 274/35/1 275/31/1 276/30/1
f 277/35/1 278/36/1 279/32/1 280/31/1
f 281/33/1 282/34/1 283/30/1 284/29/1
f 285/34/1 286/35/1 287/31/1 288/30/1
f 289/35/1 290/36/1 291/32/1 292/31/1
f 293/33/1 294/34/1 295/30/1 296/29/1
f 297/34/1 298/35/1 299/31/1 300/30/1
f 301/35/1 302/36/1 303/32/1 304/31/1
f 305/33/1 306/34/1 307/30/1 308/29/1
f 309/34/1 310/35/1 311/31/1 312/30/1
f 313/35/1 314/36/1 315/32/1 316/31/1
f 317/33/1 318/34/1 319/30/1 320/29/1
f 321/34/1 322/35/1 323/31/1 324/30/1
f 325/35/1 326/36/1 327/32/1 328/31/1
f 329/33/1 330/34/1 331/30/1 332/29/1
f 333/34/1 334/35/1 335/31/1 336/30/1
f 337/35/1 338/36/1 339/32/1 340/31/1
f 341/33/1 342/34/1 343/30/1 344/29/1
f 345/34/1 346/35/1 347/31/1 348/30/1
f 349/35/1 350/36/1 351/32/1 352/31/1
f 353/33/1 354/34/1 355/30/1 356/29/1
f 357/34/1 358/35/1 359/31/1 360/30/1
f 361/35/1 362/36/1 363/32/1 364/31/1
f 365/33/1 366/34/1 367/30/1 368/29/1
f 369/34/1 370/35/1 371/31/1 372/30/1
f 373/35/1 374/36/1 375/32/1 376/31/1
f 377/37/1 378/38/1 379/34/1 380/33/1
f 381/38/1 382/39/1 383/35/1 384/34/1
f 385/39/1 386/40/1 387/36/1 388/35/1
f 389/37/1 390/38/1 391/34/1 392/33/1
f 393/38/1 394/39/1 395/35/1 396/34/1
f 397/39/1 398/40/1 399/36/1 400/35/1
f 401/37/1 402/38/1 403/34/1 404/33/1
f 405/38/1 406/39/1 407/35/1 408/34/1
f 409/39/1 410/40/1 411/36/1 412/35/1
f 413/37/1 414/38/1 415/34/1 416/33/1
f 417/38/1 418/39/1 419/35/1 420/34/1
f 421/39/1 422/40/1 423/36/1 424/35/1
f 425/37/1 426/38/1 427/34/1 428/33/1
f 429/38/1 430/39/1 431/35/1 432/34/1
f 433/39/1 434/40/1 435/36/1 436/35/1
f 437/37/1 438/38/1 439/34/1 440/33/1
f 441/38/1 442/39/1 443/35/1 444/34/1
f 445/39/1 446/40/1 447/36/1 448/35/1
f 449/37/1 450/38/1 451/34/1 452/33/1
f 453/38/1 454/39/1 455/35/1 456/34/1
f 457/39/1 458/40/1 459/36/1 460/35/1
f 461/37/1 462/38/1 463/34/1 464/33/1
f 465/38/1 466/39/1 467/35/1 468/34/1
f 469/39/1 470/40/1 471/36/1 472/35/1
f 473/37/1 474/38/1 475/34/1 476/33/1
f 477/38/1 478/39/1 479/35/1 480/34/1
f 481/39/1 482/40/1 483/36/1 484/35/1

